<svg width="21" height="21" viewBox="0 0 21 21" fill="none" xmlns="http://www.w3.org/2000/svg">
<g clip-path="url(#clip0_327_250)">
<path d="M15.1135 13.5259L21 19.4124L19.4124 21L13.5259 15.1135C12.1093 16.1957 10.3393 16.8386 8.41929 16.8386C3.76913 16.8386 0 13.069 0 8.41929C0 3.76913 3.76913 0 8.41929 0C13.069 0 16.8386 3.76913 16.8386 8.41929C16.8386 10.3393 16.1957 12.1093 15.1135 13.5259ZM8.41929 14.5931C11.8291 14.5931 14.5932 11.829 14.5932 8.41918C14.5932 5.00907 11.8291 2.24484 8.41929 2.24484C5.00918 2.24484 2.24494 5.00897 2.24494 8.41918C2.24494 11.829 5.00908 14.5931 8.41929 14.5931Z" fill="white"/>
</g>
<defs>
<clipPath id="clip0_327_250">
<rect width="21" height="21" fill="white"/>
</clipPath>
</defs>
</svg>
