<svg 
 xmlns="http://www.w3.org/2000/svg"
 xmlns:xlink="http://www.w3.org/1999/xlink"
 width="20px" height="23px">
<path fill-rule="evenodd"  fill="rgb(255, 255, 255)"
 d="M20.000,20.042 L18.507,6.760 L18.507,6.760 C18.478,6.398 18.149,6.096 17.761,6.096 L15.582,6.096 L15.582,5.643 C15.582,2.534 13.075,-0.001 10.000,-0.001 C6.925,-0.001 4.418,2.534 4.418,5.643 L4.418,6.096 L2.239,6.096 C1.851,6.096 1.552,6.398 1.493,6.760 L1.493,6.760 L0.000,20.042 C0.000,20.072 0.000,20.103 0.000,20.132 C0.000,21.702 1.284,23.000 2.836,23.000 L17.164,23.000 C18.716,23.000 20.000,21.702 20.000,20.132 C20.000,20.103 20.000,20.072 20.000,20.042 ZM5.910,5.643 C5.910,3.349 7.761,1.508 10.000,1.508 C12.239,1.508 14.090,3.349 14.090,5.643 L14.090,6.096 L5.910,6.096 L5.910,5.643 ZM17.164,21.491 L2.836,21.491 C2.119,21.491 1.522,20.887 1.493,20.162 L2.896,7.606 L4.418,7.606 L4.418,11.469 C4.418,11.892 4.746,12.224 5.164,12.224 C5.582,12.224 5.910,11.892 5.910,11.469 L5.910,7.606 L14.090,7.606 L14.090,11.469 C14.090,11.892 14.418,12.224 14.836,12.224 C15.254,12.224 15.582,11.892 15.582,11.469 L15.582,7.606 L17.104,7.606 L18.507,20.162 C18.478,20.918 17.881,21.491 17.164,21.491 Z"/>
</svg>
