<svg 
 xmlns="http://www.w3.org/2000/svg"
 xmlns:xlink="http://www.w3.org/1999/xlink"
 width="15px" height="16px">
<path fill-rule="evenodd"  fill="rgb(55, 55, 55)"
 d="M13.777,15.989 L1.212,15.989 L1.212,8.002 C1.212,7.808 1.368,7.652 1.557,7.652 C1.748,7.652 1.903,7.808 1.903,8.002 L1.903,15.290 L13.087,15.290 L13.087,8.002 C13.087,7.808 13.241,7.652 13.433,7.652 C13.623,7.652 13.777,7.808 13.777,8.002 L13.777,15.989 M7.495,12.669 C6.400,12.669 5.412,11.929 5.038,10.826 C4.976,10.644 5.072,10.445 5.252,10.382 C5.433,10.320 5.629,10.416 5.692,10.599 C5.970,11.420 6.695,11.970 7.495,11.970 C8.297,11.970 9.022,11.420 9.300,10.599 C9.363,10.416 9.559,10.320 9.739,10.382 C9.919,10.445 10.015,10.644 9.953,10.826 C9.579,11.929 8.591,12.669 7.495,12.669 ZM0.334,7.806 C0.243,7.806 0.153,7.770 0.085,7.698 C-0.048,7.559 -0.043,7.337 0.095,7.204 L7.495,0.010 L14.897,7.204 C15.034,7.337 15.039,7.559 14.906,7.698 C14.774,7.838 14.555,7.842 14.418,7.708 L7.495,0.980 L0.573,7.708 C0.506,7.773 0.420,7.806 0.334,7.806 Z"/>
</svg>
