<svg 
 xmlns="http://www.w3.org/2000/svg"
 xmlns:xlink="http://www.w3.org/1999/xlink"
 width="41px" height="33px">
<path fill-rule="evenodd"  fill="rgb(234, 30, 78)"
 d="M38.935,14.499 C38.713,14.499 38.533,14.677 38.533,14.895 L38.533,30.785 C38.533,31.568 38.419,32.206 36.464,32.206 L33.310,32.206 L33.310,18.391 C33.310,18.172 33.130,17.994 32.908,17.994 L8.338,17.994 C8.116,17.994 7.937,18.172 7.937,18.391 L7.937,32.206 L3.907,32.206 C3.112,32.206 2.466,31.568 2.466,30.785 L2.466,14.895 C2.466,14.677 2.286,14.499 2.064,14.499 C1.842,14.499 1.662,14.677 1.662,14.895 L1.662,30.785 C1.662,32.005 2.566,32.999 3.590,32.999 L16.536,32.999 L33.819,32.999 L37.091,32.999 C38.329,32.999 39.336,32.006 39.336,30.785 L39.336,14.895 C39.336,14.677 39.157,14.499 38.935,14.499 ZM32.506,32.206 L8.740,32.206 L8.740,18.787 L32.506,18.787 L32.506,32.206 L32.506,32.206 ZM40.934,8.360 C40.914,8.303 40.881,8.251 40.838,8.209 L35.741,0.193 C35.667,0.078 35.539,0.007 35.400,0.007 L5.648,0.007 C5.510,0.007 5.382,0.077 5.308,0.191 L0.162,8.207 C0.118,8.250 0.085,8.303 0.064,8.361 C-0.008,8.473 -0.015,8.614 0.040,8.734 L0.040,12.126 C0.040,12.139 0.041,12.152 0.042,12.164 C0.072,13.724 1.376,14.987 2.964,14.987 C3.999,14.987 4.934,14.439 5.455,13.610 C5.970,14.448 6.898,14.987 7.954,14.987 C8.999,14.987 9.934,14.435 10.450,13.596 C10.969,14.435 11.905,14.987 12.948,14.987 C13.992,14.987 14.928,14.435 15.446,13.596 C15.963,14.435 16.898,14.987 17.942,14.987 C18.988,14.987 19.925,14.435 20.443,13.599 C20.959,14.435 21.895,14.987 22.940,14.987 C23.985,14.987 24.922,14.435 25.440,13.599 C25.956,14.435 26.891,14.987 27.938,14.987 C28.983,14.987 29.920,14.435 30.438,13.599 C30.954,14.435 31.890,14.987 32.936,14.987 C34.026,14.987 34.983,14.392 35.485,13.514 C35.988,14.392 36.944,14.987 38.034,14.987 C39.632,14.987 40.941,13.710 40.957,12.138 C40.957,12.127 40.958,12.115 40.958,12.104 L40.958,8.734 C41.014,8.614 41.007,8.473 40.934,8.360 ZM5.868,0.799 L35.178,0.799 L39.817,8.095 L1.185,8.095 L5.868,0.799 ZM40.155,12.093 C40.154,12.103 40.154,12.113 40.154,12.123 C40.146,13.265 39.195,14.194 38.034,14.194 C36.874,14.194 35.923,13.265 35.915,12.123 C35.913,11.906 35.734,11.730 35.513,11.730 L35.458,11.730 C35.236,11.730 35.057,11.906 35.056,12.123 C35.047,13.265 34.097,14.194 32.936,14.194 C31.878,14.194 30.976,13.416 30.838,12.383 C30.812,12.186 30.641,12.039 30.440,12.039 C30.439,12.039 30.439,12.039 30.439,12.039 C30.238,12.039 30.068,12.185 30.041,12.382 C29.900,13.415 28.996,14.194 27.938,14.194 C26.880,14.194 25.978,13.416 25.841,12.383 C25.815,12.186 25.645,12.039 25.444,12.039 L25.443,12.039 C25.242,12.039 25.071,12.185 25.045,12.381 C24.902,13.415 23.997,14.194 22.940,14.194 C21.882,14.194 20.980,13.416 20.843,12.383 C20.817,12.186 20.647,12.039 20.445,12.039 C20.445,12.039 20.445,12.039 20.444,12.039 C20.244,12.039 20.073,12.185 20.046,12.381 C19.904,13.415 19.000,14.194 17.942,14.194 C16.887,14.194 15.985,13.415 15.845,12.382 C15.818,12.186 15.648,12.039 15.447,12.039 C15.447,12.039 15.447,12.039 15.447,12.039 C15.246,12.039 15.075,12.185 15.048,12.381 C14.905,13.415 14.002,14.194 12.947,14.194 C11.892,14.194 10.988,13.415 10.846,12.381 C10.819,12.185 10.649,12.039 10.448,12.039 C10.448,12.039 10.448,12.039 10.447,12.039 C10.246,12.039 10.077,12.186 10.050,12.382 C9.910,13.416 9.008,14.194 7.952,14.194 C6.894,14.194 6.012,13.445 5.855,12.414 C5.826,12.219 5.656,12.076 5.458,12.076 C5.259,12.076 5.090,12.219 5.060,12.414 C4.906,13.429 4.004,14.194 2.963,14.194 C1.802,14.194 0.852,13.265 0.844,12.123 C0.844,12.113 0.844,12.103 0.843,12.093 L0.843,8.967 L40.154,8.967 L40.154,12.093 L40.155,12.093 Z"/>
</svg>
