<svg 
 xmlns="http://www.w3.org/2000/svg"
 xmlns:xlink="http://www.w3.org/1999/xlink"
 width="26px" height="15px">
<path fill-rule="evenodd"  fill="rgb(255, 255, 255)"
 d="M12.999,8.208 C14.936,8.208 16.512,6.580 16.512,4.580 C16.512,2.578 14.936,0.950 12.999,0.950 C11.062,0.950 9.486,2.578 9.486,4.580 C9.486,6.580 11.062,8.208 12.999,8.208 ZM12.999,2.364 C14.182,2.364 15.144,3.357 15.144,4.580 C15.144,5.801 14.182,6.794 12.999,6.794 C11.816,6.794 10.854,5.801 10.854,4.580 C10.854,3.357 11.816,2.364 12.999,2.364 ZM25.999,11.238 C26.027,11.627 25.745,11.967 25.367,11.996 C25.350,11.997 25.333,11.998 25.315,11.998 C24.961,11.998 24.660,11.715 24.634,11.344 C24.520,9.782 23.899,7.989 20.070,7.989 C18.316,7.989 17.094,8.359 16.364,9.113 C18.690,9.885 19.967,11.596 20.159,14.236 C20.187,14.626 19.905,14.965 19.528,14.994 C19.153,15.025 18.823,14.732 18.794,14.342 C18.649,12.343 17.859,10.049 12.999,10.049 C8.136,10.049 7.348,12.344 7.204,14.344 C7.178,14.716 6.877,14.999 6.523,14.999 C6.506,14.999 6.489,14.999 6.471,14.997 C6.095,14.968 5.812,14.629 5.840,14.240 C6.029,11.597 7.305,9.885 9.633,9.112 C8.903,8.360 7.682,7.990 5.928,7.989 C2.097,7.989 1.477,9.783 1.364,11.345 C1.338,11.717 1.037,11.999 0.683,11.999 C0.666,11.999 0.649,11.999 0.632,11.997 C0.255,11.968 -0.028,11.630 -0.000,11.240 C0.222,8.145 2.216,6.574 5.929,6.574 C8.500,6.576 10.203,7.296 11.118,8.768 C11.700,8.682 12.323,8.633 12.999,8.633 C13.675,8.633 14.298,8.682 14.880,8.768 C15.795,7.295 17.498,6.574 20.070,6.574 C23.779,6.574 25.774,8.143 25.999,11.238 ZM20.070,6.150 C21.711,6.150 23.045,4.772 23.045,3.078 C23.045,1.382 21.711,0.003 20.070,0.003 C18.429,0.003 17.094,1.382 17.094,3.078 C17.094,4.772 18.429,6.150 20.070,6.150 ZM20.070,1.417 C20.956,1.417 21.677,2.161 21.677,3.078 C21.677,3.992 20.956,4.736 20.070,4.736 C19.184,4.736 18.463,3.992 18.463,3.078 C18.462,2.161 19.183,1.417 20.070,1.417 ZM5.929,6.150 C7.570,6.150 8.904,4.772 8.904,3.078 C8.904,1.382 7.570,0.003 5.929,0.003 C4.288,0.003 2.953,1.382 2.953,3.078 C2.953,4.772 4.288,6.150 5.929,6.150 ZM5.929,1.417 C6.815,1.417 7.536,2.161 7.536,3.078 C7.536,3.992 6.815,4.736 5.929,4.736 C5.043,4.736 4.322,3.992 4.322,3.078 C4.322,2.161 5.043,1.417 5.929,1.417 Z"/>
</svg>
