<svg width="179" height="122" viewBox="0 0 179 122" fill="none" xmlns="http://www.w3.org/2000/svg">
<g clip-path="url(#clip0)">
<path fill-rule="evenodd" clip-rule="evenodd" d="M6.6 121.9H6.3C6.2 121.9 6.1 121.8 6.1 121.7V116.5L4.2 120.3C4.2 120.4 4.1 120.4 4 120.4H3.8C3.7 120.4 3.7 120.4 3.6 120.3L1.6 116.5V121.7C1.6 121.8 1.5 121.9 1.4 121.9H1.2C1.1 121.9 1 121.8 1 121.7V115.3C1 115.2 1.1 115.1 1.2 115.1H1.6C1.7 115.1 1.7 115.1 1.8 115.2L4 119.4L6.1 115.2C6.1 115.1 6.2 115.1 6.3 115.1H6.7C6.8 115.1 6.9 115.2 6.9 115.3V121.7C6.8 121.8 6.7 121.9 6.6 121.9ZM13.5 121.9H13.2C13.1 121.9 13 121.8 13 121.8L12.2 119.7H9.5L8.7 121.8C8.7 121.9 8.6 121.9 8.5 121.9H8.3C8.2 121.9 8.1 121.8 8.1 121.7V121.6L10.6 115.2C10.6 115.1 10.7 115.1 10.8 115.1H11.1C11.2 115.1 11.3 115.2 11.3 115.2L13.7 121.6C13.7 121.7 13.7 121.8 13.5 121.9C13.5 121.9 13.6 121.9 13.5 121.9ZM9.8 119H12L10.9 116.2L9.8 119ZM15.5 121.9H15.2C15.1 121.9 15 121.8 15 121.7V115.3C15 115.2 15.1 115.1 15.2 115.1H15.5C15.6 115.1 15.7 115.2 15.7 115.3V121.7C15.7 121.8 15.6 121.9 15.5 121.9ZM19.8 122C19.2 122 18.6 121.8 18.1 121.4C17.7 121 17.4 120.4 17.4 119.7C17.4 119.6 17.5 119.5 17.6 119.5H17.9C18 119.5 18.1 119.6 18.1 119.7C18.1 120.1 18.3 120.6 18.6 120.9C18.9 121.2 19.4 121.4 19.8 121.3C20.2 121.3 20.6 121.2 20.9 121C21.2 120.8 21.4 120.4 21.4 120C21.4 119.6 21.2 119.3 20.9 119.1C20.5 118.9 20.1 118.7 19.7 118.7C19.7 118.7 19.7 118.7 19.6 118.7C19.1 118.6 18.6 118.4 18.1 118.1C17.8 117.8 17.6 117.3 17.6 116.9C17.6 116.3 17.8 115.8 18.3 115.5C18.7 115.2 19.2 115 19.8 115C20.4 115 20.9 115.2 21.4 115.5C21.8 115.9 22.1 116.5 22.1 117C22.1 117.1 22.1 117.1 22 117.1L21.9 117.2H21.6C21.5 117.2 21.4 117.1 21.4 117C21.4 116.6 21.2 116.2 20.9 115.9C20.6 115.6 20.2 115.5 19.8 115.5C19.4 115.5 19.1 115.6 18.8 115.8C18.5 116 18.4 116.4 18.4 116.7C18.4 117 18.5 117.2 18.7 117.4C19.1 117.6 19.5 117.8 19.9 117.9H20C20.5 118 21 118.2 21.4 118.4C21.9 118.7 22.2 119.2 22.2 119.8C22.2 120.4 22 121 21.5 121.4C21 121.9 20.4 122 19.8 122ZM26.7 122C25.8 122 24.9 121.7 24.4 120.9C23.5 119.4 23.5 117.5 24.4 115.9C24.9 115.2 25.8 114.8 26.7 114.8C27.6 114.7 28.5 115.1 29 115.9C29.5 116.6 29.7 117.5 29.7 118.4C29.7 119.3 29.5 120.2 29 120.9C28.4 121.7 27.6 122.1 26.7 122ZM24.9 120.5C25.7 121.5 27.2 121.6 28.2 120.8C28.3 120.7 28.4 120.6 28.5 120.5C29.2 119.2 29.2 117.7 28.5 116.4C27.7 115.4 26.3 115.3 25.3 116.1C25.2 116.2 25.1 116.3 25 116.4C24.1 117.7 24.1 119.2 24.9 120.5ZM36.3 121.9H36C35.9 121.9 35.9 121.9 35.8 121.8L32.1 116.4V121.6C32.1 121.7 32 121.8 31.9 121.8H31.6C31.5 121.8 31.4 121.7 31.4 121.6V115.2C31.4 115.1 31.5 115 31.6 115H32C32.1 115 32.1 115 32.2 115.1L35.9 120.5V115.2C35.9 115.1 36 115 36.1 115H36.4C36.5 115 36.6 115.1 36.6 115.2V121.6C36.5 121.8 36.4 121.9 36.3 121.9ZM31.9 115.5V115.6C31.9 115.6 31.9 115.6 32 115.6L31.9 115.5ZM44 119.7H41.6C41.5 119.7 41.4 119.6 41.4 119.5V119.2C41.4 119.1 41.5 119 41.6 119H44C44.1 119 44.2 119.1 44.2 119.2V119.5C44.2 119.6 44.2 119.7 44 119.7ZM51.9 122C51 122 50.1 121.6 49.6 120.9C48.7 119.4 48.7 117.5 49.6 116C50.1 115.3 51 114.9 51.9 114.9C52.5 114.9 53 115 53.5 115.3C54 115.6 54.4 116.1 54.5 116.6C54.5 116.7 54.5 116.8 54.4 116.8L54.1 116.9C54 116.9 54 116.9 53.9 116.9C53.8 116.9 53.8 116.8 53.8 116.8C53.6 116 52.7 115.4 51.9 115.5C51.2 115.5 50.5 115.8 50.2 116.4C49.8 117 49.6 117.7 49.7 118.4C49.7 119.1 49.9 119.8 50.2 120.4C50.6 121 51.2 121.3 51.9 121.3C52.5 121.3 53.1 121.1 53.5 120.7C53.9 120.3 54.1 119.7 54 119.1V119H52.1C52 119 51.9 118.9 51.9 118.8V118.5C51.9 118.4 52 118.3 52.1 118.3H54.5C54.6 118.3 54.7 118.4 54.7 118.5C54.7 118.6 54.7 118.6 54.7 118.7V118.9C54.9 120.1 54.2 121.2 53.2 121.7C52.8 121.9 52.4 122 51.9 122ZM61.2 121.9H60.9C60.8 121.9 60.7 121.8 60.7 121.8L59.9 119.7H57.2L56.4 121.8C56.4 121.9 56.3 121.9 56.2 121.9H55.9C55.8 121.9 55.7 121.8 55.7 121.7V121.6L58.2 115.2C58.2 115.1 58.3 115.1 58.4 115.1H58.7C58.8 115.1 58.9 115.2 58.9 115.2L61.3 121.6C61.4 121.7 61.4 121.8 61.2 121.9C61.2 121.9 61.3 121.9 61.2 121.9ZM57.5 119H59.7L58.6 116.2L57.5 119ZM64.7 122C64.1 122 63.5 121.8 63 121.4C62.6 121 62.3 120.4 62.3 119.7C62.3 119.6 62.3 119.6 62.4 119.5L62.5 119.4H62.8C62.9 119.4 63 119.5 63 119.6C63 120 63.2 120.5 63.5 120.8C63.8 121.1 64.3 121.3 64.7 121.2C65.1 121.2 65.5 121.1 65.8 120.9C66.1 120.7 66.3 120.3 66.3 119.9C66.3 119.5 66.1 119.2 65.8 119C65.4 118.8 65 118.6 64.6 118.6H64.5C64 118.5 63.5 118.3 63 118C62.7 117.7 62.5 117.2 62.5 116.8C62.5 116.2 62.7 115.7 63.2 115.4C63.6 115.1 64.1 114.9 64.7 114.9C65.3 114.9 65.8 115.1 66.3 115.4C66.7 115.8 67 116.4 67 116.9C67 117 67 117 66.9 117L66.8 117.1H66.5C66.4 117.1 66.3 117 66.3 116.9C66.3 116.5 66.1 116.1 65.8 115.8C65.5 115.5 65.1 115.4 64.7 115.4C64.3 115.4 64 115.5 63.7 115.7C63.4 115.9 63.3 116.3 63.3 116.6C63.3 116.9 63.4 117.1 63.6 117.3C64 117.5 64.4 117.7 64.8 117.8H64.9C65.4 117.9 65.9 118.1 66.3 118.3C66.8 118.6 67.1 119.1 67.1 119.7C67.1 120.3 66.9 120.9 66.4 121.3C65.9 121.9 65.3 122 64.7 122ZM70.7 121.9H70.4C70.3 121.9 70.2 121.8 70.2 121.7V115.8H68.4C68.3 115.8 68.2 115.7 68.2 115.6V115.3C68.2 115.2 68.3 115.1 68.4 115.1H72.7C72.8 115.1 72.9 115.2 72.9 115.3V115.6C72.9 115.7 72.8 115.8 72.7 115.8H70.9V121.7C70.9 121.8 70.8 121.9 70.7 121.9ZM78.6 121.9H78.3C78.2 121.9 78.1 121.8 78.1 121.7V120.3C78.1 120.1 78.1 120 78.1 119.9C78.1 119.8 78.1 119.8 78.1 119.7C78.1 119.4 77.9 119.2 77.7 119.1C77.4 119 77.1 118.9 76.8 119H75V121.8C75 121.9 74.9 122 74.8 122H74.5C74.4 122 74.3 121.9 74.3 121.8V115.4C74.3 115.3 74.4 115.2 74.5 115.2H76.6C77.2 115.2 77.8 115.3 78.3 115.5C79.1 116.2 79.3 117.4 78.6 118.2C78.5 118.3 78.3 118.5 78.2 118.6C78.6 118.9 78.8 119.3 78.8 119.7C78.8 119.7 78.8 119.7 78.8 120.6V121.8C78.8 121.9 78.8 121.9 78.7 121.9C78.7 121.9 78.6 121.9 78.6 121.9ZM75 118.2H76.8C78.2 118.2 78.3 117.5 78.3 117C78.4 116.4 78 115.9 77.4 115.8C77.3 115.8 77.2 115.8 77.1 115.8C77 115.8 76.8 115.8 76.6 115.8H75V118.2ZM83.6 122C82.7 122 81.8 121.7 81.3 120.9C80.4 119.4 80.4 117.5 81.3 115.9C81.8 115.2 82.7 114.8 83.6 114.8C84.5 114.7 85.4 115.1 85.9 115.9C86.4 116.6 86.7 117.5 86.6 118.4C86.6 119.3 86.4 120.2 85.9 120.9C85.4 121.7 84.5 122.1 83.6 122ZM81.8 120.5C82.6 121.5 84.1 121.6 85.1 120.8C85.2 120.7 85.3 120.6 85.4 120.5C86.1 119.2 86.1 117.7 85.4 116.4C84.6 115.4 83.2 115.3 82.2 116.1C82.1 116.2 82 116.3 81.9 116.4C81.1 117.7 81.1 119.2 81.8 120.5ZM93.3 121.9H93C92.9 121.9 92.9 121.9 92.8 121.8L89.1 116.4V121.6C89.1 121.7 89 121.8 88.9 121.8H88.6C88.5 121.8 88.4 121.7 88.4 121.6V115.2C88.4 115.1 88.5 115 88.6 115H88.9C89 115 89 115 89.1 115.1L92.8 120.5V115.2C92.8 115.1 92.9 115 93 115H93.3C93.4 115 93.5 115.1 93.5 115.2V121.6C93.4 121.8 93.4 121.9 93.3 121.9ZM88.8 115.5V115.6V115.5ZM98.3 122C97.4 122 96.5 121.7 96 120.9C95.1 119.4 95.1 117.5 96 115.9C96.5 115.2 97.4 114.8 98.3 114.8C99.2 114.7 100.1 115.1 100.6 115.9C101.1 116.6 101.4 117.5 101.3 118.4C101.3 119.3 101.1 120.2 100.6 120.9C100.1 121.7 99.2 122.1 98.3 122ZM96.5 120.5C97.3 121.5 98.8 121.6 99.8 120.8C99.9 120.7 100 120.6 100.1 120.5C100.8 119.2 100.8 117.7 100.1 116.4C99.3 115.4 97.9 115.3 96.9 116.1C96.8 116.2 96.7 116.3 96.6 116.4C95.8 117.7 95.7 119.2 96.5 120.5ZM108.8 121.9H108.5C108.4 121.9 108.3 121.8 108.3 121.7V116.5L106.4 120.3C106.4 120.4 106.3 120.4 106.2 120.4H106C105.9 120.4 105.9 120.4 105.8 120.3L103.8 116.5V121.7C103.8 121.8 103.7 121.9 103.6 121.9H103.3C103.2 121.9 103.1 121.8 103.1 121.7V115.3C103.1 115.2 103.2 115.1 103.3 115.1H103.7C103.8 115.1 103.8 115.1 103.9 115.2L106.1 119.4L108.2 115.2C108.2 115.1 108.3 115.1 108.4 115.1H108.8C108.9 115.1 109 115.2 109 115.3V121.7C109 121.8 108.9 121.9 108.8 121.9ZM111.5 121.9H111.2C111.1 121.9 111 121.8 111 121.7V115.3C111 115.2 111.1 115.1 111.2 115.1H111.5C111.6 115.1 111.7 115.2 111.7 115.3V121.7C111.7 121.8 111.6 121.9 111.5 121.9ZM118 121.9H114C113.9 121.9 113.8 121.8 113.8 121.7V115.3C113.8 115.2 113.9 115.1 114 115.1H117.9C118 115.1 118.1 115.2 118.1 115.3V115.6C118.1 115.7 118 115.8 117.9 115.8H114.5V118H117.2C117.3 118 117.4 118.1 117.4 118.2V118.5C117.4 118.6 117.3 118.7 117.2 118.7H114.5V121.2H118C118.1 121.2 118.2 121.3 118.2 121.4V121.7C118.2 121.8 118.2 121.9 118 121.9C118 121.9 118.1 121.9 118 121.9ZM125.4 119.7H123C122.9 119.7 122.8 119.6 122.8 119.5V119.2C122.8 119.1 122.9 119 123 119H125.4C125.5 119 125.6 119.1 125.6 119.2V119.5C125.6 119.6 125.5 119.7 125.4 119.7ZM132.6 122C132 122 131.4 121.8 130.9 121.4C130.5 121 130.2 120.4 130.2 119.7C130.2 119.6 130.2 119.6 130.3 119.5L130.4 119.4H130.7C130.8 119.4 130.9 119.5 130.9 119.6C130.9 120 131.1 120.5 131.4 120.8C131.7 121.1 132.2 121.3 132.6 121.2C133 121.2 133.4 121.1 133.7 120.9C134 120.7 134.2 120.3 134.2 119.9C134.2 119.5 134 119.2 133.7 119C133.3 118.8 132.9 118.6 132.5 118.6H132.4C131.9 118.5 131.4 118.3 130.9 118C130.6 117.7 130.4 117.2 130.4 116.8C130.4 116.2 130.6 115.7 131.1 115.4C131.5 115.1 132 114.9 132.6 114.9C133.2 114.9 133.7 115.1 134.2 115.4C134.6 115.8 134.9 116.4 134.9 116.9C134.9 117 134.9 117 134.8 117L134.7 117.1H134.4C134.3 117.1 134.2 117 134.2 116.9C134.2 116.5 134 116.1 133.7 115.8C133.4 115.5 133 115.4 132.6 115.4C132.2 115.4 131.9 115.5 131.6 115.7C131.3 115.9 131.2 116.3 131.2 116.6C131.2 116.9 131.3 117.1 131.5 117.3C131.9 117.5 132.3 117.7 132.7 117.8H132.8C133.3 117.9 133.8 118.1 134.2 118.3C134.7 118.6 135 119.1 135 119.7C135 120.3 134.8 120.9 134.3 121.3C133.7 121.9 133.2 122 132.6 122ZM141.5 121.9H141.2C141.1 121.9 141 121.8 141 121.7V118.6H137.3V121.7C137.3 121.8 137.2 121.9 137.1 121.9H136.8C136.7 121.9 136.6 121.8 136.6 121.7V115.3C136.6 115.2 136.7 115.1 136.8 115.1H137.1C137.2 115.1 137.3 115.2 137.3 115.3V118H141V115.3C141 115.2 141.1 115.1 141.2 115.1H141.5C141.6 115.1 141.7 115.2 141.7 115.3V121.7C141.7 121.8 141.6 121.9 141.5 121.9ZM146.5 122C145.6 122 144.7 121.7 144.2 120.9C143.3 119.4 143.3 117.5 144.2 115.9C144.7 115.2 145.6 114.8 146.5 114.8C147.4 114.7 148.3 115.1 148.8 115.9C149.3 116.6 149.6 117.5 149.5 118.4C149.5 119.3 149.3 120.2 148.8 120.9C148.3 121.7 147.4 122.1 146.5 122ZM144.7 120.5C145.5 121.5 147 121.6 148 120.8C148.1 120.7 148.2 120.6 148.3 120.5C149 119.2 149 117.7 148.3 116.4C147.5 115.4 146.1 115.3 145.1 116.1C145 116.2 144.9 116.3 144.8 116.4C144 117.7 143.9 119.2 144.7 120.5ZM151.8 121.9H151.5C151.4 121.9 151.3 121.8 151.3 121.7V115.3C151.3 115.2 151.4 115.1 151.5 115.1H153.3C155.4 115.1 155.8 116.1 155.8 117C155.8 117.5 155.6 118 155.3 118.4C155 118.7 154.7 118.8 154.3 118.9C154 119 153.6 119 153.3 119H152V121.8C152 121.8 152 121.9 151.8 121.9ZM152 118.2H153C153.5 118.2 154 118.2 154.4 118C154.8 117.8 155.1 117.3 155 116.8C155.1 116.2 154.6 115.7 154.1 115.7H154C153.7 115.7 153.3 115.6 153 115.6H152V118.2ZM158 121.9H157.7C157.6 121.9 157.5 121.8 157.5 121.7V115.3C157.5 115.2 157.6 115.1 157.7 115.1H159.5C161.6 115.1 162 116.1 162 117C162 117.5 161.8 118 161.5 118.4C161.2 118.7 160.9 118.8 160.5 118.9C160.2 119 159.8 119 159.5 119H158.3V121.8C158.2 121.8 158.1 121.9 158 121.9ZM158.2 118.2H159.2C159.7 118.2 160.2 118.2 160.6 118C161 117.8 161.3 117.3 161.2 116.8C161.3 116.2 160.8 115.7 160.3 115.7H160.2C159.9 115.7 159.5 115.6 159.2 115.6H158.2V118.2ZM164.1 121.9H163.8C163.7 121.9 163.6 121.8 163.6 121.7V115.3C163.6 115.2 163.7 115.1 163.8 115.1H164.1C164.2 115.1 164.3 115.2 164.3 115.3V121.7C164.3 121.8 164.2 121.9 164.1 121.9ZM171.2 121.9H170.9C170.8 121.9 170.8 121.9 170.7 121.8L167 116.4V121.6C167 121.7 166.9 121.8 166.8 121.8H166.5C166.4 121.8 166.3 121.7 166.3 121.6V115.2C166.3 115.1 166.4 115 166.5 115H166.8C166.9 115 166.9 115 167 115.1L170.7 120.5V115.2C170.7 115.1 170.8 115 170.9 115H171.2C171.3 115 171.4 115.1 171.4 115.2V121.6C171.4 121.8 171.4 121.9 171.2 121.9ZM166.8 115.5V115.6V115.5ZM176.2 122C175.3 122 174.4 121.6 173.9 120.9C173 119.4 173 117.5 173.9 116C174.4 115.3 175.3 114.9 176.2 114.9C176.8 114.9 177.3 115 177.8 115.3C178.3 115.6 178.7 116.1 178.8 116.6C178.8 116.7 178.8 116.8 178.7 116.8L178.4 116.9C178.3 116.9 178.3 116.9 178.2 116.9C178.1 116.9 178.1 116.8 178.1 116.8C177.9 116 177 115.4 176.2 115.5C175.5 115.5 174.8 115.8 174.5 116.4C174.1 117 173.9 117.7 174 118.4C174 119.1 174.2 119.8 174.5 120.4C174.9 121 175.5 121.3 176.2 121.3C176.8 121.3 177.4 121.1 177.8 120.7C178.2 120.3 178.4 119.7 178.3 119.1V119H176.4C176.3 119 176.2 118.9 176.2 118.8V118.5C176.2 118.4 176.3 118.3 176.4 118.3H178.8C178.9 118.3 179 118.4 179 118.5C179 118.6 179 118.6 179 118.7V118.9C179.2 120.1 178.5 121.2 177.5 121.7C177.1 121.9 176.7 122 176.2 122ZM1.1 115.2H1.5L3.8 119.7L6.1 115.2H6.5V121.6H6.3V115.6L4 120.1H3.8L1.4 115.6V121.6H1.2L1.1 115.2ZM10.7 115.2H11L13.4 121.6H13.1L12.3 119.4H9.3L8.5 121.6H8.3L10.7 115.2ZM12.3 119.2L10.9 115.6L9.5 119.2H12.3ZM15.2 115.2H15.5V121.6H15.2V115.2ZM18 119.7C18 120.2 18.2 120.7 18.6 121C19 121.3 19.4 121.5 19.9 121.5C20.3 121.5 20.8 121.4 21.2 121.1C21.6 120.8 21.8 120.4 21.8 120C21.8 119.5 21.6 119.1 21.2 118.9C20.8 118.7 20.4 118.5 19.9 118.4H19.8C19.3 118.3 18.8 118.1 18.4 117.8C18.1 117.5 17.9 117.1 17.9 116.7C17.9 116.2 18.1 115.7 18.5 115.4C18.9 115.1 19.4 115 19.9 115C20.4 115 20.9 115.1 21.3 115.5C21.7 115.9 21.9 116.4 21.9 116.9H21.6C21.6 116.4 21.4 116 21.1 115.7C20.7 115.4 20.3 115.3 19.8 115.3C19.4 115.3 19 115.4 18.6 115.7C18.3 116 18.1 116.4 18.1 116.8C18.1 117.1 18.2 117.4 18.5 117.7C18.9 118 19.3 118.1 19.8 118.2H19.9C20.4 118.3 20.9 118.5 21.3 118.7C21.7 119 22 119.4 22 119.9C22 120.4 21.8 121 21.4 121.3C21 121.6 20.4 121.8 19.9 121.7C19.3 121.7 18.8 121.5 18.4 121.1C18 120.7 17.8 120.1 17.8 119.6H18V119.7ZM24.5 116.1C25 115.4 25.8 115 26.7 115.1C27.5 115 28.4 115.4 28.9 116.1C29.4 116.8 29.6 117.6 29.6 118.5C29.6 119.3 29.4 120.2 28.9 120.9C27.8 122.1 26 122.2 24.8 121.1C24.7 121 24.6 120.9 24.6 120.9C23.6 119.4 23.6 117.5 24.5 116.1ZM24.7 120.6C25.6 121.7 27.2 121.8 28.2 121C28.3 120.9 28.5 120.8 28.6 120.6C29.4 119.3 29.4 117.6 28.6 116.3C27.7 115.2 26.2 115 25.1 115.9C25 116 24.8 116.1 24.7 116.3C23.9 117.6 23.9 119.3 24.7 120.6ZM31.7 115.2H32L36 121.1V115.2H36.3V121.6H36L32 115.7V121.6H31.7V115.2ZM41.7 119.2H44.1V119.5H41.7V119.2ZM51.9 115.4C51.1 115.4 50.4 115.7 50 116.4C49.6 117 49.4 117.8 49.4 118.5C49.4 119.3 49.6 120 50 120.6C50.4 121.2 51.1 121.6 51.9 121.6C52.5 121.6 53.2 121.4 53.6 120.9C54 120.4 54.2 119.8 54.2 119.2V118.9H52.1V118.6H54.5C54.5 118.7 54.5 118.7 54.5 118.8V119C54.7 120.1 54.1 121.2 53.1 121.6C52.7 121.8 52.3 121.8 51.9 121.8C51.1 121.8 50.3 121.5 49.8 120.8C48.9 119.4 48.9 117.6 49.8 116.1C50.3 115.4 51.1 115 51.9 115.1C52.4 115.1 52.9 115.2 53.4 115.5C53.8 115.8 54.2 116.2 54.3 116.7L54 116.8C53.8 115.8 52.9 115.2 51.9 115.4ZM58.4 115.2H58.7L61.1 121.6H60.8L60 119.4H57L56.2 121.6H55.9L58.4 115.2ZM60 119.2L58.6 115.6L57.2 119.2H60ZM62.8 119.7C62.8 120.2 63 120.7 63.4 121C63.8 121.3 64.3 121.5 64.8 121.5C65.2 121.5 65.7 121.4 66.1 121.1C66.5 120.8 66.7 120.4 66.7 120C66.7 119.5 66.5 119.1 66.1 118.9C65.7 118.7 65.3 118.5 64.8 118.4H64.7C64.2 118.3 63.7 118.1 63.3 117.8C63 117.5 62.8 117.1 62.8 116.7C62.8 116.2 63 115.7 63.4 115.4C63.8 115.1 64.3 115 64.8 115C65.3 115 65.8 115.1 66.2 115.5C66.6 115.9 66.8 116.4 66.8 116.9H66.5C66.5 116.4 66.3 116 66 115.7C65.6 115.4 65.2 115.3 64.7 115.3C64.3 115.3 63.9 115.4 63.5 115.7C63.2 116 63 116.4 63 116.8C63 117.1 63.1 117.4 63.4 117.7C63.8 118 64.2 118.1 64.7 118.2H64.8C65.3 118.3 65.8 118.5 66.2 118.7C66.6 119 66.9 119.4 66.9 119.9C66.9 120.4 66.7 121 66.3 121.3C65.9 121.6 65.3 121.8 64.8 121.7C64.2 121.7 63.7 121.5 63.3 121.1C62.9 120.7 62.7 120.1 62.7 119.6H62.8V119.7ZM70.4 115.5H68.4V115.2H72.7V115.5H70.7V121.6H70.4V115.5ZM74.8 118.6V121.6H74.5V115.2H76.6C77.1 115.2 77.7 115.3 78.2 115.5C78.6 115.8 78.9 116.3 78.8 116.9C78.9 117.6 78.4 118.3 77.6 118.5C78.1 118.6 78.5 119.1 78.5 119.6C78.5 119.6 78.5 119.9 78.5 120.4V121.6H78.2V120.2C78.2 120 78.2 119.9 78.2 119.8C78.2 119.7 78.2 119.6 78.2 119.6C78.2 119.3 78 119 77.7 118.8C77.4 118.7 77.1 118.6 76.7 118.6H74.8ZM76.8 118.4C78 118.4 78.5 117.9 78.5 117C78.6 116.3 78.1 115.7 77.4 115.6C77.3 115.6 77.2 115.6 77.1 115.6C77 115.6 76.8 115.6 76.6 115.6H74.8V118.4H76.8V118.4ZM81.4 116.1C81.9 115.4 82.7 115 83.6 115.1C84.4 115 85.3 115.4 85.8 116.1C86.3 116.8 86.5 117.6 86.5 118.5C86.5 119.3 86.3 120.2 85.8 120.9C84.7 122.1 82.9 122.2 81.7 121.1C81.6 121 81.5 120.9 81.5 120.9C80.5 119.4 80.5 117.5 81.4 116.1ZM81.7 120.6C82.6 121.7 84.2 121.8 85.2 121C85.3 120.9 85.5 120.8 85.6 120.6C86.4 119.3 86.4 117.6 85.6 116.3C84.7 115.2 83.2 115 82.1 115.9C82 116 81.8 116.1 81.7 116.3C80.9 117.6 80.9 119.3 81.7 120.6ZM88.6 115.2H88.9L92.9 121.1V115.2H93.2V121.6H93L89 115.7V121.6H88.7L88.6 115.2ZM96.1 116.1C96.6 115.4 97.4 115 98.3 115.1C99.1 115 100 115.4 100.5 116.1C101 116.8 101.2 117.6 101.2 118.5C101.2 119.3 101 120.2 100.5 120.9C99.4 122.1 97.6 122.2 96.4 121.1C96.3 121 96.2 120.9 96.2 120.9C95.2 119.4 95.2 117.5 96.1 116.1ZM96.3 120.6C97.2 121.7 98.8 121.8 99.8 121C99.9 120.9 100.1 120.8 100.2 120.6C101 119.3 101 117.6 100.2 116.3C99.3 115.2 97.8 115 96.7 115.9C96.6 116 96.4 116.1 96.3 116.3C95.6 117.6 95.6 119.3 96.3 120.6ZM103.3 115.2H103.7L106 119.7L108.3 115.2H108.7V121.6H108.4V115.6L106.1 120.1H106L103.6 115.6V121.6H103.3V115.2ZM111.2 115.2H111.5V121.6H111.2V115.2ZM114 115.2H117.9V115.5H114.3V118.2H117.2V118.5H114.3V121.4H118V121.7H114V115.2ZM123 119.2H125.4V119.5H123V119.2ZM130.7 119.7C130.7 120.2 130.9 120.7 131.3 121C131.7 121.3 132.2 121.5 132.7 121.5C133.1 121.5 133.6 121.4 134 121.1C134.4 120.8 134.6 120.4 134.6 120C134.6 119.5 134.4 119.1 134 118.9C133.6 118.7 133.2 118.5 132.7 118.4H132.6C132.1 118.3 131.6 118.1 131.2 117.8C130.9 117.5 130.7 117.1 130.7 116.7C130.7 116.2 130.9 115.7 131.3 115.4C131.7 115.1 132.2 115 132.7 115C133.2 115 133.7 115.1 134.1 115.5C134.5 115.9 134.7 116.4 134.7 116.9H134.4C134.4 116.4 134.2 116 133.9 115.7C133.5 115.4 133.1 115.3 132.6 115.3C132.2 115.3 131.8 115.4 131.4 115.7C131.1 116 130.9 116.4 130.9 116.8C130.9 117.1 131 117.4 131.3 117.7C131.7 118 132.1 118.1 132.6 118.2H132.7C133.2 118.3 133.7 118.5 134.1 118.7C134.5 119 134.8 119.4 134.8 119.9C134.8 120.4 134.6 121 134.2 121.3C133.8 121.6 133.2 121.8 132.7 121.7C132.1 121.7 131.6 121.5 131.2 121.1C130.8 120.7 130.6 120.1 130.6 119.6H130.7V119.7ZM136.8 115.2H137.1V118.1H141.2V115.2H141.5V121.6H141.2V118.3H137.1V121.6H136.8V115.2ZM144.3 116.1C144.8 115.4 145.6 115 146.5 115.1C147.3 115 148.2 115.4 148.7 116.1C149.2 116.8 149.4 117.6 149.4 118.5C149.4 119.3 149.2 120.2 148.7 120.9C147.6 122.1 145.8 122.2 144.6 121.1C144.5 121 144.4 120.9 144.4 120.9C143.4 119.4 143.4 117.5 144.3 116.1ZM144.6 120.6C145.5 121.7 147.1 121.8 148.1 121C148.2 120.9 148.4 120.8 148.5 120.6C149.3 119.3 149.3 117.6 148.5 116.3C147.6 115.2 146.1 115 145 115.9C144.9 116 144.7 116.1 144.6 116.3C143.8 117.6 143.8 119.3 144.6 120.6ZM155.6 116.9C155.6 117.4 155.4 117.8 155.1 118.2C154.9 118.4 154.6 118.6 154.2 118.6C153.9 118.7 153.5 118.7 153.2 118.7H151.8V121.7H151.5V115.3H153.3C154.8 115.2 155.6 115.8 155.6 116.9ZM151.8 115.5V118.4H153C153.5 118.4 154 118.4 154.5 118.2C155 118 155.3 117.4 155.2 116.8C155.3 116.1 154.8 115.5 154.1 115.5C154.1 115.5 154.1 115.5 154 115.5C153.7 115.5 153.3 115.4 153 115.4L151.8 115.5ZM161.7 116.9C161.7 117.4 161.5 117.8 161.2 118.2C161 118.4 160.7 118.6 160.3 118.6C160 118.7 159.6 118.7 159.3 118.7H158V121.7H157.7V115.3H159.5C161 115.2 161.7 115.8 161.7 116.9ZM158 115.5V118.4H159.2C159.7 118.4 160.2 118.4 160.7 118.2C161.2 118 161.5 117.4 161.4 116.8C161.5 116.1 161 115.5 160.3 115.5C160.3 115.5 160.3 115.5 160.2 115.5C159.9 115.5 159.5 115.4 159.2 115.4L158 115.5ZM163.8 115.2H164.1V121.6H163.8V115.2ZM166.6 115.2H166.9L170.9 121.1V115.2H171.2V121.6H170.9L166.9 115.7V121.6H166.6V115.2ZM176.2 115.4C175.4 115.4 174.7 115.7 174.3 116.4C173.9 117 173.7 117.8 173.7 118.5C173.7 119.3 173.9 120 174.3 120.6C174.7 121.2 175.4 121.6 176.2 121.6C176.8 121.6 177.5 121.4 177.9 120.9C178.3 120.4 178.5 119.8 178.5 119.2V118.9H176.4V118.6H178.8C178.8 118.7 178.8 118.7 178.8 118.8V119C179 120.1 178.4 121.2 177.4 121.6C177 121.8 176.6 121.8 176.2 121.8C175.4 121.8 174.6 121.5 174.1 120.8C173.2 119.4 173.2 117.6 174.1 116.1C174.6 115.4 175.4 115 176.2 115.1C176.7 115.1 177.2 115.2 177.7 115.5C178.1 115.8 178.5 116.2 178.6 116.7L178.3 116.8C178.1 115.9 177.2 115.2 176.2 115.4ZM0.7 33H30.3V43H11.9V52.8H28.8V62.6H11.9V79H0.7V33ZM57.5 69.8C65.6 69.8 70.8 63.7 70.8 56C70.8 48.3 65.6 42.2 57.5 42.2C49.3 42.2 44.2 48.3 44.2 56C44.2 63.7 49.3 69.8 57.5 69.8ZM57.5 31.5C72 31.5 82.2 42.3 82.2 56C82.2 69.7 72 80.4 57.5 80.4C43 80.4 32.8 69.7 32.8 56C32.8 42.3 43 31.5 57.5 31.5ZM87.4 33H98.6V78.9H87.4V33ZM123.7 52.9C126.2 52.9 127.9 50.3 127.9 47.6C127.9 44.9 125.9 42.6 123.4 42.6H114.7V52.9H123.7V52.9ZM103.4 33H122.6C132.5 33 138.9 39 138.9 47.6C138.9 55.6 134.8 60.1 128 61.8L140.4 78.9H126.3L114.6 61.8V78.9H103.4V33ZM143.2 33H173.6V43H154.5V51.3H172.2V61H154.5V69.3H174.5V78.9H143.3V33H143.2ZM1.1 83.5H8.8C15.4 83.5 20.4 88.3 20.4 94.6C20.4 100.5 15.9 105.7 8.8 105.7H1.1V83.5ZM8.7 100.8C12.1 100.8 14.9 98 14.9 94.6C14.9 91.2 12.1 88.4 8.7 88.4H6.5V100.7H8.7V100.8ZM24.3 83.1H29.5L23.1 92.3H22.6L24.3 83.1ZM36.7 82.8H37.7L48.6 105.7H42.7L41.6 103.4H32.8L31.7 105.7H25.9L36.7 82.8ZM39.8 99.5L37.2 93.9H37.1L34.5 99.5H39.8ZM48.8 83.5H54.2V97.4C54.2 100.4 55.6 101.4 57.5 101.4C59.6 101.4 60.9 100.4 60.9 97.4V83.5H66.3V98.2C66.3 103.5 62.4 106.4 57.5 106.4C52.4 106.4 48.8 103.3 48.8 98.2V83.5ZM73.3 88.3H68.3V83.5H83.8V88.3H78.8V105.7H73.3V88.3ZM96.3 82.8C102.8 82.9 108.1 88.2 108 94.8C107.9 101.3 102.6 106.6 96 106.5C89.5 106.4 84.3 101.2 84.3 94.7C84.2 88.3 89.3 83 95.7 82.9C95.9 82.8 96.1 82.8 96.3 82.8ZM96.3 101.3C100.2 101.3 102.7 98.3 102.7 94.6C102.7 90.9 100.2 87.9 96.3 87.9C92.3 87.9 89.9 90.9 89.9 94.6C89.9 98.3 92.4 101.3 96.3 101.3ZM111.8 83.5H116.9L122.6 95.5L128.3 83.5H133.3V105.7H127.9V95.8L123 106.4H122.1L117.2 95.7V105.7H111.8V83.5ZM136.8 83.5H142.5L151.1 96.7V83.5H156.5V105.7H150.8L142.1 92.5V105.7H136.7V83.5H136.8ZM160.1 83.5H174.8V88.3H165.5V92.3H174.1V97H165.5V101H175.2V105.7H160.1V83.5V83.5ZM96.3 26.7C96.2 26.7 96.1 26.6 96 26.6L87.3 16.9L79.9 26C79.7 26.2 79.5 26.2 79.3 26.1C79.1 25.9 79.1 25.7 79.2 25.5L86.9 16L87 15.9C87.1 15.9 87.1 15.9 87.2 15.9C87.3 15.9 87.3 15.9 87.4 15.9C87.4 15.9 87.5 15.9 87.5 16L96.6 26C96.8 26.2 96.7 26.5 96.6 26.6C96.5 26.7 96.4 26.7 96.3 26.7ZM116.7 5.7H125V5.1C125 2.9 123.3 1.1 121.1 1.1C119.7 0.999998 118.3 1.6 117.4 2.7C116.9 3.4 116.7 4.2 116.7 5V5.7ZM42.6 27.9H1.1C0.9 27.9 0.7 27.7 0.6 27.5C0.6 27.3 0.8 27.1 1 27H42.1V11.2C42.1 11.1 42.1 11 42.2 10.9L52.5 0.299998C52.6 0.199998 52.7 0.199998 52.8 0.199998C52.9 0.199998 53 0.199998 53.1 0.299998L63.7 10.9C63.8 11 63.8 11.1 63.8 11.2V26.6H75.5C75.4 26.4 75.4 26.2 75.4 26C75.2 24.9 75.7 23.9 76.5 23.2L76.6 23.1C78.3 21.3 82.1 17.3 84.9 14.3C84.4 13.8 83.4 12.7 83.1 12.4C83.1 12.4 83 12.4 82.9 12.4C81.6 12.5 80.3 12.3 79.1 11.8C78.5 11.5 77.9 11.1 77.5 10.6L73.4 5.9C73.3 5.8 73.2 5.6 73.2 5.5C73 5.1 73.1 4.6 73.3 4.3C73.6 3.9 74.2 3.9 74.6 4.1C74.6 4.1 74.7 4.1 74.7 4.2C74.8 4.4 78.2 7.9 78.7 8.4C78.8 8.5 78.9 8.6 79.1 8.6C79.1 8.6 79.2 8.6 79.2 8.5L79.3 8.3C79.4 8.2 79.4 8.1 79.3 8L75 3.7L74.9 3.6C74.7 3.2 74.7 2.7 74.9 2.3C75.3 1.9 75.8 1.9 76.3 2.1L76.4 2.2L81 6.7L81.1 6.8C81.1 6.8 81.2 6.8 81.2 6.7L81.3 6.6C81.3 6.5 81.3 6.3 81.3 6.2C81.3 6.2 81.3 6.1 81.2 6.1L77.1 2.1C77 2 76.9 1.8 76.8 1.7C76.6 1.3 76.7 0.899998 77 0.599998C77.3 0.299998 77.8 0.299998 78.2 0.499998C78.4 0.699998 83.3 4.1 84.6 6.2C85.2 7.3 85.4 8.5 85.1 9.7C85.1 9.9 85 10.2 85 10.4C85.4 11.1 86 11.8 86.6 12.4L89.2 9.7C89.6 9.3 89.8 8.8 89.9 8.3C89.8 6.6 90.3 4.8 91.2 3.4C93 1.6 94.9 0.499998 97.1 -1.52737e-06C97.9 -0.100002 98.7 0.0999985 99.3 0.599998C101.3 2.4 98.3 7.8 97.9 8.4C97.8 8.6 96.8 10.3 93.6 10.6C93.5 10.6 93.4 10.6 93.3 10.7C93.2 10.7 93.1 10.8 93 10.8C92.4 10.9 91.9 11.2 91.6 11.6L89.2 14.5L99.4 23.8C99.5 23.9 99.6 24 99.6 24.1C100.2 24.9 100.1 26 99.5 26.8H111C111 26.8 111 26.7 110.9 26.7C110.8 26.6 110.6 26.4 110.5 26.2C109.9 25.3 109.6 24.3 109.8 23.3L111.8 6C111.8 5.8 112 5.6 112.2 5.6H115.8V5C115.8 4 116.1 3 116.7 2.1C117.7 0.799999 119.3 -1.52737e-06 120.9 0.0999985H121C123.7 0.199998 125.8 2.4 125.8 5V5.6H129.6C129.8 5.6 130 5.8 130 6L131.8 24.3C131.8 25.2 131.4 26 130.8 26.6C130.7 26.7 130.7 26.7 130.6 26.8H173C173.2 26.8 173.4 27 173.4 27.2C173.4 27.4 173.2 27.6 173 27.6H128.1C127.9 27.6 127.7 27.4 127.7 27.2C127.7 27 127.9 26.8 128.1 26.8H128.2H128.3C129 26.8 129.7 26.5 130.2 26C130.7 25.6 130.9 25 131 24.4L129.3 6.5H125.9V9.3C125.9 9.5 125.7 9.7 125.5 9.7C125.3 9.7 125 9.6 125 9.4V6.5H116.7V9.3C116.7 9.5 116.5 9.7 116.3 9.7C116.1 9.7 115.9 9.5 115.9 9.3V6.5H112.7L110.8 23.3C110.7 24.1 110.9 25 111.4 25.6C111.5 25.8 111.6 25.9 111.7 26C112 26.4 112.5 26.6 113 26.6C113.2 26.6 113.4 26.8 113.4 27C113.4 27.2 113.2 27.4 113 27.4H98.5C98.4 27.4 98.4 27.4 98.3 27.4C98.2 27.4 98.2 27.3 98.2 27.3L98.1 27.2V27.1C98.1 27 98.1 27 98.1 26.9C98.1 26.8 98.2 26.8 98.2 26.8C99.5 25.5 99 24.7 98.8 24.5L98.7 24.4L88.2 14.8L88.1 14.7C88.1 14.6 88 14.6 88 14.5C88 14.4 88 14.4 88 14.3C88 14.3 88 14.2 88.1 14.2L90.7 11C91.2 10.4 91.9 10 92.7 9.9C92.8 9.9 92.8 9.9 92.9 9.9C93.1 9.9 93.2 9.8 93.4 9.8C96.2 9.5 97 8.1 97 8C97.8 6.6 99.9 2.4 98.6 1.3C98.2 0.999998 97.6 0.799998 97 0.899998C95.1 1.3 93.4 2.2 92 3.7C91.4 5 91 6.5 91.1 8.1C91.1 8.9 90.8 9.6 90.2 10.2L87.3 13.3C87.1 13.5 86.9 13.5 86.7 13.3C86.2 12.8 84.6 11.3 84.5 10.5C84.5 10.2 84.5 9.8 84.5 9.5C84.7 8.5 84.6 7.5 84.1 6.6C82.9 4.7 78 1.2 77.9 1.2C77.9 1.2 77.9 1.2 77.8 1.2C77.8 1.3 77.8 1.4 77.8 1.4V1.5L81.9 5.5C82 5.6 82.1 5.8 82.2 6C82.4 6.4 82.3 6.8 82.1 7.2L82 7.3C81.8 7.5 81.5 7.6 81.3 7.6C81 7.6 80.7 7.5 80.5 7.3L76 2.9C75.9 2.9 75.8 2.9 75.7 2.9C75.7 3 75.7 3.1 75.7 3.2L79.9 7.5C80.3 7.9 80.3 8.5 80 8.9V9C79.8 9.2 79.5 9.4 79.2 9.4C78.8 9.4 78.5 9.2 78.2 8.9C77.8 8.4 74.7 5.2 74.2 4.7H74.1C74.1 4.8 74.1 5 74.1 5.1V5.2L78.2 9.9C78.6 10.3 79 10.6 79.5 10.8C80.5 11.3 81.7 11.5 82.8 11.4C83.1 11.4 83.4 11.4 83.6 11.6C84.4 12.3 85.1 13.1 85.8 13.9L85.9 14C85.9 14.1 85.9 14.1 85.9 14.2C85.9 14.3 85.9 14.3 85.8 14.4C85.8 14.4 85.8 14.5 85.7 14.5C82.8 17.5 78.9 21.7 77.1 23.5L77 23.6C76.4 24.1 76 24.9 76.2 25.7C76.2 25.9 76.3 26.1 76.4 26.3C76.6 26.5 76.7 26.8 76.5 27C76.4 27.1 76.3 27.2 76.2 27.2H63.5C63.3 27.2 63.1 27 63.1 26.8V11.4L52.9 1.2L43.1 11.3V27.4C43.1 27.7 42.9 27.9 42.6 27.9ZM175.3 111.1H0.4C0.2 111.1 0 110.9 0 110.7C0 110.5 0.2 110.3 0.4 110.3H175.3C175.5 110.3 175.7 110.5 175.7 110.7C175.7 110.9 175.5 111.1 175.3 111.1Z" fill="#FFB300"/>
</g>
<defs>
<clipPath id="clip0">
<rect width="179" height="122" fill="white"/>
</clipPath>
</defs>
</svg>
