<svg width="116" height="116" viewBox="0 0 116 116" fill="none" xmlns="http://www.w3.org/2000/svg">
<g clip-path="url(#clip0_320_249)">
<path d="M129 -13H-13V129H129V-13Z" fill="white"/>
<path d="M21.819 77.0113H13.9967C13.8666 77.0113 13.7419 77.063 13.6499 77.155C13.558 77.247 13.5063 77.3717 13.5063 77.5018V102.023C13.5063 102.153 13.558 102.278 13.6499 102.37C13.7419 102.462 13.8666 102.513 13.9967 102.513H14.7667C14.8967 102.513 15.0215 102.462 15.1135 102.37C15.2054 102.278 15.2571 102.153 15.2571 102.023V78.718H21.7013C23.4288 78.6918 25.0964 79.351 26.3391 80.5513C27.5818 81.7517 28.2983 83.3955 28.3318 85.123C28.328 86.8709 27.6346 88.5468 26.4023 89.7865C25.1699 91.0261 23.4982 91.7295 21.7503 91.7437H17.5474C17.4173 91.7437 17.2926 91.7954 17.2006 91.8873C17.1086 91.9793 17.057 92.104 17.057 92.2341V92.8128C17.057 93.161 17.1747 93.3964 17.5474 93.3964H21.8533C22.9308 93.3942 23.9972 93.1797 24.9918 92.7653C25.9864 92.3509 26.8897 91.7446 27.65 90.9812C28.4102 90.2177 29.0127 89.3119 29.423 88.3156C29.8332 87.3193 30.0432 86.2519 30.0409 85.1745C30.0387 84.097 29.8242 83.0305 29.4098 82.0359C28.9954 81.0413 28.3892 80.1381 27.6257 79.3778C26.8622 78.6175 25.9564 78.0151 24.9601 77.6048C23.9638 77.1946 22.8965 76.9846 21.819 76.9868" fill="#EA1E4E"/>
<path d="M57.924 14.0109C57.924 13.8809 57.9757 13.7561 58.0677 13.6642C58.1596 13.5722 58.2844 13.5205 58.4144 13.5205H59.2138C59.3439 13.5205 59.4686 13.5722 59.5606 13.6642C59.6526 13.7561 59.7043 13.8809 59.7043 14.0109V38.5321C59.7043 38.6622 59.6526 38.7869 59.5606 38.8789C59.4686 38.9709 59.3439 39.0226 59.2138 39.0226H58.4144C58.2844 39.0226 58.1596 38.9709 58.0677 38.8789C57.9757 38.7869 57.924 38.6622 57.924 38.5321V14.0109Z" fill="#EA1E4E"/>
<path d="M73.6176 77.487C73.6176 77.3569 73.6692 77.2322 73.7612 77.1402C73.8532 77.0483 73.9779 76.9966 74.108 76.9966H74.9074C75.0374 76.9966 75.1622 77.0483 75.2541 77.1402C75.3461 77.2322 75.3978 77.3569 75.3978 77.487V102.008C75.3978 102.138 75.3461 102.263 75.2541 102.355C75.1622 102.447 75.0374 102.499 74.9074 102.499H74.108C73.9779 102.499 73.8532 102.447 73.7612 102.355C73.6692 102.263 73.6176 102.138 73.6176 102.008V77.487Z" fill="#EA1E4E"/>
<path d="M50.2195 102.052L39.1212 76.7214C39.0745 76.6345 39.0028 76.5637 38.9153 76.5182C38.8278 76.4727 38.7286 76.4546 38.6307 76.4664H38.5179C38.4289 76.4652 38.3412 76.4884 38.2643 76.5333C38.1874 76.5782 38.1242 76.6433 38.0815 76.7214L26.8704 102.052C26.7674 102.346 26.8704 102.488 27.1303 102.488H28.1455C28.2484 102.482 28.3479 102.449 28.434 102.392C28.52 102.335 28.5897 102.257 28.6359 102.165L38.5375 79.3795H38.6111L48.4196 102.165C48.4666 102.256 48.5364 102.334 48.6223 102.391C48.7082 102.447 48.8073 102.481 48.91 102.488H49.8565C50.2538 102.488 50.2538 102.272 50.1802 102.052" fill="#EA1E4E"/>
<path d="M41.74 91.6994C41.5487 91.6341 41.3394 91.6457 41.1564 91.7317C40.9734 91.8177 40.831 91.9714 40.7592 92.1604C40.5941 92.6131 40.2938 93.004 39.899 93.2802C39.5042 93.5564 39.0341 93.7046 38.5523 93.7046C38.0704 93.7046 37.6003 93.5564 37.2055 93.2802C36.8107 93.004 36.5105 92.6131 36.3453 92.1604C36.2745 91.9653 36.129 91.8064 35.9409 91.7185C35.7528 91.6307 35.5375 91.6212 35.3424 91.6921C35.1473 91.763 34.9884 91.9085 34.9005 92.0965C34.8127 92.2846 34.8032 92.4999 34.8741 92.695C35.1528 93.4458 35.6546 94.0934 36.3121 94.5507C36.9696 95.008 37.7514 95.2531 38.5523 95.2531C39.3532 95.2531 40.1349 95.008 40.7924 94.5507C41.4499 94.0934 41.9517 93.4458 42.2304 92.695C42.2955 92.503 42.2832 92.2932 42.1963 92.1101C42.1093 91.927 41.9544 91.785 41.7645 91.7141" fill="#EA1E4E"/>
<path d="M41.3869 13.1822C38.7979 13.1881 36.2686 13.9607 34.1183 15.4026C31.9679 16.8445 30.2929 18.8911 29.3046 21.2841C28.3163 23.6771 28.059 26.3092 28.5651 28.8483C29.0713 31.3873 30.3183 33.7196 32.1486 35.5506C33.979 37.3817 36.3108 38.6295 38.8497 39.1366C41.3886 39.6438 44.0208 39.3874 46.4141 38.4C48.8075 37.4126 50.8547 35.7383 52.2974 33.5885C53.7401 31.4387 54.5137 28.9097 54.5205 26.3207C54.5283 24.5936 54.1939 22.882 53.5367 21.2848C52.8795 19.6875 51.9125 18.2363 50.6914 17.0148C49.4704 15.7933 48.0195 14.8257 46.4225 14.1679C44.8255 13.5101 43.1141 13.1751 41.3869 13.1822ZM41.3869 37.7819C39.1122 37.7751 36.8905 37.0938 35.0029 35.8243C33.1154 34.5548 31.6467 32.754 30.7827 30.6496C29.9187 28.5453 29.6982 26.2321 30.149 24.0024C30.5998 21.7728 31.7017 19.7269 33.3153 18.1235C34.929 16.5202 36.9819 15.4314 39.2144 14.9948C41.4469 14.5583 43.7587 14.7936 45.8574 15.6711C47.9561 16.5485 49.7475 18.0287 51.005 19.9243C52.2624 21.82 52.9294 24.0459 52.9217 26.3207C52.9237 27.8326 52.6261 29.3299 52.0463 30.7261C51.4664 32.1223 50.6156 33.3899 49.5432 34.4555C48.4707 35.5211 47.1978 36.3637 45.7978 36.9347C44.3979 37.5056 42.8987 37.7936 41.3869 37.7819Z" fill="#EA1E4E"/>
<path d="M45.2711 27.7432C45.0791 27.6781 44.8693 27.6904 44.6862 27.7774C44.5031 27.8643 44.3611 28.0192 44.2902 28.2091C44.0749 28.7969 43.6843 29.3044 43.1712 29.6629C42.6581 30.0214 42.0472 30.2137 41.4212 30.2137C40.7953 30.2137 40.1844 30.0214 39.6713 29.6629C39.1581 29.3044 38.7675 28.7969 38.5522 28.2091C38.5168 28.1125 38.4627 28.0238 38.393 27.9481C38.3233 27.8724 38.2394 27.8112 38.1461 27.7679C38.0527 27.7247 37.9517 27.7002 37.8489 27.696C37.7461 27.6917 37.6435 27.7078 37.5469 27.7432C37.4503 27.7786 37.3616 27.8327 37.2859 27.9024C37.2102 27.9721 37.149 28.056 37.1057 28.1494C37.0624 28.2427 37.038 28.3437 37.0337 28.4465C37.0295 28.5493 37.0456 28.652 37.081 28.7486C37.4063 29.636 37.9964 30.4022 38.7713 30.9435C39.5462 31.4847 40.4686 31.775 41.4139 31.775C42.3591 31.775 43.2815 31.4847 44.0565 30.9435C44.8314 30.4022 45.4214 29.636 45.7468 28.7486C45.8118 28.5566 45.7996 28.3468 45.7126 28.1637C45.6256 27.9806 45.4708 27.8386 45.2809 27.7677" fill="#EA1E4E"/>
<path d="M25.8923 24.7774C25.6929 24.7107 25.4754 24.7233 25.2851 24.8128C25.0948 24.9022 24.9462 25.0616 24.8704 25.2577C24.6461 25.8701 24.2391 26.3989 23.7045 26.7724C23.1698 27.1459 22.5334 27.3463 21.8812 27.3463C21.229 27.3463 20.5925 27.1459 20.0579 26.7724C19.5233 26.3989 19.1163 25.8701 18.892 25.2577C18.553 24.333 17.9383 23.5348 17.1309 22.9708C16.3235 22.4069 15.3625 22.1045 14.3776 22.1045C13.3928 22.1045 12.4317 22.4069 11.6243 22.9708C10.8169 23.5348 10.2022 24.333 9.86321 25.2577C9.79515 25.4571 9.80719 25.6751 9.8968 25.8657C9.98641 26.0564 10.1466 26.2048 10.3435 26.2796C10.4332 26.3139 10.5285 26.3312 10.6246 26.3307C10.7881 26.3321 10.9484 26.2841 11.0842 26.1929C11.22 26.1017 11.3252 25.9717 11.3859 25.8198C11.6114 25.2079 12.0191 24.6798 12.5541 24.3069C13.089 23.9339 13.7255 23.7339 14.3776 23.7339C15.0297 23.7339 15.6662 23.9339 16.2011 24.3069C16.7361 24.6798 17.1438 25.2079 17.3693 25.8198C17.7105 26.7422 18.3261 27.538 19.1332 28.1C19.9403 28.662 20.9002 28.9633 21.8837 28.9633C22.8673 28.9633 23.8272 28.662 24.6343 28.1C25.4414 27.538 26.057 26.7422 26.3982 25.8198C26.4689 25.6205 26.4582 25.4014 26.3682 25.21C26.2783 25.0186 26.1164 24.8705 25.9178 24.7978" fill="#EA1E4E"/>
<path d="M99.5218 13.5205H84.9268C84.7967 13.5205 84.672 13.5722 84.58 13.6642C84.488 13.7561 84.4363 13.8809 84.4363 14.0109V38.5321C84.4363 38.6622 84.488 38.7869 84.58 38.8789C84.672 38.9709 84.7967 39.0226 84.9268 39.0226H99.5218C99.6519 39.0226 99.7766 38.9709 99.8686 38.8789C99.9605 38.7869 100.012 38.6622 100.012 38.5321V37.9534C100.012 37.8234 99.9605 37.6986 99.8686 37.6066C99.7766 37.5147 99.6519 37.463 99.5218 37.463H86.2019V15.0997H99.5218C99.6519 15.0997 99.7766 15.048 99.8686 14.956C99.9605 14.8641 100.012 14.7393 100.012 14.6092V14.0109C100.012 13.8809 99.9605 13.7561 99.8686 13.6642C99.7766 13.5722 99.6519 13.5205 99.5218 13.5205Z" fill="#EA1E4E"/>
<path d="M96.8342 23.6284C96.3098 23.6265 95.7967 23.7803 95.3598 24.0703C94.9229 24.3604 94.5819 24.7736 94.3801 25.2576C94.1783 25.7416 94.1247 26.2747 94.2262 26.7892C94.3277 27.3037 94.5796 27.7764 94.9501 28.1476C95.3205 28.5188 95.7929 28.7716 96.3072 28.874C96.8215 28.9764 97.3546 28.9239 97.839 28.7229C98.3234 28.522 98.7373 28.1819 99.0281 27.7455C99.3189 27.3091 99.4737 26.7962 99.4727 26.2718C99.4714 25.572 99.1932 24.9011 98.6988 24.4058C98.2044 23.9105 97.5341 23.631 96.8342 23.6284Z" fill="#EA1E4E"/>
<path d="M52.956 45.2711H38.361C38.2309 45.2711 38.1062 45.3227 38.0142 45.4147C37.9222 45.5067 37.8705 45.6314 37.8705 45.7615V70.2827C37.8705 70.4128 37.9222 70.5375 38.0142 70.6295C38.1062 70.7215 38.2309 70.7731 38.361 70.7731H52.956C53.0861 70.7731 53.2108 70.7215 53.3028 70.6295C53.3948 70.5375 53.4464 70.4128 53.4464 70.2827V69.6991C53.4464 69.569 53.3948 69.4443 53.3028 69.3523C53.2108 69.2603 53.0861 69.2087 52.956 69.2087H39.6312V46.8355H52.956C53.0861 46.8355 53.2108 46.7839 53.3028 46.6919C53.3948 46.5999 53.4464 46.4752 53.4464 46.3451V45.7419C53.4464 45.6118 53.3948 45.4871 53.3028 45.3951C53.2108 45.3031 53.0861 45.2515 52.956 45.2515" fill="#EA1E4E"/>
<path d="M50.2636 55.3638C49.7408 55.3638 49.2297 55.5188 48.795 55.8093C48.3603 56.0997 48.0215 56.5126 47.8214 56.9956C47.6213 57.4786 47.569 58.0101 47.671 58.5229C47.773 59.0356 48.0247 59.5066 48.3944 59.8763C48.7641 60.246 49.2351 60.4977 49.7479 60.5997C50.2606 60.7017 50.7921 60.6494 51.2751 60.4493C51.7582 60.2492 52.171 59.9104 52.4615 59.4757C52.7519 59.041 52.9069 58.53 52.9069 58.0071C52.9069 57.3061 52.6285 56.6337 52.1327 56.138C51.637 55.6423 50.9646 55.3638 50.2636 55.3638Z" fill="#EA1E4E"/>
<path d="M28.5917 13.5205H13.9967C13.9312 13.5162 13.8655 13.5259 13.804 13.549C13.7425 13.5721 13.6867 13.6081 13.6403 13.6545C13.5938 13.701 13.5579 13.7568 13.5348 13.8183C13.5116 13.8797 13.5019 13.9454 13.5063 14.011V19.7636C13.5063 19.9913 13.5967 20.2096 13.7576 20.3705C13.9186 20.5315 14.1369 20.6219 14.3645 20.6219C14.5921 20.6219 14.8104 20.5315 14.9714 20.3705C15.1323 20.2096 15.2227 19.9913 15.2227 19.7636V15.0997H28.5672C28.6327 15.104 28.6984 15.0943 28.7599 15.0712C28.8213 15.0481 28.8772 15.0121 28.9236 14.9657C28.97 14.9192 29.006 14.8634 29.0291 14.802C29.0522 14.7405 29.0619 14.6748 29.0576 14.6093V14.011C29.0576 13.8809 29.0059 13.7562 28.914 13.6642C28.822 13.5722 28.6972 13.5205 28.5672 13.5205" fill="#EA1E4E"/>
<path d="M14.3842 25.2911C14.1569 25.2923 13.9394 25.3832 13.7787 25.5439C13.618 25.7045 13.5272 25.9221 13.5259 26.1493V38.508C13.5224 38.5765 13.5333 38.6451 13.5579 38.7091C13.5826 38.7732 13.6204 38.8314 13.6689 38.8799C13.7175 38.9285 13.7756 38.9663 13.8397 38.9909C13.9038 39.0155 13.9723 39.0264 14.0409 39.0229H14.6392C14.9972 39.0229 15.2424 38.9052 15.2424 38.508V26.1395C15.2424 25.9119 15.152 25.6936 14.991 25.5326C14.8301 25.3717 14.6118 25.2812 14.3842 25.2812" fill="#EA1E4E"/>
<path d="M78.8749 99.144L79.2035 98.7026C79.4536 98.4133 79.6939 98.3054 80.0028 98.5604C80.3657 98.889 83.0582 101.361 86.7364 101.361C90.0467 101.361 92.852 99.144 92.852 96.4859C92.852 93.2442 90.1939 91.7926 85.7898 90.2968C81.5673 88.8255 78.767 87.315 78.767 83.1268C78.767 80.4 80.9494 76.6875 86.6138 76.6875C88.8312 76.7137 90.9977 77.3555 92.8716 78.5413C92.935 78.5788 92.9897 78.6293 93.0321 78.6895C93.0745 78.7498 93.1037 78.8183 93.1176 78.8907C93.1315 78.963 93.1299 79.0375 93.1128 79.1091C93.0958 79.1808 93.0637 79.248 93.0187 79.3064C92.9073 79.4606 92.8105 79.6248 92.7293 79.7968C92.6945 79.8678 92.6441 79.93 92.582 79.979C92.52 80.0279 92.4477 80.0624 92.3706 80.0798C92.2934 80.0972 92.2134 80.0971 92.1363 80.0795C92.0592 80.062 91.987 80.0274 91.925 79.9783C90.3323 78.9378 88.4897 78.3434 86.5892 78.2569C82.1166 78.2569 80.4393 81.0229 80.4393 83.0973C80.4393 86.1919 82.8032 87.5357 86.4813 88.7372C91.469 90.4488 94.6322 92.1947 94.6322 96.4173C94.6322 100.056 90.8853 102.896 86.702 102.896C83.8533 102.862 81.1125 101.801 78.9828 99.9091C78.767 99.7276 78.5806 99.5462 78.8749 99.1489" fill="#EA1E4E"/>
<path d="M13.521 45.7415C13.5203 45.6202 13.5645 45.503 13.6451 45.4124C13.7257 45.3219 13.837 45.2644 13.9575 45.251H21.6768C23.4008 45.1681 25.1238 45.4361 26.7412 46.0388C28.3586 46.6414 29.8368 47.5662 31.0863 48.757C32.3358 49.9479 33.3304 51.38 34.0101 52.9666C34.6897 54.5532 35.0401 56.2613 35.0401 57.9874C35.0401 59.7134 34.6897 61.4215 34.0101 63.0081C33.3304 64.5947 32.3358 66.0268 31.0863 67.2176C29.8368 68.4085 28.3586 69.3332 26.7412 69.9359C25.1238 70.5386 23.4008 70.8066 21.6768 70.7237H13.9575C13.837 70.7103 13.7257 70.6528 13.6451 70.5623C13.5645 70.4717 13.5203 70.3545 13.521 70.2332V45.7415ZM21.3678 69.1788C22.8518 69.2099 24.3269 68.9417 25.7049 68.3902C27.083 67.8387 28.3358 67.0152 29.3886 65.9688C30.4414 64.9224 31.2726 63.6747 31.8325 62.3C32.3924 60.9253 32.6696 59.4519 32.6475 57.9677C32.6475 51.6756 27.7433 46.8351 21.3678 46.8351H15.2571V69.1788H21.3678Z" fill="#EA1E4E"/>
<path d="M70.317 84.8089C70.317 80.3656 66.6388 77.0161 62.1956 77.0161H53.162C53.0963 77.0109 53.0302 77.02 52.9684 77.0428C52.9065 77.0657 52.8504 77.1016 52.8038 77.1482C52.7571 77.1948 52.7212 77.251 52.6984 77.3129C52.6755 77.3747 52.6664 77.4408 52.6716 77.5065V102.052C52.6716 102.182 52.7232 102.307 52.8152 102.399C52.9072 102.491 53.0319 102.543 53.162 102.543H53.8192C54.1821 102.543 54.4028 102.327 54.4028 102.052V92.6753H61.102C63.4903 92.6753 64.3044 92.4203 64.3044 92.4203C67.7668 91.4394 70.317 88.4969 70.317 84.8089ZM62.122 91.1452H54.4371V78.6884H62.0877C65.6188 78.6884 68.5662 81.3465 68.5662 84.8089C68.5611 85.6486 68.3901 86.4791 68.0631 87.2526C67.7361 88.0261 67.2596 88.7273 66.6608 89.3161C66.062 89.9049 65.3528 90.3695 64.5739 90.6834C63.795 90.9973 62.9617 91.1542 62.122 91.1452Z" fill="#EA1E4E"/>
<path d="M70.8418 101.998L66.3691 94.2496C66.2858 94.1123 66.1484 93.7592 65.8787 93.7592H64.8979C64.8393 93.7562 64.7812 93.7695 64.7297 93.7974C64.6782 93.8254 64.6354 93.867 64.606 93.9176C64.5766 93.9683 64.5618 94.0261 64.5631 94.0847C64.5644 94.1432 64.5818 94.2003 64.6134 94.2496L69.0812 101.998C69.2381 102.224 69.3019 102.489 69.5716 102.489H70.3367C70.8859 102.489 71.1459 102.489 70.8271 101.998" fill="#EA1E4E"/>
<path d="M81.2486 21.3183C81.2486 16.9044 77.5704 13.5254 73.1272 13.5254H64.0935C64.028 13.5211 63.9623 13.5308 63.9009 13.5539C63.8394 13.577 63.7836 13.613 63.7371 13.6594C63.6907 13.7059 63.6547 13.7617 63.6316 13.8231C63.6085 13.8846 63.5988 13.9503 63.6031 14.0158V38.537C63.6031 38.6671 63.6548 38.7919 63.7468 38.8838C63.8387 38.9758 63.9635 39.0275 64.0935 39.0275H64.7507C65.1136 39.0275 65.3343 38.8117 65.3343 38.537V29.1847H72.0335C74.4219 29.1847 75.236 28.9296 75.236 28.9296C78.6984 27.9488 81.2486 25.0062 81.2486 21.3183ZM73.0536 27.6545H65.3686V15.2027H73.0193C76.5503 15.2027 79.4978 17.8608 79.4978 21.3183C79.4926 22.158 79.3217 22.9885 78.9947 23.7619C78.6677 24.5354 78.1911 25.2367 77.5923 25.8255C76.9935 26.4142 76.2843 26.8789 75.5054 27.1928C74.7265 27.5067 73.8933 27.6636 73.0536 27.6545Z" fill="#EA1E4E"/>
<path d="M81.7733 38.5325L77.3006 30.7838C77.2173 30.6465 77.0849 30.2934 76.8102 30.2934H75.8294C75.7709 30.2904 75.7127 30.3036 75.6612 30.3316C75.6097 30.3595 75.5669 30.4011 75.5375 30.4518C75.5081 30.5025 75.4933 30.5603 75.4946 30.6188C75.4959 30.6774 75.5133 30.7345 75.5449 30.7838L80.0127 38.5325C80.1696 38.7581 80.2334 39.0229 80.5031 39.0229H81.2682C81.8174 39.0229 82.0774 39.0229 81.7586 38.5325" fill="#EA1E4E"/>
</g>
<defs>
<clipPath id="clip0_320_249">
<rect width="116" height="116" fill="white"/>
</clipPath>
</defs>
</svg>
