<svg id="bloc-marque" xmlns="http://www.w3.org/2000/svg" width="322" height="128.922" viewBox="0 0 644 257.844">
  <defs>
    <style>
      .cls-1 {
        fill: #fff;
      }

      .cls-1, .cls-3 {
        fill-rule: evenodd;
      }

      .cls-2 {
        fill: #ea1e4e;
      }

      .cls-3 {
        fill: none;
        stroke: #fff;
        stroke-linecap: round;
        stroke-width: 1px;
      }
    </style>
  </defs>
  <path id="Forme_1249" data-name="Forme 1249" class="cls-1" d="M130.84,335.739h-0.525a0.4,0.4,0,0,1-.4-0.4V325.174l-3.794,7.351a0.4,0.4,0,0,1-.353.215h-0.35a0.4,0.4,0,0,1-.35-0.21l-3.954-7.4v10.217a0.4,0.4,0,0,1-.4.4H120.2a0.4,0.4,0,0,1-.4-0.4V322.807a0.4,0.4,0,0,1,.4-0.4h0.839a0.4,0.4,0,0,1,.353.214l4.22,8.13,4.056-8.125a0.4,0.4,0,0,1,.355-0.219h0.822a0.4,0.4,0,0,1,.4.4v12.535A0.4,0.4,0,0,1,130.84,335.739Zm13.545,0h-0.577a0.4,0.4,0,0,1-.371-0.256l-1.528-4.016H136.6l-1.546,4.017a0.4,0.4,0,0,1-.37.255h-0.577a0.4,0.4,0,0,1-.371-0.54l4.841-12.535a0.4,0.4,0,0,1,.371-0.254h0.665a0.4,0.4,0,0,1,.371.256l4.771,12.536A0.4,0.4,0,0,1,144.385,335.739Zm-7.268-5.588h4.28l-2.119-5.559Zm11.13,5.588h-0.576a0.4,0.4,0,0,1-.4-0.4V322.807a0.4,0.4,0,0,1,.4-0.4h0.576a0.4,0.4,0,0,1,.4.4v12.535A0.4,0.4,0,0,1,148.247,335.739ZM156.759,336a4.526,4.526,0,0,1-3.3-1.213,4.666,4.666,0,0,1-1.376-3.237,0.4,0.4,0,0,1,.4-0.422h0.576a0.4,0.4,0,0,1,.4.371,3.379,3.379,0,0,0,.963,2.338,3.17,3.17,0,0,0,2.363.865,3.645,3.645,0,0,0,2.212-.655,2.169,2.169,0,0,0,.957-1.878,2.014,2.014,0,0,0-.985-1.843,9.318,9.318,0,0,0-2.409-.86,0.433,0.433,0,0,1-.078-0.03c-0.03-.01-0.078-0.022-0.143-0.038a8.1,8.1,0,0,1-2.914-1.225,3.052,3.052,0,0,1-1.022-2.368,3.3,3.3,0,0,1,1.274-2.773,4.54,4.54,0,0,1,2.9-.9,4.475,4.475,0,0,1,3.1,1.061,4.062,4.062,0,0,1,1.319,3,0.4,0.4,0,0,1-.4.416h-0.559a0.4,0.4,0,0,1-.4-0.388,2.658,2.658,0,0,0-.893-2.08,3.258,3.258,0,0,0-2.206-.723,3.087,3.087,0,0,0-2,.608,2.12,2.12,0,0,0-.78,1.785,1.834,1.834,0,0,0,.642,1.4,5.894,5.894,0,0,0,2.31.919,0.348,0.348,0,0,1,.083.032,0.645,0.645,0,0,1,.209.053,10.868,10.868,0,0,1,2.83,1.047,3.105,3.105,0,0,1,1.511,2.756,3.656,3.656,0,0,1-1.392,3.031A5.094,5.094,0,0,1,156.759,336Zm13.318,0a5.427,5.427,0,0,1-4.563-2.073,9.125,9.125,0,0,1,0-9.682,5.33,5.33,0,0,1,4.567-2.114,5.4,5.4,0,0,1,4.583,2.094,7.963,7.963,0,0,1,1.39,4.858,7.865,7.865,0,0,1-1.391,4.859A5.4,5.4,0,0,1,170.077,336Zm-3.486-2.944a4.535,4.535,0,0,0,6.991,0,7.9,7.9,0,0,0-.017-7.944,4.486,4.486,0,0,0-6.975,0A7.957,7.957,0,0,0,166.591,333.056Zm22.38,2.683h-0.577a0.394,0.394,0,0,1-.328-0.174L180.891,325.1v10.243a0.4,0.4,0,0,1-.4.4h-0.577a0.4,0.4,0,0,1-.4-0.4V322.807a0.4,0.4,0,0,1,.4-0.4h0.595a0.4,0.4,0,0,1,.328.173L188,333.063V322.807a0.4,0.4,0,0,1,.4-0.4h0.577a0.4,0.4,0,0,1,.4.4v12.535A0.4,0.4,0,0,1,188.971,335.739Zm-0.509-1,0.112,0.162v-0.2a0.345,0.345,0,0,1-.063.025A0.443,0.443,0,0,1,188.462,334.74Zm-8.148-11.518v0.242a0.435,0.435,0,0,1,.063-0.025,0.641,0.641,0,0,1,.076-0.016Zm23.775,8.263H199.44a0.4,0.4,0,0,1-.4-0.4V330.6a0.4,0.4,0,0,1,.4-0.4h4.649a0.4,0.4,0,0,1,.4.4v0.488A0.4,0.4,0,0,1,204.089,331.485ZM219.522,336a5.238,5.238,0,0,1-4.48-2.115,9.152,9.152,0,0,1-.018-9.6,5.225,5.225,0,0,1,4.5-2.15,6.106,6.106,0,0,1,3.119.769,4.336,4.336,0,0,1,1.98,2.544,0.4,0.4,0,0,1-.206.474l-0.542.262a0.4,0.4,0,0,1-.554-0.243c-0.507-1.676-1.749-2.49-3.8-2.49a3.844,3.844,0,0,0-3.4,1.695,6.779,6.779,0,0,0-1.048,3.941A6.7,6.7,0,0,0,216.124,333a3.847,3.847,0,0,0,3.4,1.7,3.93,3.93,0,0,0,3.048-1.165,4.39,4.39,0,0,0,1.064-3.129v-0.144h-3.745a0.4,0.4,0,0,1-.4-0.4v-0.523a0.4,0.4,0,0,1,.4-0.4h4.7a0.4,0.4,0,0,1,.395.358c0.013,0.13.02,0.253,0.02,0.37v0.314c0,2.823-1,4.682-2.986,5.526A6.527,6.527,0,0,1,219.522,336Zm18.125-.261H237.07a0.4,0.4,0,0,1-.371-0.256l-1.528-4.016h-5.308l-1.546,4.017a0.4,0.4,0,0,1-.37.255H227.37A0.4,0.4,0,0,1,227,335.2l4.841-12.535a0.4,0.4,0,0,1,.371-0.254h0.664a0.4,0.4,0,0,1,.372.256l4.771,12.536A0.4,0.4,0,0,1,237.647,335.739Zm-7.268-5.588h4.28l-2.119-5.559Zm14.1,5.849a4.526,4.526,0,0,1-3.3-1.213,4.666,4.666,0,0,1-1.376-3.237,0.4,0.4,0,0,1,.4-0.422h0.576a0.4,0.4,0,0,1,.4.371,3.375,3.375,0,0,0,.963,2.338,3.168,3.168,0,0,0,2.363.865,3.64,3.64,0,0,0,2.211-.655,2.167,2.167,0,0,0,.957-1.878,2.014,2.014,0,0,0-.985-1.843,9.282,9.282,0,0,0-2.409-.86,0.4,0.4,0,0,1-.077-0.03c-0.031-.01-0.078-0.022-0.143-0.038a8.086,8.086,0,0,1-2.914-1.225,3.052,3.052,0,0,1-1.022-2.368,3.3,3.3,0,0,1,1.274-2.773,4.54,4.54,0,0,1,2.9-.9,4.477,4.477,0,0,1,3.1,1.061,4.066,4.066,0,0,1,1.319,3,0.4,0.4,0,0,1-.4.416h-0.559a0.4,0.4,0,0,1-.4-0.388,2.658,2.658,0,0,0-.893-2.08,3.258,3.258,0,0,0-2.206-.723,3.087,3.087,0,0,0-2,.608,2.12,2.12,0,0,0-.78,1.785,1.834,1.834,0,0,0,.642,1.4,5.894,5.894,0,0,0,2.31.919,0.348,0.348,0,0,1,.083.032,0.651,0.651,0,0,1,.209.053,10.868,10.868,0,0,1,2.83,1.047,3.105,3.105,0,0,1,1.511,2.756,3.656,3.656,0,0,1-1.392,3.031A5.1,5.1,0,0,1,244.481,336Zm11.657-.261h-0.594a0.4,0.4,0,0,1-.4-0.4v-11.6h-3.518a0.4,0.4,0,0,1-.4-0.4v-0.54a0.4,0.4,0,0,1,.4-0.4h8.424a0.4,0.4,0,0,1,.4.4v0.54a0.4,0.4,0,0,1-.4.4h-3.518v11.6A0.4,0.4,0,0,1,256.138,335.739Zm15.468,0h-0.682a0.4,0.4,0,0,1-.4-0.4v-2.807q0-.5-0.009-0.8c0-.187-0.012-0.324-0.023-0.408a1.573,1.573,0,0,0-.766-1.248,4.093,4.093,0,0,0-1.741-.27h-3.395v5.531a0.4,0.4,0,0,1-.4.4H263.6a0.4,0.4,0,0,1-.4-0.4V322.807a0.4,0.4,0,0,1,.4-0.4h4.177a6.392,6.392,0,0,1,3.265.65,3.8,3.8,0,0,1-.209,6.1,2.674,2.674,0,0,1,1.132,2.138c0.006,0.019.02,0.088,0.02,1.659L272,335.339a0.39,0.39,0,0,1-.115.282A0.4,0.4,0,0,1,271.606,335.739Zm-7.013-7.244h3.482c2.7,0,3.011-1.346,3.011-2.359a2.027,2.027,0,0,0-1.788-2.313c-0.141-.019-0.346-0.038-0.6-0.055s-0.567-.024-0.918-0.024h-3.185V328.5Zm16.836,7.5a5.425,5.425,0,0,1-4.563-2.073,9.119,9.119,0,0,1,0-9.682,5.327,5.327,0,0,1,4.567-2.114,5.4,5.4,0,0,1,4.582,2.094,7.963,7.963,0,0,1,1.39,4.858,7.865,7.865,0,0,1-1.391,4.859A5.4,5.4,0,0,1,281.429,336Zm-3.487-2.944a4.535,4.535,0,0,0,6.991,0,7.9,7.9,0,0,0-.017-7.944,4.486,4.486,0,0,0-6.975,0A7.957,7.957,0,0,0,277.942,333.056Zm22.362,2.683h-0.576a0.391,0.391,0,0,1-.327-0.174L292.225,325.1v10.243a0.4,0.4,0,0,1-.4.4h-0.577a0.4,0.4,0,0,1-.4-0.4V322.807a0.4,0.4,0,0,1,.4-0.4h0.6a0.4,0.4,0,0,1,.328.173l7.157,10.48V322.807a0.4,0.4,0,0,1,.4-0.4H300.3a0.4,0.4,0,0,1,.4.4v12.535A0.4,0.4,0,0,1,300.3,335.739Zm-0.508-1,0.111,0.162v-0.2a0.26,0.26,0,0,1-.062.025A0.443,0.443,0,0,1,299.8,334.74Zm-8.148-11.518v0.242a0.435,0.435,0,0,1,.063-0.025,0.641,0.641,0,0,1,.076-0.016ZM310.127,336a5.428,5.428,0,0,1-4.563-2.073,9.122,9.122,0,0,1,0-9.682,5.327,5.327,0,0,1,4.566-2.114,5.4,5.4,0,0,1,4.583,2.094,7.963,7.963,0,0,1,1.39,4.858,7.865,7.865,0,0,1-1.391,4.859A5.4,5.4,0,0,1,310.127,336Zm-3.486-2.944a4.534,4.534,0,0,0,6.99,0,7.9,7.9,0,0,0-.016-7.944,4.486,4.486,0,0,0-6.975,0A7.957,7.957,0,0,0,306.641,333.056Zm23.971,2.683h-0.525a0.4,0.4,0,0,1-.4-0.4V325.174l-3.794,7.351a0.4,0.4,0,0,1-.353.215h-0.349a0.4,0.4,0,0,1-.35-0.21l-3.954-7.4v10.217a0.4,0.4,0,0,1-.4.4h-0.525a0.4,0.4,0,0,1-.4-0.4V322.807a0.4,0.4,0,0,1,.4-0.4h0.839a0.4,0.4,0,0,1,.353.214l4.22,8.13,4.055-8.125a0.4,0.4,0,0,1,.356-0.219h0.822a0.4,0.4,0,0,1,.4.4v12.535A0.4,0.4,0,0,1,330.612,335.739Zm5.435,0H335.47a0.4,0.4,0,0,1-.4-0.4V322.807a0.4,0.4,0,0,1,.4-0.4h0.577a0.4,0.4,0,0,1,.4.4v12.535A0.4,0.4,0,0,1,336.047,335.739Zm12.724,0h-7.848a0.4,0.4,0,0,1-.4-0.4V322.807a0.4,0.4,0,0,1,.4-0.4H348.6a0.4,0.4,0,0,1,.4.4v0.557a0.4,0.4,0,0,1-.4.4h-6.681v4.385h5.213a0.4,0.4,0,0,1,.4.4v0.541a0.4,0.4,0,0,1-.4.4h-5.213v4.908h6.856a0.4,0.4,0,0,1,.4.4v0.558A0.4,0.4,0,0,1,348.771,335.739Zm14.314-4.254h-4.649a0.4,0.4,0,0,1-.4-0.4V330.6a0.4,0.4,0,0,1,.4-0.4h4.649a0.4,0.4,0,0,1,.4.4v0.488A0.4,0.4,0,0,1,363.085,331.485ZM377.207,336a4.522,4.522,0,0,1-3.3-1.213,4.657,4.657,0,0,1-1.376-3.237,0.392,0.392,0,0,1,.106-0.3,0.4,0.4,0,0,1,.29-0.125H373.5a0.4,0.4,0,0,1,.4.371,3.384,3.384,0,0,0,.963,2.338,3.172,3.172,0,0,0,2.364.865,3.64,3.64,0,0,0,2.211-.655,2.167,2.167,0,0,0,.957-1.878,2.014,2.014,0,0,0-.984-1.843,9.318,9.318,0,0,0-2.409-.86,0.433,0.433,0,0,1-.078-0.03c-0.03-.01-0.078-0.022-0.143-0.038a8.123,8.123,0,0,1-2.914-1.225,3.051,3.051,0,0,1-1.023-2.368,3.3,3.3,0,0,1,1.276-2.773,4.533,4.533,0,0,1,2.9-.9,4.475,4.475,0,0,1,3.1,1.061,4.063,4.063,0,0,1,1.319,2.994,0.4,0.4,0,0,1-.4.417h-0.56a0.4,0.4,0,0,1-.4-0.387,2.663,2.663,0,0,0-.894-2.081,3.258,3.258,0,0,0-2.206-.723,3.082,3.082,0,0,0-2,.608,2.118,2.118,0,0,0-.781,1.785,1.834,1.834,0,0,0,.642,1.4,5.894,5.894,0,0,0,2.31.919,0.373,0.373,0,0,1,.084.032,0.624,0.624,0,0,1,.207.053,10.859,10.859,0,0,1,2.832,1.047,3.106,3.106,0,0,1,1.51,2.756,3.656,3.656,0,0,1-1.392,3.031A5.1,5.1,0,0,1,377.207,336Zm17.408-.261h-0.577a0.4,0.4,0,0,1-.4-0.4v-6.037h-7.158v6.037a0.4,0.4,0,0,1-.4.4h-0.594a0.4,0.4,0,0,1-.4-0.4V322.807a0.4,0.4,0,0,1,.4-0.4h0.594a0.4,0.4,0,0,1,.4.4v5.182h7.158v-5.182a0.4,0.4,0,0,1,.4-0.4h0.577a0.4,0.4,0,0,1,.4.4v12.535A0.4,0.4,0,0,1,394.615,335.739ZM404.437,336a5.428,5.428,0,0,1-4.563-2.073,9.122,9.122,0,0,1,0-9.682,5.327,5.327,0,0,1,4.566-2.114,5.4,5.4,0,0,1,4.583,2.094,7.963,7.963,0,0,1,1.39,4.858,7.865,7.865,0,0,1-1.391,4.859A5.4,5.4,0,0,1,404.437,336Zm-3.486-2.944a4.534,4.534,0,0,0,6.99,0,7.9,7.9,0,0,0-.016-7.944,4.486,4.486,0,0,0-6.975,0A7.957,7.957,0,0,0,400.951,333.056Zm13.9,2.683h-0.6a0.4,0.4,0,0,1-.4-0.4V322.807a0.4,0.4,0,0,1,.4-0.4h3.426c4.069,0,4.924,2.018,4.924,3.709a3.775,3.775,0,0,1-1.057,2.753,3.611,3.611,0,0,1-1.9.949,11.323,11.323,0,0,1-2.017.129h-2.381v5.392A0.4,0.4,0,0,1,414.855,335.739Zm0.4-7.1h2a7.633,7.633,0,0,0,2.755-.3,2.191,2.191,0,0,0,1.2-2.272,2.041,2.041,0,0,0-1.99-2.241,13.3,13.3,0,0,0-1.948-.1h-2.014v4.908Zm11.575,7.1h-0.594a0.4,0.4,0,0,1-.4-0.4V322.807a0.4,0.4,0,0,1,.4-0.4h3.425c4.07,0,4.925,2.018,4.925,3.709a3.777,3.777,0,0,1-1.058,2.753,3.607,3.607,0,0,1-1.9.949,11.331,11.331,0,0,1-2.017.129h-2.382v5.392A0.4,0.4,0,0,1,426.827,335.739Zm0.4-7.1h2a7.628,7.628,0,0,0,2.755-.3,2.191,2.191,0,0,0,1.2-2.272,2.041,2.041,0,0,0-1.989-2.241,13.316,13.316,0,0,0-1.948-.1h-2.015v4.908Zm11.645,7.1h-0.577a0.4,0.4,0,0,1-.4-0.4V322.807a0.4,0.4,0,0,1,.4-0.4h0.577a0.4,0.4,0,0,1,.4.4v12.535A0.4,0.4,0,0,1,438.869,335.739Zm13.93,0h-0.577a0.394,0.394,0,0,1-.328-0.174L444.72,325.1v10.243a0.4,0.4,0,0,1-.4.4h-0.577a0.4,0.4,0,0,1-.4-0.4V322.807a0.4,0.4,0,0,1,.4-0.4h0.594a0.4,0.4,0,0,1,.329.173l7.156,10.48V322.807a0.4,0.4,0,0,1,.4-0.4H452.8a0.4,0.4,0,0,1,.4.4v12.535A0.4,0.4,0,0,1,452.8,335.739Zm-0.509-1L452.4,334.9v-0.2a0.309,0.309,0,0,1-.062.025C452.322,334.732,452.306,334.737,452.29,334.74Zm-8.147-11.518v0.242a0.411,0.411,0,0,1,.061-0.025,0.737,0.737,0,0,1,.076-0.016ZM462.517,336a5.239,5.239,0,0,1-4.481-2.115,9.149,9.149,0,0,1-.017-9.6,5.225,5.225,0,0,1,4.5-2.15,6.112,6.112,0,0,1,3.119.769,4.33,4.33,0,0,1,1.979,2.545,0.4,0.4,0,0,1-.206.473l-0.541.262a0.392,0.392,0,0,1-.333.006,0.4,0.4,0,0,1-.221-0.249c-0.508-1.675-1.75-2.49-3.8-2.49a3.844,3.844,0,0,0-3.4,1.695,6.779,6.779,0,0,0-1.048,3.941A6.693,6.693,0,0,0,459.119,333a3.847,3.847,0,0,0,3.4,1.7,3.928,3.928,0,0,0,3.048-1.165,4.39,4.39,0,0,0,1.064-3.129v-0.144h-3.745a0.4,0.4,0,0,1-.4-0.4v-0.523a0.4,0.4,0,0,1,.4-0.4h4.7a0.4,0.4,0,0,1,.395.359,3.68,3.68,0,0,1,.019.369v0.314c0,2.823-1,4.682-2.986,5.526A6.518,6.518,0,0,1,462.517,336ZM120.2,322.807h0.839l4.58,8.822,4.4-8.822h0.821v12.535h-0.524v-11.8l-4.544,8.8h-0.35l-4.7-8.8v11.8H120.2V322.807Zm18.754,0h0.665l4.771,12.535h-0.577l-1.625-4.271h-5.856l-1.642,4.271h-0.577Zm3.024,7.741-2.691-7.061-2.745,7.061h5.436Zm5.7-7.741h0.576v12.535h-0.576V322.807Zm5.382,8.718a3.784,3.784,0,0,0,1.084,2.6,3.569,3.569,0,0,0,2.639.976,4.007,4.007,0,0,0,2.447-.733,2.554,2.554,0,0,0,1.119-2.2,2.4,2.4,0,0,0-1.171-2.179,10.166,10.166,0,0,0-2.517-.907,1.023,1.023,0,0,0-.227-0.07,7.92,7.92,0,0,1-2.744-1.133,2.661,2.661,0,0,1-.892-2.075,2.906,2.906,0,0,1,1.119-2.458,4.134,4.134,0,0,1,2.656-.819,4.072,4.072,0,0,1,2.832.959,3.667,3.667,0,0,1,1.188,2.719h-0.559A3.058,3.058,0,0,0,159,323.834a3.672,3.672,0,0,0-2.465-.818,3.458,3.458,0,0,0-2.254.7,2.508,2.508,0,0,0-.926,2.092,2.233,2.233,0,0,0,.769,1.691,6.437,6.437,0,0,0,2.482,1.011,0.277,0.277,0,0,0,.095.027,0.628,0.628,0,0,1,.149.044,10.94,10.94,0,0,1,2.762,1.011,2.72,2.72,0,0,1,1.328,2.423,3.267,3.267,0,0,1-1.241,2.72,4.682,4.682,0,0,1-2.936.872,4.124,4.124,0,0,1-3.024-1.1,4.272,4.272,0,0,1-1.258-2.98h0.576Zm12.777-7.045a4.933,4.933,0,0,1,4.247-1.952,5,5,0,0,1,4.265,1.935,7.544,7.544,0,0,1,1.311,4.62,7.454,7.454,0,0,1-1.311,4.621,5.7,5.7,0,0,1-8.512-.018A8.736,8.736,0,0,1,165.83,324.48Zm0.437,8.806a4.93,4.93,0,0,0,7.638,0,8.286,8.286,0,0,0-.017-8.4,4.879,4.879,0,0,0-7.621,0A8.339,8.339,0,0,0,166.267,333.286Zm13.65-10.479h0.595l7.882,11.542V322.807h0.577v12.535h-0.577l-7.9-11.524v11.524h-0.577V322.807ZM199.44,330.6h4.649v0.488H199.44V330.6Zm20.082-7.55a4.253,4.253,0,0,0-3.723,1.866,7.134,7.134,0,0,0-1.118,4.167,7.045,7.045,0,0,0,1.118,4.149,4.253,4.253,0,0,0,3.723,1.866,4.345,4.345,0,0,0,3.338-1.29,4.745,4.745,0,0,0,1.171-3.4v-0.54h-4.142v-0.523h4.7c0.011,0.116.017,0.226,0.017,0.331v0.314q0,3.991-2.744,5.16a6.078,6.078,0,0,1-2.342.454,4.842,4.842,0,0,1-4.16-1.952,8.767,8.767,0,0,1-.017-9.137,4.825,4.825,0,0,1,4.177-1.987,5.694,5.694,0,0,1,2.919.714,3.937,3.937,0,0,1,1.8,2.319l-0.542.262Q222.86,323.049,219.522,323.05Zm12.689-.243h0.664l4.772,12.535H237.07l-1.625-4.271h-5.856l-1.642,4.271H227.37Zm3.024,7.741-2.692-7.061-2.744,7.061h5.436Zm5.54,0.977a3.784,3.784,0,0,0,1.084,2.6,3.569,3.569,0,0,0,2.639.976,4.007,4.007,0,0,0,2.447-.733,2.554,2.554,0,0,0,1.119-2.2,2.4,2.4,0,0,0-1.171-2.179,10.166,10.166,0,0,0-2.517-.907,1.02,1.02,0,0,0-.228-0.07,7.922,7.922,0,0,1-2.743-1.133,2.661,2.661,0,0,1-.892-2.075,2.906,2.906,0,0,1,1.119-2.458,4.134,4.134,0,0,1,2.656-.819,4.072,4.072,0,0,1,2.832.959,3.667,3.667,0,0,1,1.188,2.719h-0.559a3.061,3.061,0,0,0-1.031-2.372,3.674,3.674,0,0,0-2.465-.818,3.456,3.456,0,0,0-2.254.7,2.508,2.508,0,0,0-.926,2.092,2.233,2.233,0,0,0,.769,1.691,6.438,6.438,0,0,0,2.481,1.011,0.284,0.284,0,0,0,.1.027,0.656,0.656,0,0,1,.149.044,10.929,10.929,0,0,1,2.761,1.011,2.719,2.719,0,0,1,1.329,2.423,3.267,3.267,0,0,1-1.241,2.72,4.686,4.686,0,0,1-2.936.872,4.124,4.124,0,0,1-3.024-1.1,4.272,4.272,0,0,1-1.258-2.98h0.576Zm14.769-8.178h-3.915v-0.54h8.424v0.54h-3.915v12h-0.594v-12Zm8.651,6.067v5.928H263.6V322.807h4.177a6.093,6.093,0,0,1,3.059.592,2.9,2.9,0,0,1,1.241,2.686,2.947,2.947,0,0,1-2.272,3.085,2.14,2.14,0,0,1,1.765,2.162q0.016,0.089.017,1.622l0.018,2.388h-0.682v-2.807q0-.506-0.009-0.81c-0.006-.2-0.014-0.352-0.026-0.445a1.965,1.965,0,0,0-.979-1.552,4.427,4.427,0,0,0-1.922-.314H264.2Zm3.88-.522q3.408,0,3.408-2.756a2.416,2.416,0,0,0-2.114-2.7c-0.164-.024-0.379-0.043-0.647-0.061s-0.583-.026-0.944-0.026H264.2v5.545h3.88Zm9.106-4.412a4.933,4.933,0,0,1,4.248-1.952,5,5,0,0,1,4.264,1.935,7.544,7.544,0,0,1,1.311,4.62,7.454,7.454,0,0,1-1.311,4.621,5.7,5.7,0,0,1-8.512-.018A8.742,8.742,0,0,1,277.181,324.48Zm0.437,8.806a4.93,4.93,0,0,0,7.638,0,8.286,8.286,0,0,0-.017-8.4,4.879,4.879,0,0,0-7.621,0A8.339,8.339,0,0,0,277.618,333.286Zm13.633-10.479h0.6l7.882,11.542V322.807h0.577v12.535h-0.577l-7.9-11.524v11.524h-0.577V322.807Zm14.629,1.673a4.933,4.933,0,0,1,4.247-1.952,5,5,0,0,1,4.265,1.935,7.544,7.544,0,0,1,1.311,4.62,7.454,7.454,0,0,1-1.311,4.621,5.7,5.7,0,0,1-8.512-.018A8.742,8.742,0,0,1,305.88,324.48Zm0.437,8.806a4.93,4.93,0,0,0,7.638,0,8.286,8.286,0,0,0-.017-8.4,4.879,4.879,0,0,0-7.621,0A8.339,8.339,0,0,0,306.317,333.286Zm13.65-10.479h0.839l4.58,8.822,4.4-8.822h0.822v12.535h-0.525v-11.8l-4.544,8.8h-0.35l-4.7-8.8v11.8h-0.525V322.807Zm15.5,0h0.577v12.535H335.47V322.807Zm5.453,0H348.6v0.557h-7.078v5.178h5.61v0.541h-5.61v5.7h7.253v0.558h-7.848V322.807Zm17.513,7.793h4.649v0.488h-4.649V330.6Zm15.065,0.925a3.784,3.784,0,0,0,1.084,2.6,3.572,3.572,0,0,0,2.64.976,4.006,4.006,0,0,0,2.446-.733,2.554,2.554,0,0,0,1.119-2.2,2.4,2.4,0,0,0-1.171-2.179,10.166,10.166,0,0,0-2.517-.907,1,1,0,0,0-.227-0.07,7.92,7.92,0,0,1-2.744-1.133,2.661,2.661,0,0,1-.892-2.075,2.906,2.906,0,0,1,1.119-2.458,4.135,4.135,0,0,1,2.657-.819,4.071,4.071,0,0,1,2.831.959,3.667,3.667,0,0,1,1.188,2.719h-0.559a3.058,3.058,0,0,0-1.031-2.372,3.671,3.671,0,0,0-2.464-.818,3.459,3.459,0,0,0-2.255.7,2.508,2.508,0,0,0-.926,2.092,2.233,2.233,0,0,0,.769,1.691,6.444,6.444,0,0,0,2.482,1.011,0.284,0.284,0,0,0,.1.027,0.636,0.636,0,0,1,.148.044,10.94,10.94,0,0,1,2.762,1.011,2.72,2.72,0,0,1,1.328,2.423,3.265,3.265,0,0,1-1.241,2.72,4.682,4.682,0,0,1-2.936.872,4.127,4.127,0,0,1-3.024-1.1,4.272,4.272,0,0,1-1.258-2.98H373.5Zm11.991-8.718h0.594v5.579h7.953v-5.579h0.576v12.535h-0.576v-6.434h-7.953v6.434h-0.594V322.807Zm14.7,1.673a4.933,4.933,0,0,1,4.248-1.952,5,5,0,0,1,4.264,1.935,7.544,7.544,0,0,1,1.311,4.62A7.454,7.454,0,0,1,408.7,333.7a5.7,5.7,0,0,1-8.512-.018A8.742,8.742,0,0,1,400.19,324.48Zm0.437,8.806a4.93,4.93,0,0,0,7.638,0,8.286,8.286,0,0,0-.017-8.4,4.879,4.879,0,0,0-7.621,0A8.339,8.339,0,0,0,400.627,333.286Zm21.586-7.167a3.377,3.377,0,0,1-.944,2.475,3.191,3.191,0,0,1-1.695.837,10.9,10.9,0,0,1-1.941.123h-2.778v5.788h-0.6V322.807h3.426Q422.213,322.807,422.213,326.119Zm-7.358-2.79v5.7h2.394a8.321,8.321,0,0,0,2.919-.331,2.569,2.569,0,0,0,1.433-2.633,2.43,2.43,0,0,0-2.324-2.632,13.614,13.614,0,0,0-2.011-.105h-2.411Zm19.33,2.79a3.377,3.377,0,0,1-.944,2.475,3.187,3.187,0,0,1-1.695.837,10.9,10.9,0,0,1-1.94.123h-2.779v5.788h-0.595V322.807h3.426Q434.185,322.807,434.185,326.119Zm-7.358-2.79v5.7h2.394a8.321,8.321,0,0,0,2.919-.331,2.569,2.569,0,0,0,1.433-2.633,2.429,2.429,0,0,0-2.324-2.632,13.607,13.607,0,0,0-2.01-.105h-2.412Zm11.465-.522h0.577v12.535h-0.577V322.807Zm5.453,0h0.594l7.883,11.542V322.807H452.8v12.535h-0.577l-7.9-11.524v11.524h-0.577V322.807Zm18.772,0.243a4.253,4.253,0,0,0-3.723,1.866,7.134,7.134,0,0,0-1.119,4.167,7.045,7.045,0,0,0,1.119,4.149,4.253,4.253,0,0,0,3.723,1.866,4.347,4.347,0,0,0,3.338-1.29,4.745,4.745,0,0,0,1.171-3.4v-0.54h-4.142v-0.523h4.7c0.011,0.116.017,0.226,0.017,0.331v0.314q0,3.991-2.745,5.16a6.073,6.073,0,0,1-2.341.454,4.842,4.842,0,0,1-4.16-1.952,8.767,8.767,0,0,1-.017-9.137,4.825,4.825,0,0,1,4.177-1.987,5.693,5.693,0,0,1,2.918.714,3.935,3.935,0,0,1,1.8,2.319l-0.542.262Q465.856,323.049,462.517,323.05ZM119.272,162.373h57.886v19.4h-35.9v19.1h33.056v19.1H141.26V251.9H119.272V162.373Zm111.136,71.771c15.855,0,26.027-11.937,26.027-27.006s-10.172-27.008-26.027-27.008c-16,0-26.027,11.937-26.027,27.008s10.022,27.006,26.027,27.006m0-74.754c28.27,0,48.313,21.038,48.313,47.748s-20.043,47.746-48.313,47.746c-28.419,0-48.313-21.039-48.313-47.746s19.894-47.748,48.313-47.748m58.486,2.984h21.988V251.9H288.894V162.374Zm70.9,38.794c4.936,0,8.227-5.072,8.227-10.3s-3.888-9.848-8.825-9.848H342.143v20.143h17.65Zm-39.637-38.8H357.7c19.3,0,31.859,11.639,31.859,28.5,0,15.667-7.928,24.47-21.24,27.753L392.55,251.9H365.029l-22.886-33.423V251.9H320.156V162.373Zm77.773,0h59.383v19.4h-37.4v16.115H454.47v19.1H419.917V233.1h39.04v18.8H397.929V162.373ZM120.125,260.9h15.132c12.815,0,22.733,9.388,22.733,21.6,0,11.556-8.832,21.739-22.733,21.739H120.125V260.9ZM135.04,294.56c6.805,0,12.018-4.766,12.018-12.06,0-6.717-4.561-11.99-12.018-11.99h-4.272v24.05h4.272Zm30.406-34.377h10.136l-12.525,17.983h-0.941Zm24.327-.723h1.883l21.286,44.779H201.5l-2.172-4.479H182.171l-2.1,4.479h-11.44Zm5.937,32.717-5-10.977h-0.146L185.5,292.177H195.71ZM213.447,260.9h10.571v27.156c0,5.778,2.751,7.8,6.444,7.8,4.054,0,6.588-2.022,6.588-7.8V260.9h10.643V289.65c0,10.255-7.674,16.034-17.231,16.034-9.919,0-17.015-6.067-17.015-16.034V260.9Zm47.929,9.388h-9.7V260.9h30.264v9.388h-9.847v33.946H261.376V270.293Zm44.96-10.833c13.684,0,23.386,10.183,23.386,23.111s-9.7,23.113-23.386,23.113c-13.756,0-23.385-10.184-23.385-23.113S292.58,259.46,306.336,259.46Zm0,36.184c7.674,0,12.6-5.778,12.6-13.073s-4.924-13.072-12.6-13.072c-7.747,0-12.6,5.779-12.6,13.072S298.589,295.644,306.336,295.644ZM336.6,260.9h9.919l11.077,23.4,11.15-23.4h9.774v43.334h-10.57V284.955l-9.485,20.729h-1.737l-9.485-20.873v19.428H336.6V260.9Zm48.869,0h11.222l16.869,25.711V260.9h10.571v43.334H413.052l-16.943-25.784v25.784H385.467V260.9Zm45.611,0h28.743v9.388h-18.1v7.8h16.724v9.245H441.721v7.8h18.9v9.1H431.078V260.9ZM306.21,150.121a0.846,0.846,0,0,1-.633-0.281L288.53,130.984l-14.407,17.76a0.852,0.852,0,0,1-1.325-1.07l15.024-18.521c0.018-.023.036-0.044,0.056-0.066a0.832,0.832,0,0,1,.226-0.168,0.841,0.841,0,0,1,.36-0.094h0a0.873,0.873,0,0,1,.376.073,0.844,0.844,0,0,1,.241.162,0.59,0.59,0,0,1,.055.057l17.7,19.584a0.851,0.851,0,0,1-.632,1.42m39.883-41.162h16.213v-1.078A7.847,7.847,0,0,0,354.679,100a8.206,8.206,0,0,0-7.15,3.18,7.656,7.656,0,0,0-1.436,4.554v1.223ZM201.3,152.324H120.124a0.851,0.851,0,1,1,0-1.7h80.319V119.782a0.849,0.849,0,0,1,.241-0.591L220.7,98.558a0.855,0.855,0,0,1,.6-0.259h0.008a0.85,0.85,0,0,1,.6.248L242.66,119.18a0.85,0.85,0,0,1,.251.6v30h22.937a6.559,6.559,0,0,1-.26-1.189,5.988,5.988,0,0,1,2.093-5.455l0.144-.153c3.314-3.491,10.757-11.284,16.3-17.081-0.9-1.022-2.881-3.19-3.49-3.688a0.4,0.4,0,0,0-.3-0.07,14.855,14.855,0,0,1-7.338-1.27,8.613,8.613,0,0,1-3.154-2.3l-8.055-9.258a2.1,2.1,0,0,1-.431-0.791,2.67,2.67,0,0,1,.244-2.381,1.9,1.9,0,0,1,2.478-.335,0.906,0.906,0,0,1,.189.149c0.283,0.3,6.934,7.227,7.872,8.231a0.973,0.973,0,0,0,.7.362,0.35,0.35,0,0,0,.231-0.138l0.267-.326a0.4,0.4,0,0,0-.021-0.532l-8.387-8.435a0.832,0.832,0,0,1-.16-0.222,2.541,2.541,0,0,1,.1-2.548,2.251,2.251,0,0,1,2.654-.376,0.868,0.868,0,0,1,.25.169l8.9,8.718a0.415,0.415,0,0,0,.277.112,0.339,0.339,0,0,0,.241-0.1c0.049-.053.106-0.116,0.161-0.183a1.317,1.317,0,0,0-.057-0.8,0.348,0.348,0,0,0-.1-0.161l-8.021-7.814a2.04,2.04,0,0,1-.54-0.876,2.114,2.114,0,0,1,.326-2.177,1.838,1.838,0,0,1,2.337-.106c0.425,0.3,10,7.087,12.567,11.03,1.6,2.453,1.231,5.11.986,6.869a6.217,6.217,0,0,0-.11,1.365c0.112,0.536,1.656,2.315,3.221,3.873l5.112-5.346a4.319,4.319,0,0,0,1.277-2.769,16.585,16.585,0,0,1,2.541-9.655c1.457-2.085,6.8-5.655,10.914-6.123a5.35,5.35,0,0,1,4.376,1.136c3.944,3.557-2.042,14-2.78,15.254-0.2.368-2.192,3.679-8.389,4.309a3.15,3.15,0,0,0-.615.108,4.34,4.34,0,0,1-.6.148,4.655,4.655,0,0,0-2.815,1.613l-4.612,5.682,19.855,18.226a3.022,3.022,0,0,1,.441.516,4.449,4.449,0,0,1-.167,5.25h22.567c-0.046-.051-0.093-0.1-0.138-0.155-0.24-.282-0.5-0.615-0.761-0.989a8.3,8.3,0,0,1-1.455-5.749l3.754-33.635a0.851,0.851,0,0,1,.848-0.756h7.075v-1.223a9.363,9.363,0,0,1,1.774-5.569,9.818,9.818,0,0,1,8.3-3.868l0.249,0a9.557,9.557,0,0,1,9.305,9.58v1.078h7.407a0.85,0.85,0,0,1,.848.768l3.468,35.659a6.045,6.045,0,0,1-1.975,4.556q-0.158.159-.319,0.3h82.706a0.85,0.85,0,1,1,0,1.7H368.38a0.85,0.85,0,1,1,0-1.7h0.244a0.984,0.984,0,0,1,.163,0,5.3,5.3,0,0,0,3.761-1.5,4.406,4.406,0,0,0,1.488-3.2l-3.392-34.884h-6.633V116.2a0.853,0.853,0,0,1-1.705,0v-5.545H346.093V116.2a0.853,0.853,0,0,1-1.706,0v-5.545h-6.313l-3.67,32.879a6.614,6.614,0,0,0,1.151,4.578c0.238,0.334.464,0.628,0.671,0.871a4.317,4.317,0,0,0,2.489,1.256,0.85,0.85,0,0,1-.023,1.7H310.631a0.842,0.842,0,0,1-.3-0.061h0a0.827,0.827,0,0,1-.29-0.194h0c-0.008-.007-0.015-0.016-0.023-0.023a0,0,0,0,0,0,0,0.848,0.848,0,0,1-.154-0.245v0h0a0.839,0.839,0,0,1-.062-0.285c0-.016,0-0.034,0-0.051h0v0a0.843,0.843,0,0,1,.066-0.31,0.856,0.856,0,0,1,.19-0.278l0.007-.006c2.566-2.452,1.525-4.023,1.184-4.539a1.265,1.265,0,0,0-.186-0.216L290.63,126.967a0.84,0.84,0,0,1-.167-0.206v0a0.862,0.862,0,0,1-.11-0.372h0a0.832,0.832,0,0,1,.049-0.337s0,0,0,0a0.869,0.869,0,0,1,.145-0.253l5.11-6.3a6.36,6.36,0,0,1,3.841-2.216,2.95,2.95,0,0,0,.365-0.091,4.56,4.56,0,0,1,.973-0.184c5.443-.554,7-3.317,7.067-3.434l0.019-.035c1.6-2.7,5.591-10.9,3.112-13.141a3.756,3.756,0,0,0-3.039-.707c-3.788.431-8.562,3.764-9.707,5.406a15.013,15.013,0,0,0-2.24,8.562,6.046,6.046,0,0,1-1.756,4.075s-2.365,2.475-5.693,5.954l0,0a0.855,0.855,0,0,1-1.2.028c-0.943-.9-4.042-3.948-4.325-5.366a6.25,6.25,0,0,1,.095-1.931c0.222-1.6.526-3.787-.727-5.707-2.4-3.673-12.008-10.489-12.105-10.558a0.669,0.669,0,0,0-.138-0.055,1.566,1.566,0,0,0,.076.451,0.348,0.348,0,0,0,.093.143l8.024,7.816a2.075,2.075,0,0,1,.549.915,2.577,2.577,0,0,1-.266,2.339c-0.078.094-.156,0.181-0.231,0.263a2.036,2.036,0,0,1-1.456.646,2.118,2.118,0,0,1-1.5-.6l-8.772-8.593a1.044,1.044,0,0,0-.52-0.058,1.022,1.022,0,0,0,.073.615l8.274,8.32a2.082,2.082,0,0,1,.126,2.81l-0.27.329a2.033,2.033,0,0,1-1.541.755h-0.006a2.613,2.613,0,0,1-1.951-.906c-0.863-.925-6.858-7.175-7.745-8.1a0.527,0.527,0,0,0-.224-0.041,1.643,1.643,0,0,0,.075.85,0.372,0.372,0,0,0,.079.143l8.055,9.26a6.936,6.936,0,0,0,2.533,1.852,13.171,13.171,0,0,0,6.465,1.146,2.09,2.09,0,0,1,1.588.443,60.511,60.511,0,0,1,4.21,4.493,0.85,0.85,0,0,1,.141.238,0.866,0.866,0,0,1,.054.386,0.846,0.846,0,0,1-.11.345,0.857,0.857,0,0,1-.134.175c-5.582,5.842-13.391,14.018-16.808,17.618l-0.146.153c-1.185,1.245-1.78,1.87-1.627,4.176a4.113,4.113,0,0,0,.357,1.216,0.992,0.992,0,0,1-.458,1.782h-25.13a0.851,0.851,0,0,1-.853-0.851v-30.5l-19.879-19.773-19.179,19.764v31.347a0.852,0.852,0,0,1-.852.851M460.661,314.809h-341.9a0.761,0.761,0,1,1,0-1.521h341.9A0.761,0.761,0,1,1,460.661,314.809Z" transform="translate(-118 -91.156)"/>
  <g id="fdp-r_copie" data-name="fdp-r copie">
    <circle class="cls-2" cx="515" cy="128.922" r="129"/>
    <path class="cls-3" d="M582.7,136.288h98.037v99.263H582.7V136.288Z" transform="translate(-118 -91.156)"/>
    <path id="fdp" class="cls-1" d="M600.489,204.327h-7.254a0.443,0.443,0,0,0-.437.435v22.6a0.444,0.444,0,0,0,.437.434h0.709a0.453,0.453,0,0,0,.474-0.434V205.9h5.971a6.039,6.039,0,0,1,6.136,5.9,6.134,6.134,0,0,1-6.1,6.1l-3.89,0a0.452,0.452,0,0,0-.47.465v0.534a0.441,0.441,0,0,0,.469.536l3.992,0a7.559,7.559,0,1,0-.033-15.117m33.463-58.022a0.443,0.443,0,0,1,.438-0.436h0.739a0.445,0.445,0,0,1,.44.436V168.9a0.451,0.451,0,0,1-.473.435H634.39a0.444,0.444,0,0,1-.438-0.435V146.305Zm14.536,58.46a0.445,0.445,0,0,1,.439-0.434h0.739a0.446,0.446,0,0,1,.439.434v22.6a0.452,0.452,0,0,1-.47.436h-0.708a0.445,0.445,0,0,1-.439-0.436v-22.6ZM626.81,227.394l-10.286-23.332a0.436,0.436,0,0,0-.439-0.234h-0.1a0.47,0.47,0,0,0-.4.234l-10.391,23.332c-0.1.268,0,.4,0.24,0.4h0.943a0.545,0.545,0,0,0,.47-0.3l9.174-20.984h0.07l9.075,20.984a0.54,0.54,0,0,0,.469.3h0.877c0.369,0,.369-0.2.3-0.4m-7.843-9.539a0.72,0.72,0,0,0-.924.427,2.185,2.185,0,0,1-4.091,0,0.721,0.721,0,0,0-1.354.494,3.63,3.63,0,0,0,6.8,0,0.714,0.714,0,0,0-.43-0.921m-0.344-72.323a12.069,12.069,0,1,0,12.173,12.1,12.088,12.088,0,0,0-12.173-12.1m0,22.662a10.593,10.593,0,1,1,10.691-10.56,10.578,10.578,0,0,1-10.691,10.56m3.6-9.228a0.726,0.726,0,0,0-.928.427,2.839,2.839,0,0,1-5.319,0,0.723,0.723,0,0,0-.928-0.424,0.711,0.711,0,0,0-.428.92,4.289,4.289,0,0,0,8.033,0,0.717,0.717,0,0,0-.43-0.92M672.5,145.86H658.976a0.446,0.446,0,0,0-.439.437v22.594a0.445,0.445,0,0,0,.439.435H672.5a0.444,0.444,0,0,0,.437-0.435v-0.535a0.445,0.445,0,0,0-.437-0.437H660.152V147.3H672.5a0.446,0.446,0,0,0,.437-0.437V146.3a0.445,0.445,0,0,0-.437-0.437m-2.492,9.3a2.436,2.436,0,1,0,2.449,2.436,2.447,2.447,0,0,0-2.449-2.436M629.344,175.09H615.819a0.445,0.445,0,0,0-.44.437v22.592a0.447,0.447,0,0,0,.44.437h13.525a0.445,0.445,0,0,0,.437-0.437v-0.535a0.445,0.445,0,0,0-.437-0.437H617V176.532h12.346a0.445,0.445,0,0,0,.437-0.438v-0.567a0.444,0.444,0,0,0-.437-0.437m-2.492,9.3a2.436,2.436,0,1,0,2.447,2.434,2.446,2.446,0,0,0-2.447-2.434M603.8,156.038a0.727,0.727,0,0,0-.928.427,2.841,2.841,0,0,1-5.319.007,0.012,0.012,0,0,1,0-.01,4.288,4.288,0,0,0-8.032,0,0.72,0.72,0,0,0,.427.922,0.779,0.779,0,0,0,.249.044,0.72,0.72,0,0,0,.679-0.471,2.839,2.839,0,0,1,5.318-.006,0.027,0.027,0,0,1,.007.008,4.287,4.287,0,0,0,8.03,0,0.714,0.714,0,0,0-.427-0.922m2.969-10.185H593.24a0.425,0.425,0,0,0-.44.435v5.3h0a0.8,0.8,0,0,0,1.594,0c0-.023,0-4.294,0-4.294h12.369a0.423,0.423,0,0,0,.438-0.435v-0.57a0.423,0.423,0,0,0-.438-0.435M593.6,156.68a0.794,0.794,0,0,0-.8.791h0l0,11.385a0.464,0.464,0,0,0,.481.476h0.553a0.457,0.457,0,0,0,.56-0.477V157.471a0.793,0.793,0,0,0-.794-0.791m59.766,68.033,0.3-.4a0.474,0.474,0,0,1,.743-0.133,9.834,9.834,0,0,0,6.242,2.58c3.067,0,5.665-2.043,5.665-4.489,0-2.986-2.462-4.326-6.544-5.7-3.912-1.373-6.507-2.749-6.507-6.6,0-2.515,2.022-5.935,7.286-5.935a11.116,11.116,0,0,1,5.8,1.711,0.478,0.478,0,0,1,.134.7,2.913,2.913,0,0,0-.268.436,0.487,0.487,0,0,1-.742.167,9.936,9.936,0,0,0-4.96-1.577c-4.147,0-5.7,2.549-5.7,4.461,0,2.849,2.2,4.089,5.6,5.2,4.62,1.574,7.555,3.184,7.555,7.073,0,3.353-3.474,5.965-7.353,5.965a11.007,11.007,0,0,1-7.15-2.748,0.428,0.428,0,0,1-.1-0.7M592.8,175.525a0.44,0.44,0,0,1,.4-0.436h7.151a11.734,11.734,0,1,1,0,23.467H593.2a0.441,0.441,0,0,1-.4-0.437V175.525Zm7.288,21.589a10.292,10.292,0,1,0,0-20.582h-5.7v20.582h5.7Zm45.346,14.4a7.3,7.3,0,0,0-7.525-7.179h-8.37a0.424,0.424,0,0,0-.44.436v22.607a0.445,0.445,0,0,0,.44.437h0.606a0.473,0.473,0,0,0,.539-0.437v-8.619h6.211a11.756,11.756,0,0,0,2.972-.236,7.348,7.348,0,0,0,5.567-7.009m-7.593,5.836h-7.12V205.874h7.087a5.81,5.81,0,0,1,6.006,5.636,5.881,5.881,0,0,1-5.973,5.836m8.08,10-4.142-7.138a0.675,0.675,0,0,0-.439-0.436h-0.917a0.3,0.3,0,0,0-.267.436l4.145,7.138a0.642,0.642,0,0,0,.44.437h0.708c0.51,0,.749,0,0.472-0.437m9.644-74.314a7.3,7.3,0,0,0-7.527-7.178h-8.369a0.424,0.424,0,0,0-.439.435V168.9a0.445,0.445,0,0,0,.439.435h0.609a0.474,0.474,0,0,0,.539-0.435v-8.619h6.212a11.691,11.691,0,0,0,2.967-.236,7.351,7.351,0,0,0,5.569-7.011m-7.594,5.836H640.85V147.4h7.087a5.811,5.811,0,0,1,6.009,5.635,5.882,5.882,0,0,1-5.977,5.836m8.081,10-4.145-7.139a0.664,0.664,0,0,0-.438-0.435h-0.912a0.293,0.293,0,0,0-.266.435l4.142,7.139a0.64,0.64,0,0,0,.439.437h0.709c0.508,0,.749,0,0.471-0.437" transform="translate(-118 -91.156)"/>
    <path id="lepine" class="cls-1" d="M563.9,284.1a39.477,39.477,0,0,0,5.98-.833c2.475-.624,7.218-2.394,7.218-2.394l0.618,1.562a24.124,24.124,0,0,1-6.5,2.081,14.708,14.708,0,0,1-5.877.1,4.733,4.733,0,0,1-1.443-.52h0Zm-1.856-1.041a13.223,13.223,0,0,0,3.918,3.227,9.637,9.637,0,0,0,3.609.936,5.83,5.83,0,0,1-1.237.312l-0.722.105a9.339,9.339,0,0,0,3.918.312c2.062-.312,7.527-1.249,10.619-1.665s8.662-.313,12.27,2.081,4.743,3.851,6.083,6.349a9.785,9.785,0,0,1,1.341,4.163,10.562,10.562,0,0,1,3.609.313,25.09,25.09,0,0,1,4.433,1.457s-4.64,0-6.908.1-5.671.624-5.671,0.624l1.65-2.393h1.237a8.463,8.463,0,0,0,1.237-.105,12.559,12.559,0,0,0-1.546-3.226,15.494,15.494,0,0,0-5.774-5.412c-2.784-1.561-5.156-2.082-9.486-1.874s-6.392.521-8.97,0.833-5.877.937-8.145-.1-4.021-1.978-4.743-3.643a7.079,7.079,0,0,1-.722-2.394h0Zm22.065-4.163-0.928-1.041a21.55,21.55,0,0,0,5.052-4.163c2.268-2.6,4.021-4.059,5.258-7.493a18.4,18.4,0,0,0,1.031-7.911,16.134,16.134,0,0,1,1.238-6.036,3.116,3.116,0,0,1,1.443-1.873s-1.547,1.873-1.856,6.036,0.1,3.955-.619,6.869-1.134,5.724-3.5,8.743a32.227,32.227,0,0,1-5.465,5.724c-1.031.729-1.649,1.145-1.649,1.145h0Zm15.342-30.582a0.8,0.8,0,0,1-.638.072,0.621,0.621,0,0,0-.532.286,0.823,0.823,0,0,0-.479.573c0.018,0.3.213,0.322,0.621,0.376a1.183,1.183,0,0,1,.727.2,1.329,1.329,0,0,0,.514.268,5.389,5.389,0,0,1,1.011.573,0.463,0.463,0,0,0,.727-0.036,0.909,0.909,0,0,0,.071-0.841,0.926,0.926,0,0,0-.532-0.5,1.373,1.373,0,0,1-.745-0.233c0-.161.071-0.34,0.39-0.268s0.532,0.143.6-.215a1.238,1.238,0,0,0,0-.949,0.661,0.661,0,0,0-.638-0.143,0.529,0.529,0,0,0-.621.179,2.988,2.988,0,0,1-.479.662h0Zm1.845-1.271a0.409,0.409,0,0,0,.407-0.3,1.994,1.994,0,0,0-.053-0.43c0.036-.143.178-0.554,0.036-0.43a0.453,0.453,0,0,1-.355.144,0.233,0.233,0,0,0-.248.286,0.973,0.973,0,0,1-.142.376,0.405,0.405,0,0,0,.355.358h0Zm-0.993.233a0.211,0.211,0,0,1,.194-0.322c0.249,0,.231.143,0.178,0.268a0.321,0.321,0,0,1-.372.054h0Zm-0.676,3.623s-1.714,1.013-1.405,5.114a29.551,29.551,0,0,0,1.559,8.416,17.133,17.133,0,0,1,.721,2.29,9.426,9.426,0,0,0-2.978.657,8.534,8.534,0,0,0-3.852,3.417,10.8,10.8,0,0,0-1.985,6.521,8.9,8.9,0,0,0,2.335,6.089,5.56,5.56,0,0,0,4.942,1.257,9.251,9.251,0,0,0,4.32-2.828A23.593,23.593,0,0,0,604.8,279.9a20.376,20.376,0,0,1,1.011,3.1c0.312,1.454.818,3.889,1.129,5.421a41.882,41.882,0,0,1,.7,5.382c0.039,1.257-.194,4.243-0.194,4.243a24.863,24.863,0,0,0,.544-6.089,61.513,61.513,0,0,0-1.322-9.624c-0.662-3.025-1.09-4.44-1.09-4.44a15.836,15.836,0,0,0,.583-3.928,8.2,8.2,0,0,0-1.79-5.185,5.373,5.373,0,0,0-2.257-1.729,56.6,56.6,0,0,1-2.412-7.856,20.475,20.475,0,0,1-.584-5.735,9.784,9.784,0,0,1,.507-2.571h0ZM595.5,269.611a6.636,6.636,0,0,1,4.2-.511,5.852,5.852,0,0,1,4.241,4.2,12.7,12.7,0,0,1-.311,5.893,5.218,5.218,0,0,1-2.218,3.064c-0.895.55-3.619,0.353-4.826-.471a7.221,7.221,0,0,1-2.918-4.754,12.254,12.254,0,0,1,.934-5.813,14.587,14.587,0,0,1,.895-1.611h0Zm-6.237.916A9.4,9.4,0,0,0,587.041,269a5.48,5.48,0,0,0-3.471-.2,3.714,3.714,0,0,0-1.954,1.258,17.386,17.386,0,0,0-1.045,3.13c-0.1.851-.506,4.32,0.371,5.851A5.832,5.832,0,0,0,585.9,282.3a4.733,4.733,0,0,0,4.314-1.5,5.77,5.77,0,0,1-2.865,3.164c-2.291,1.191-4.92.782-6.032-.374a8.612,8.612,0,0,1-2.493-6.294c0-3.232.977-6.293,2.426-7.926s2.932-2.79,5.19-2.823a5.607,5.607,0,0,1,4.145,1.428c0.808,0.68.64,0.783,0.64,0.783l-1.955,1.769h0Zm19.679,13.516-1.287.334s0.457-3.349.664-5.318,0.456-7.411.5-8.626a9.263,9.263,0,0,0-.166-2.554,2.832,2.832,0,0,0-.539-0.754l2.406-.5s2.447,4.522,3.443,6.323,2.738,4.857,3.153,5.485,0.829,0.712.954-.293,0.7-8.794.746-9.631,0.083-1.675.083-1.675l1.286-.042s-0.581,6.449-.788,8.668-0.415,6.993-.415,7.537-0.083,1.257-.083,1.257l-1.369.167s-2.24-4.606-3.111-6.113-3.319-5.737-3.65-6.324-0.872-.837-0.954.377-0.083,3.937-.291,5.905-0.58,5.779-.58,5.779h0Zm23.289-13.679a13.736,13.736,0,0,0-2.426-1.49,5.734,5.734,0,0,0-3.552-.082,3.188,3.188,0,0,0-1.833,1.381,16.045,16.045,0,0,0-1,3.007c-0.1.851-.264,4.32,0.613,5.851a5.866,5.866,0,0,0,4.913,3.225A5.311,5.311,0,0,0,633.3,280.8a15.555,15.555,0,0,1-3.672,3.327,4.692,4.692,0,0,1-5.3-.619,8.885,8.885,0,0,1-2.7-6.538,11.257,11.257,0,0,1,2.467-7.478c1.449-1.633,2.932-3.034,5.189-3.068a4.868,4.868,0,0,1,3.863,1.348c0.809,0.68.64,0.782,0.64,0.782l-1.551,1.81h0Zm5.5-1.6c1.615-1.345,4.238-2.771,6.781-2s3.834,2.771,4.238,5.378a13.832,13.832,0,0,1-2.22,8.963c-1.655,2.119-4.157,4.2-7.426,3.259s-4.924-4.929-4.561-8.188,1.574-6.071,3.188-7.415h0Zm0.848,0.529a4.213,4.213,0,0,1,3.431-.529,5.058,5.058,0,0,1,3.511,2.159,8.154,8.154,0,0,1,1.292,5.907,11.96,11.96,0,0,1-1.454,4.36c-0.686,1.018-2.341,1.14-3.107,1.14a5.233,5.233,0,0,1-4.4-2.037,7.942,7.942,0,0,1-1.493-5.907c0.323-1.834,1.292-4.441,2.22-5.093h0Zm13.157-2.974,2.543-.081s-0.565,4.929-.767,7.5-0.2,4.278-.242,5.378a2.984,2.984,0,0,0,1.614,2.811c1.171,0.651,2.785,0,3.633-.815s1.008-2.2,1.17-4.033,0.807-10.715.807-10.715l2.5-.122-1.372,17.6-2.542.326,0.2-2.445a8.276,8.276,0,0,1-3.188,1.956c-2.139.774-3.229,0.774-4.561-.367s-0.928-3.585-.847-4.767,0.242-4.644.484-7.129,0.565-5.093.565-5.093h0Zm13.642-.2-1.292,17.966,2.5-.407,0.565-7.9s2.785,3.911,3.391,4.766,2.058,3.5,2.058,3.5l2.5-1.06s-0.242.081-.888-0.937-3.874-6.682-3.874-6.682,2.744-1.3,3.632-3.259,0.807-4.522-1.089-5.418a9.649,9.649,0,0,0-4.682-.611c-0.888,0-2.906.041-2.825,0.041h0Zm1.9,8.718,0.484-7.374a7.031,7.031,0,0,1,2.381.2,3.337,3.337,0,0,1,2.139,3.177,3.532,3.532,0,0,1-1.453,2.975,0.708,0.708,0,0,1-.605.244l-0.807-.285-2.139,1.059h0Zm11.017-7.252c1.09-1.059,2.624-2.037,3.875-1.711a3.778,3.778,0,0,1,2.664,1.752l0.363,0.855-2.179,1.345s-0.888-2.119-2.3-2.241a2.109,2.109,0,0,0-2.381,2.241c-0.081,1.466,1.291,2.811,2.946,3.87s2.7,1.63,2.987,2.811a7.72,7.72,0,0,1-.525,3.83,8.435,8.435,0,0,1-3.188,3.463,3.49,3.49,0,0,1-3.35-.285,7.318,7.318,0,0,1-1.776-2.4l2.462-1.1s0.928,2.281,2.381,2.241a2.061,2.061,0,0,0,2.018-2.2,2.656,2.656,0,0,0-1.049-2.73c-1.13-.815-2.462-1.548-3.39-2.363a4.5,4.5,0,0,1-1.171-4.644,5.714,5.714,0,0,1,1.614-2.73h0Zm11.281-4.074A1.487,1.487,0,1,1,688.1,265a1.483,1.483,0,0,1,1.473-1.487h0Zm-0.5,2.2v-1.52h0.406a1.312,1.312,0,0,1,.255.017,0.4,0.4,0,0,1,.143.058,0.359,0.359,0,0,1,.119.142,0.444,0.444,0,0,1,.043.2,0.344,0.344,0,0,1-.119.284,0.537,0.537,0,0,1-.348.1h-0.037l0.661,0.725h-0.261l-0.632-.725h-0.029v0.725h-0.2Zm0.2-1.367v0.508h0.157a0.649,0.649,0,0,0,.323-0.054,0.212,0.212,0,0,0,.082-0.191,0.233,0.233,0,0,0-.084-0.205,0.61,0.61,0,0,0-.321-0.058h-0.157Zm-58.958,15.433a5.378,5.378,0,0,0-4.48-.294c-2.5.94-3.315,3.113-4.071,4.405s-1.8,4.228-3.084,6.929a33.548,33.548,0,0,1-3.083,5.461c-0.989,1.409-2.036,2.7-2.036,2.7a5.988,5.988,0,0,1,3.84.176,3.713,3.713,0,0,1,2.152,2.114,23.443,23.443,0,0,1,2.734-2.349,12,12,0,0,1,2.734-1.35s0.349,1.174,2.967,1.761a7.969,7.969,0,0,0,5.584-.822,8.094,8.094,0,0,0,2.386-1.35c0.523-.47.7-0.118,0.7,0.646a22.338,22.338,0,0,1-.873,4.7,8.047,8.047,0,0,1-1.862,3.289,2.739,2.739,0,0,1-.872.587,4.483,4.483,0,0,0,3.374-.763,6.741,6.741,0,0,0,2.734-4.17c0.291-1.35.407-1.938,0.407-1.938a9.176,9.176,0,0,0,3.374-.88,7.1,7.1,0,0,0,2.967-2.643,0.632,0.632,0,0,1,1.105.118,12.431,12.431,0,0,1,0,3c0,0.41.174,0.763,1.047,0.469s1.8-.646,3.2-1,2.617-.763,2.617-0.763,0.059,0.645.059,1.232-0.059,1.116,1.105.47a48.5,48.5,0,0,1,4.6-2.348c1.222-.47,1.8-0.7,1.8-0.7s-0.233,2.525,1.105,3.171a5.731,5.731,0,0,0,4.189,0,19.283,19.283,0,0,0,2.792-1.116,10.619,10.619,0,0,0,5.526,1.879c3.083,0.059,4.945-.176,9.889-1.879s5.585-2.877,5.585-2.877a39.81,39.81,0,0,1-3.839,1.527,23.987,23.987,0,0,1-7.388.763,10.4,10.4,0,0,1-3.9-1s1.571-1.116,1.513-2.349-1.338-2.114-4.014-.94-2.676,2.173-3.025,2.584-0.175,1.116-.873,1.527-1.978.646-2.152-.294a9.414,9.414,0,0,1,.058-2.583c0.058-.764-0.174-2.114-1.571-1.527s-3.665,1.468-4.654,1.937-0.988-.058-0.756-0.88,0.815-2.114-1.047-1.468-5.526,1.7-5.526,1.7l-0.058.763h0.523l0.117,1.292s-1.28.7-2.037,0.117-0.523-1.644-.348-2.525,0.348-1.468.348-1.468-1.163.646-2.617,1.292a14,14,0,0,1-3.374.881,2.123,2.123,0,0,0-2.385-1.233,6.472,6.472,0,0,0-2.734.646c-0.233.117-.524,0.235-0.524,0.235a1.908,1.908,0,0,0-1.338-1.762c-1.28-.294-1.28-0.176-1.28-0.176a6.358,6.358,0,0,1-1.861,2.7c-1.163.763-1.513,1.468-3.141,1.468s-1.571-.411-1.571-0.411,1.862-1.938,1.28-2.877-2.036-1.233-4.014-.294a5.965,5.965,0,0,0-2.792,2.29l-0.349.529a15.467,15.467,0,0,1-2.909.176,8.074,8.074,0,0,1-3.025-.822s1.4-3.582,2.211-5.872,1.615-5.389,3.283-7.47a5.6,5.6,0,0,1,4.251-2.22,8.874,8.874,0,0,1,1.308-.117h0Zm-0.582,13.8c0.523-.059.058,1.761-0.582,1.585s0.058-1.527.582-1.585h0Zm10.471,2.29s1.687-.411,1.629.411a1.771,1.771,0,0,1-1.28,1.409,2.29,2.29,0,0,1-.582.176s0.059-.587.117-1.116,0.116-.88.116-0.88h0Zm33.624-1.821c0.523-.058.058,1.762-0.582,1.586s0.058-1.527.582-1.586h0Zm-25.887-1.468,0.756-1.585s0.582-.294,1.629-0.763,2.094-1.057,2.094-1.057l-0.349,1.585a11.323,11.323,0,0,1-2.036,1.175,6.759,6.759,0,0,1-2.094.645h0Zm-18.441-2a2.557,2.557,0,0,0,2.618-.059c1.513-.822,1.862-3.053,1.862-3.053a26.641,26.641,0,0,1-2.5,2.114,19.064,19.064,0,0,1-1.978,1h0Z" transform="translate(-118 -91.156)"/>
  </g>
</svg>
