<?xml version="1.0" encoding="utf-8"?>
<!-- Generator: Adobe Illustrator 24.0.2, SVG Export Plug-In . SVG Version: 6.00 Build 0)  -->
<svg version="1.1" id="bloc-marque" xmlns="http://www.w3.org/2000/svg" xmlns:xlink="http://www.w3.org/1999/xlink" x="0px"
	 y="0px" viewBox="0 0 322 128.92" style="enable-background:new 0 0 322 128.92;" xml:space="preserve">
<style type="text/css">
	.st0{clip-path:url(#SVGID_2_);fill:#ED3024;}
	.st1{clip-path:url(#SVGID_2_);fill:#FFFFFF;}
	.st2{clip-path:url(#SVGID_2_);fill:none;stroke:#FFFFFF;stroke-width:0.751;stroke-linejoin:round;stroke-miterlimit:7.903;}
	.st3{fill-rule:evenodd;clip-rule:evenodd;fill:#FFFFFF;}
	.st4{fill:none;stroke:#FFFFFF;stroke-width:0.118;stroke-miterlimit:2.613;}
	.st5{fill:none;stroke:#FFFFFF;stroke-width:0.544;stroke-miterlimit:2.613;}
</style>
<g>
	<g>
		<defs>
			<rect id="SVGID_1_" x="193" y="0.5" width="129" height="129"/>
		</defs>
		<clipPath id="SVGID_2_">
			<use xlink:href="#SVGID_1_"  style="overflow:visible;"/>
		</clipPath>
		<path class="st0" d="M257.5,129.5c35.62,0,64.5-28.88,64.5-64.5c0-35.62-28.88-64.5-64.5-64.5S193,29.37,193,65
			C193,100.62,221.88,129.5,257.5,129.5"/>
		<path class="st1" d="M277.58,32.97h3.51v-0.25h-3.24v-2.55h2.51v-0.24h-2.51V27.6h3.16v-0.25h-3.43V32.97z M273.51,32.97h0.25
			l1.95-5.62h-0.27l-1.8,5.23l-1.8-5.23h-0.27L273.51,32.97z M269.4,32.97h0.26v-5.62h-0.26V32.97z M263.34,31.26
			c0.04,0.57,0.23,1.02,0.56,1.34c0.34,0.33,0.79,0.49,1.35,0.49c0.54,0,0.98-0.13,1.31-0.39c0.37-0.29,0.55-0.7,0.55-1.22
			c0-0.47-0.2-0.83-0.59-1.09c-0.23-0.14-0.63-0.29-1.23-0.45c-0.05-0.02-0.09-0.02-0.11-0.03c-0.58-0.15-0.95-0.3-1.11-0.45
			c-0.23-0.21-0.34-0.47-0.34-0.76c0-0.41,0.14-0.72,0.41-0.94c0.26-0.21,0.59-0.31,1.01-0.31c0.45,0,0.82,0.13,1.1,0.37
			c0.3,0.26,0.45,0.62,0.46,1.06h0.25c-0.02-0.52-0.2-0.93-0.53-1.22c-0.32-0.29-0.74-0.43-1.27-0.43c-0.49,0-0.88,0.12-1.19,0.37
			c-0.34,0.26-0.5,0.62-0.5,1.1c0,0.38,0.13,0.69,0.4,0.93c0.18,0.16,0.59,0.33,1.23,0.51c0.05,0.02,0.09,0.02,0.1,0.03
			c0.57,0.16,0.95,0.29,1.12,0.41c0.35,0.22,0.52,0.55,0.52,0.98c0,0.41-0.16,0.74-0.5,0.98c-0.29,0.22-0.66,0.33-1.09,0.33
			c-0.99,0-1.6-0.63-1.66-1.6H263.34z M257.1,27.35v3.66c0,0.66,0.17,1.16,0.52,1.52c0.35,0.37,0.85,0.55,1.5,0.55
			c0.64,0,1.14-0.19,1.5-0.55c0.35-0.37,0.52-0.88,0.52-1.52v-3.66h-0.26v3.53c0,0.62-0.14,1.09-0.41,1.43
			c-0.3,0.37-0.75,0.55-1.35,0.55c-1.18,0-1.77-0.66-1.77-1.98v-3.53H257.1z M251.92,32.97h3.24v-0.25h-2.98v-5.37h-0.27V32.97z
			 M249.53,31.62l-0.23-0.12c-0.09,0.37-0.27,0.67-0.54,0.91c-0.35,0.3-0.8,0.45-1.37,0.45c-0.7,0-1.23-0.29-1.58-0.86
			c-0.3-0.48-0.45-1.09-0.45-1.83c0-0.74,0.16-1.36,0.46-1.84c0.37-0.58,0.9-0.87,1.6-0.87c0.95,0,1.55,0.38,1.8,1.16l0.24-0.12
			c-0.12-0.32-0.31-0.59-0.59-0.8c-0.38-0.3-0.86-0.46-1.41-0.46c-0.81,0-1.43,0.3-1.84,0.89c-0.36,0.52-0.54,1.2-0.54,2.05
			c0,0.84,0.17,1.52,0.52,2.02c0.41,0.59,1.01,0.88,1.81,0.88c0.62,0,1.13-0.17,1.52-0.51C249.24,32.32,249.43,32,249.53,31.62
			 M239.32,32.97h0.29l1.76-2.65l1.78,2.65h0.3l-1.91-2.88l1.8-2.73h-0.29l-1.66,2.52l-1.67-2.52h-0.3l1.82,2.74L239.32,32.97z
			 M234.27,32.97h3.51v-0.25h-3.24v-2.55h2.51v-0.24h-2.51V27.6h3.16v-0.25h-3.43V32.97z"/>
		<path class="st2" d="M277.58,32.97h3.51v-0.25h-3.24v-2.55h2.51v-0.24h-2.51V27.6h3.16v-0.25h-3.43V32.97z M273.51,32.97h0.25
			l1.95-5.62h-0.27l-1.8,5.23l-1.8-5.23h-0.27L273.51,32.97z M269.4,32.97h0.26v-5.62h-0.26V32.97z M263.34,31.26
			c0.04,0.57,0.23,1.02,0.56,1.34c0.34,0.33,0.79,0.49,1.35,0.49c0.54,0,0.98-0.13,1.31-0.39c0.37-0.29,0.55-0.7,0.55-1.22
			c0-0.47-0.2-0.83-0.59-1.09c-0.23-0.14-0.63-0.29-1.23-0.45c-0.05-0.02-0.09-0.02-0.11-0.03c-0.58-0.15-0.95-0.3-1.11-0.45
			c-0.23-0.21-0.34-0.47-0.34-0.76c0-0.41,0.14-0.72,0.41-0.94c0.26-0.21,0.59-0.31,1.01-0.31c0.45,0,0.82,0.13,1.1,0.37
			c0.3,0.26,0.45,0.62,0.46,1.06h0.25c-0.02-0.52-0.2-0.93-0.53-1.22c-0.32-0.29-0.74-0.43-1.27-0.43c-0.49,0-0.88,0.12-1.19,0.37
			c-0.34,0.26-0.5,0.62-0.5,1.1c0,0.38,0.13,0.69,0.4,0.93c0.18,0.16,0.59,0.33,1.23,0.51c0.05,0.02,0.09,0.02,0.1,0.03
			c0.57,0.16,0.95,0.29,1.12,0.41c0.35,0.22,0.52,0.55,0.52,0.98c0,0.41-0.16,0.74-0.5,0.98c-0.29,0.22-0.66,0.33-1.09,0.33
			c-0.99,0-1.6-0.63-1.66-1.6H263.34z M257.1,27.35v3.66c0,0.66,0.17,1.16,0.52,1.52c0.35,0.37,0.85,0.55,1.5,0.55
			c0.64,0,1.14-0.19,1.5-0.55c0.35-0.37,0.52-0.88,0.52-1.52v-3.66h-0.26v3.53c0,0.62-0.14,1.09-0.41,1.43
			c-0.3,0.37-0.75,0.55-1.35,0.55c-1.18,0-1.77-0.66-1.77-1.98v-3.53H257.1z M251.92,32.97h3.24v-0.25h-2.98v-5.37h-0.27V32.97z
			 M249.53,31.62l-0.23-0.12c-0.09,0.37-0.27,0.67-0.54,0.91c-0.35,0.3-0.8,0.45-1.37,0.45c-0.7,0-1.23-0.29-1.58-0.86
			c-0.3-0.48-0.45-1.09-0.45-1.83c0-0.74,0.16-1.36,0.46-1.84c0.37-0.58,0.9-0.87,1.6-0.87c0.95,0,1.55,0.38,1.8,1.16l0.24-0.12
			c-0.12-0.32-0.31-0.59-0.59-0.8c-0.38-0.3-0.86-0.46-1.41-0.46c-0.81,0-1.43,0.3-1.84,0.89c-0.36,0.52-0.54,1.2-0.54,2.05
			c0,0.84,0.17,1.52,0.52,2.02c0.41,0.59,1.01,0.88,1.81,0.88c0.62,0,1.13-0.17,1.52-0.51C249.24,32.32,249.43,32,249.53,31.62z
			 M239.32,32.97h0.29l1.76-2.65l1.78,2.65h0.3l-1.91-2.88l1.8-2.73h-0.29l-1.66,2.52l-1.67-2.52h-0.3l1.82,2.74L239.32,32.97z
			 M234.27,32.97h3.51v-0.25h-3.24v-2.55h2.51v-0.24h-2.51V27.6h3.16v-0.25h-3.43V32.97z"/>
		<path class="st1" d="M276.97,22.15h3.51V21.9h-3.24v-2.55h2.51v-0.24h-2.51v-2.32h3.16v-0.25h-3.43V22.15z M274.58,20.8
			l-0.23-0.12c-0.09,0.37-0.27,0.67-0.54,0.91c-0.35,0.3-0.8,0.45-1.37,0.45c-0.7,0-1.23-0.29-1.58-0.86
			c-0.3-0.48-0.45-1.09-0.45-1.83c0-0.74,0.16-1.36,0.46-1.84c0.37-0.58,0.9-0.87,1.6-0.87c0.95,0,1.55,0.38,1.8,1.16l0.24-0.13
			c-0.12-0.32-0.31-0.59-0.59-0.8c-0.38-0.3-0.86-0.46-1.41-0.46c-0.81,0-1.43,0.3-1.84,0.89c-0.36,0.52-0.54,1.2-0.54,2.05
			c0,0.84,0.17,1.52,0.52,2.02c0.41,0.59,1.01,0.88,1.81,0.88c0.62,0,1.13-0.17,1.52-0.51C274.3,21.5,274.48,21.19,274.58,20.8
			 M263.82,22.15h0.26v-5.16l3.53,5.16h0.26v-5.62h-0.26v5.17l-3.52-5.17h-0.27V22.15z M258.14,22.15h3.51V21.9h-3.24v-2.55h2.51
			v-0.24h-2.51v-2.32h3.16v-0.25h-3.43V22.15z M252.13,20.44c0.04,0.57,0.23,1.02,0.56,1.34c0.34,0.33,0.79,0.49,1.35,0.49
			c0.54,0,0.98-0.13,1.31-0.39c0.37-0.29,0.55-0.7,0.55-1.22c0-0.47-0.2-0.83-0.59-1.09c-0.23-0.14-0.63-0.29-1.23-0.45
			c-0.05-0.02-0.09-0.02-0.11-0.03c-0.58-0.15-0.95-0.3-1.11-0.45c-0.23-0.21-0.34-0.47-0.34-0.76c0-0.41,0.14-0.72,0.41-0.94
			c0.26-0.21,0.59-0.31,1.01-0.31c0.45,0,0.82,0.13,1.1,0.37c0.3,0.26,0.45,0.62,0.46,1.06h0.25c-0.02-0.52-0.2-0.93-0.53-1.22
			c-0.32-0.29-0.74-0.43-1.27-0.43c-0.49,0-0.88,0.13-1.19,0.37c-0.34,0.26-0.5,0.62-0.5,1.1c0,0.38,0.13,0.69,0.4,0.93
			c0.18,0.16,0.59,0.33,1.23,0.51c0.05,0.02,0.09,0.02,0.1,0.03c0.57,0.16,0.95,0.29,1.12,0.41c0.35,0.22,0.52,0.55,0.52,0.98
			c0,0.41-0.16,0.74-0.5,0.98c-0.29,0.22-0.66,0.33-1.09,0.33c-0.99,0-1.6-0.62-1.66-1.6H252.13z M246.74,22.15h3.51V21.9H247v-2.55
			h2.51v-0.24H247v-2.32h3.16v-0.25h-3.43V22.15z M248.06,15.99h0.42l0.79-1.25h-0.41L248.06,15.99z M240.89,19.26v-2.48h1.6
			c0.32,0,0.56,0.02,0.71,0.04c0.63,0.12,0.95,0.52,0.95,1.21c0,0.82-0.51,1.23-1.52,1.23H240.89z M242.59,19.5
			c0.4,0,0.68,0.05,0.86,0.14c0.23,0.12,0.38,0.35,0.44,0.7c0.01,0.08,0.02,0.27,0.02,0.56v1.26h0.3l-0.01-1.07
			c0-0.45,0-0.69-0.01-0.73c-0.05-0.55-0.32-0.87-0.79-0.97c0.68-0.21,1.02-0.67,1.02-1.38c0-0.57-0.19-0.98-0.55-1.2
			c-0.3-0.18-0.75-0.27-1.37-0.27h-1.87v5.62h0.27V19.5H242.59z M236.23,16.77c0.41,0,0.71,0.02,0.9,0.05
			c0.7,0.11,1.04,0.5,1.04,1.18c0,0.6-0.21,0.99-0.64,1.18c-0.23,0.1-0.66,0.15-1.3,0.15h-1.07v-2.55H236.23z M236.42,16.54h-1.53
			v5.62h0.27v-2.59h1.24c0.38,0,0.67-0.02,0.87-0.05c0.32-0.06,0.57-0.19,0.76-0.37c0.28-0.29,0.42-0.66,0.42-1.11
			C238.44,17.03,237.77,16.54,236.42,16.54"/>
		<path class="st2" d="M276.97,22.15h3.51V21.9h-3.24v-2.55h2.51v-0.24h-2.51v-2.32h3.16v-0.25h-3.43V22.15z M274.58,20.8
			l-0.23-0.12c-0.09,0.37-0.27,0.67-0.54,0.91c-0.35,0.3-0.8,0.45-1.37,0.45c-0.7,0-1.23-0.29-1.58-0.86
			c-0.3-0.48-0.45-1.09-0.45-1.83c0-0.74,0.16-1.36,0.46-1.84c0.37-0.58,0.9-0.87,1.6-0.87c0.95,0,1.55,0.38,1.8,1.16l0.24-0.13
			c-0.12-0.32-0.31-0.59-0.59-0.8c-0.38-0.3-0.86-0.46-1.41-0.46c-0.81,0-1.43,0.3-1.84,0.89c-0.36,0.52-0.54,1.2-0.54,2.05
			c0,0.84,0.17,1.52,0.52,2.02c0.41,0.59,1.01,0.88,1.81,0.88c0.62,0,1.13-0.17,1.52-0.51C274.3,21.5,274.48,21.19,274.58,20.8z
			 M263.82,22.15h0.26v-5.16l3.53,5.16h0.26v-5.62h-0.26v5.17l-3.52-5.17h-0.27V22.15z M258.14,22.15h3.51V21.9h-3.24v-2.55h2.51
			v-0.24h-2.51v-2.32h3.16v-0.25h-3.43V22.15z M252.13,20.44c0.04,0.57,0.23,1.02,0.56,1.34c0.34,0.33,0.79,0.49,1.35,0.49
			c0.54,0,0.98-0.13,1.31-0.39c0.37-0.29,0.55-0.7,0.55-1.22c0-0.47-0.2-0.83-0.59-1.09c-0.23-0.14-0.63-0.29-1.23-0.45
			c-0.05-0.02-0.09-0.02-0.11-0.03c-0.58-0.15-0.95-0.3-1.11-0.45c-0.23-0.21-0.34-0.47-0.34-0.76c0-0.41,0.14-0.72,0.41-0.94
			c0.26-0.21,0.59-0.31,1.01-0.31c0.45,0,0.82,0.13,1.1,0.37c0.3,0.26,0.45,0.62,0.46,1.06h0.25c-0.02-0.52-0.2-0.93-0.53-1.22
			c-0.32-0.29-0.74-0.43-1.27-0.43c-0.49,0-0.88,0.13-1.19,0.37c-0.34,0.26-0.5,0.62-0.5,1.1c0,0.38,0.13,0.69,0.4,0.93
			c0.18,0.16,0.59,0.33,1.23,0.51c0.05,0.02,0.09,0.02,0.1,0.03c0.57,0.16,0.95,0.29,1.12,0.41c0.35,0.22,0.52,0.55,0.52,0.98
			c0,0.41-0.16,0.74-0.5,0.98c-0.29,0.22-0.66,0.33-1.09,0.33c-0.99,0-1.6-0.62-1.66-1.6H252.13z M246.74,22.15h3.51V21.9H247v-2.55
			h2.51v-0.24H247v-2.32h3.16v-0.25h-3.43V22.15z M248.06,15.99h0.42l0.79-1.25h-0.41L248.06,15.99z M240.89,19.26v-2.48h1.6
			c0.32,0,0.56,0.02,0.71,0.04c0.63,0.12,0.95,0.52,0.95,1.21c0,0.82-0.51,1.23-1.52,1.23H240.89z M242.59,19.5
			c0.4,0,0.68,0.05,0.86,0.14c0.23,0.12,0.38,0.35,0.44,0.7c0.01,0.08,0.02,0.27,0.02,0.56v1.26h0.3l-0.01-1.07
			c0-0.45,0-0.69-0.01-0.73c-0.05-0.55-0.32-0.87-0.79-0.97c0.68-0.21,1.02-0.67,1.02-1.38c0-0.57-0.19-0.98-0.55-1.2
			c-0.3-0.18-0.75-0.27-1.37-0.27h-1.87v5.62h0.27V19.5H242.59z M236.23,16.77c0.41,0,0.71,0.02,0.9,0.05
			c0.7,0.11,1.04,0.5,1.04,1.18c0,0.6-0.21,0.99-0.64,1.18c-0.23,0.1-0.66,0.15-1.3,0.15h-1.07v-2.55H236.23z M236.42,16.54h-1.53
			v5.62h0.27v-2.59h1.24c0.38,0,0.67-0.02,0.87-0.05c0.32-0.06,0.57-0.19,0.76-0.37c0.28-0.29,0.42-0.66,0.42-1.11
			C238.44,17.03,237.77,16.54,236.42,16.54z"/>
	</g>
	<g>
		<path class="st3" d="M202.49,78.35c0,0,3.07-0.18,5.23-0.72c2.17-0.54,6.32-2.08,6.32-2.08l0.54,1.35c0,0-2.44,1.26-5.68,1.8
			c-3.25,0.54-4.51,0.18-5.14,0.09C203.12,78.72,202.49,78.35,202.49,78.35"/>
		<path class="st4" d="M202.49,78.35c0,0,3.07-0.18,5.23-0.72c2.17-0.54,6.32-2.08,6.32-2.08l0.54,1.35c0,0-2.44,1.26-5.68,1.8
			c-3.25,0.54-4.51,0.18-5.14,0.09C203.12,78.72,202.49,78.35,202.49,78.35z"/>
		<path class="st3" d="M200.87,77.45c0,0,1.62,1.99,3.43,2.8c1.8,0.81,3.16,0.81,3.16,0.81s-0.45,0.18-1.08,0.27l-0.63,0.09
			c0,0,1.62,0.54,3.43,0.27c1.8-0.27,6.59-1.08,9.29-1.44c2.71-0.36,7.58-0.27,10.74,1.8s4.15,3.34,5.32,5.5
			c1.17,2.17,1.17,3.61,1.17,3.61s1.08-0.18,3.16,0.27c2.08,0.45,3.88,1.26,3.88,1.26s-4.06,0-6.04,0.09
			c-1.99,0.09-4.96,0.54-4.96,0.54l1.44-2.07h1.08c0.54,0,1.08-0.09,1.08-0.09s-0.27-1.08-1.35-2.8c-1.08-1.71-2.62-3.34-5.05-4.69
			c-2.44-1.35-4.51-1.8-8.3-1.62c-3.79,0.18-5.59,0.45-7.85,0.72c-2.26,0.27-5.14,0.81-7.13-0.09c-1.99-0.9-3.52-1.71-4.15-3.16
			C200.87,78.08,200.87,77.45,200.87,77.45"/>
		<path class="st4" d="M200.87,77.45c0,0,1.62,1.99,3.43,2.8c1.8,0.81,3.16,0.81,3.16,0.81s-0.45,0.18-1.08,0.27l-0.63,0.09
			c0,0,1.62,0.54,3.43,0.27c1.8-0.27,6.59-1.08,9.29-1.44c2.71-0.36,7.58-0.27,10.74,1.8s4.15,3.34,5.32,5.5
			c1.17,2.17,1.17,3.61,1.17,3.61s1.08-0.18,3.16,0.27c2.08,0.45,3.88,1.26,3.88,1.26s-4.06,0-6.04,0.09
			c-1.99,0.09-4.96,0.54-4.96,0.54l1.44-2.07h1.08c0.54,0,1.08-0.09,1.08-0.09s-0.27-1.08-1.35-2.8c-1.08-1.71-2.62-3.34-5.05-4.69
			c-2.44-1.35-4.51-1.8-8.3-1.62c-3.79,0.18-5.59,0.45-7.85,0.72c-2.26,0.27-5.14,0.81-7.13-0.09c-1.99-0.9-3.52-1.71-4.15-3.16
			C200.87,78.08,200.87,77.45,200.87,77.45z"/>
		<path class="st3" d="M220.17,73.84l-0.81-0.9c0,0,2.44-1.35,4.42-3.61c1.99-2.26,3.52-3.52,4.6-6.5c1.08-2.98,0.99-5.14,0.9-6.86
			c-0.09-1.71,0.54-3.88,1.08-5.23c0.54-1.35,1.26-1.62,1.26-1.62s-1.35,1.62-1.62,5.23c-0.27,3.61,0.09,3.43-0.54,5.95
			c-0.63,2.53-0.99,4.96-3.07,7.58c-2.08,2.62-3.88,4.33-4.78,4.96C220.71,73.48,220.17,73.84,220.17,73.84"/>
		<path class="st4" d="M220.17,73.84l-0.81-0.9c0,0,2.44-1.35,4.42-3.61c1.99-2.26,3.52-3.52,4.6-6.5c1.08-2.98,0.99-5.14,0.9-6.86
			c-0.09-1.71,0.54-3.88,1.08-5.23c0.54-1.35,1.26-1.62,1.26-1.62s-1.35,1.62-1.62,5.23c-0.27,3.61,0.09,3.43-0.54,5.95
			c-0.63,2.53-0.99,4.96-3.07,7.58c-2.08,2.62-3.88,4.33-4.78,4.96C220.71,73.48,220.17,73.84,220.17,73.84z"/>
		<path class="st3" d="M233.6,47.33c-0.19,0.16-0.36,0.06-0.56,0.06c-0.2,0-0.26,0.05-0.47,0.25c-0.2,0.2-0.43,0.23-0.42,0.5
			c0.02,0.26,0.19,0.28,0.54,0.33c0.36,0.05,0.51,0.05,0.64,0.17c0.12,0.12,0.17,0.11,0.45,0.23c0.28,0.12,0.7,0.34,0.88,0.5
			c0.19,0.16,0.53,0.22,0.64-0.03c0.11-0.25,0.2-0.56,0.06-0.73c-0.14-0.17-0.12-0.31-0.47-0.43c-0.34-0.12-0.65-0.06-0.65-0.2
			c0-0.14,0.06-0.29,0.34-0.23c0.28,0.06,0.47,0.12,0.53-0.19c0.06-0.31,0.16-0.64,0-0.82c-0.15-0.19-0.26-0.11-0.56-0.12
			c-0.29-0.02-0.4-0.05-0.54,0.16C233.88,46.96,233.79,47.18,233.6,47.33"/>
		<path class="st4" d="M233.6,47.33c-0.19,0.16-0.36,0.06-0.56,0.06c-0.2,0-0.26,0.05-0.47,0.25c-0.2,0.2-0.43,0.23-0.42,0.5
			c0.02,0.26,0.19,0.28,0.54,0.33c0.36,0.05,0.51,0.05,0.64,0.17c0.12,0.12,0.17,0.11,0.45,0.23c0.28,0.12,0.7,0.34,0.88,0.5
			c0.19,0.16,0.53,0.22,0.64-0.03c0.11-0.25,0.2-0.56,0.06-0.73c-0.14-0.17-0.12-0.31-0.47-0.43c-0.34-0.12-0.65-0.06-0.65-0.2
			c0-0.14,0.06-0.29,0.34-0.23c0.28,0.06,0.47,0.12,0.53-0.19c0.06-0.31,0.16-0.64,0-0.82c-0.15-0.19-0.26-0.11-0.56-0.12
			c-0.29-0.02-0.4-0.05-0.54,0.16C233.88,46.96,233.79,47.18,233.6,47.33z"/>
		<path class="st3" d="M235.21,46.23c0.22,0.05,0.29-0.17,0.36-0.26c0.06-0.09-0.08-0.25-0.05-0.37c0.03-0.12,0.16-0.48,0.03-0.37
			c-0.12,0.11-0.16,0.11-0.31,0.12c-0.16,0.02-0.26,0.12-0.22,0.25c0.05,0.12-0.12,0.22-0.12,0.33
			C234.9,46.03,235,46.18,235.21,46.23"/>
		<path class="st4" d="M235.21,46.23c0.22,0.05,0.29-0.17,0.36-0.26c0.06-0.09-0.08-0.25-0.05-0.37c0.03-0.12,0.16-0.48,0.03-0.37
			c-0.12,0.11-0.16,0.11-0.31,0.12c-0.16,0.02-0.26,0.12-0.22,0.25c0.05,0.12-0.12,0.22-0.12,0.33
			C234.9,46.03,235,46.18,235.21,46.23z"/>
		<path class="st3" d="M234.34,46.43c-0.06-0.03-0.05-0.28,0.17-0.28c0.22,0,0.2,0.12,0.16,0.23
			C234.62,46.49,234.41,46.46,234.34,46.43"/>
		<path class="st4" d="M234.34,46.43c-0.06-0.03-0.05-0.28,0.17-0.28c0.22,0,0.2,0.12,0.16,0.23
			C234.62,46.49,234.41,46.46,234.34,46.43z"/>
		<path class="st3" d="M233.75,49.57c0,0-1.5,0.88-1.23,4.43c0.27,3.55,0.55,4.77,1.36,7.3c0.81,2.53,0.63,1.99,0.63,1.99
			s-1.45,0.06-2.61,0.57c-1.16,0.51-2.32,1.33-3.37,2.96c-1.06,1.63-1.7,3-1.74,5.65c-0.03,2.66,1.36,4.6,2.04,5.28
			c0.68,0.68,2.38,1.53,4.32,1.09c1.94-0.44,3.34-2.01,3.78-2.45s1.33-1.67,1.33-1.67s0.61,1.43,0.89,2.69
			c0.27,1.26,0.71,3.37,0.99,4.7c0.27,1.33,0.58,3.58,0.61,4.67c0.03,1.09-0.17,3.68-0.17,3.68s0.61-2.59,0.48-5.28
			c-0.14-2.69-0.58-5.72-1.16-8.34c-0.58-2.62-0.95-3.85-0.95-3.85s0.51-1.7,0.51-3.41c0-1.7-0.58-3.3-1.57-4.49
			c-0.99-1.19-1.98-1.5-1.98-1.5s-1.57-3.98-2.11-6.81c-0.55-2.83-0.58-3.75-0.51-4.97C233.38,50.58,233.75,49.57,233.75,49.57
			 M230.14,65.8c0,0,1.8-0.92,3.68-0.44c1.87,0.48,3.27,1.91,3.71,3.64c0.44,1.74,0.07,3.85-0.27,5.11
			c-0.34,1.26-1.16,2.18-1.94,2.66c-0.78,0.48-3.17,0.31-4.22-0.41c-1.06-0.72-2.28-2.21-2.55-4.12c-0.27-1.91,0.44-4.26,0.82-5.04
			C229.73,66.41,230.14,65.8,230.14,65.8"/>
		<path class="st4" d="M233.75,49.57c0,0-1.5,0.88-1.23,4.43c0.27,3.55,0.55,4.77,1.36,7.3c0.81,2.53,0.63,1.99,0.63,1.99
			s-1.45,0.06-2.61,0.57c-1.16,0.51-2.32,1.33-3.37,2.96c-1.06,1.63-1.7,3-1.74,5.65c-0.03,2.66,1.36,4.6,2.04,5.28
			c0.68,0.68,2.38,1.53,4.32,1.09c1.94-0.44,3.34-2.01,3.78-2.45s1.33-1.67,1.33-1.67s0.61,1.43,0.89,2.69
			c0.27,1.26,0.71,3.37,0.99,4.7c0.27,1.33,0.58,3.58,0.61,4.67c0.03,1.09-0.17,3.68-0.17,3.68s0.61-2.59,0.48-5.28
			c-0.14-2.69-0.58-5.72-1.16-8.34c-0.58-2.62-0.95-3.85-0.95-3.85s0.51-1.7,0.51-3.41c0-1.7-0.58-3.3-1.57-4.49
			c-0.99-1.19-1.98-1.5-1.98-1.5s-1.57-3.98-2.11-6.81c-0.55-2.83-0.58-3.75-0.51-4.97C233.38,50.58,233.75,49.57,233.75,49.57z
			 M230.14,65.8c0,0,1.8-0.92,3.68-0.44c1.87,0.48,3.27,1.91,3.71,3.64c0.44,1.74,0.07,3.85-0.27,5.11
			c-0.34,1.26-1.16,2.18-1.94,2.66c-0.78,0.48-3.17,0.31-4.22-0.41c-1.06-0.72-2.28-2.21-2.55-4.12c-0.27-1.91,0.44-4.26,0.82-5.04
			C229.73,66.41,230.14,65.8,230.14,65.8z"/>
		<path class="st3" d="M224.68,66.59c0,0-1.06-0.97-1.95-1.33c-0.89-0.35-2.04-0.47-3.04-0.18s-1.62,0.91-1.71,1.09
			c-0.09,0.18-0.83,1.98-0.91,2.71c-0.09,0.74-0.44,3.74,0.32,5.07c0.77,1.33,1.77,2.54,4.33,2.83c2.57,0.3,3.77-1.3,3.77-1.3
			s-0.5,1.71-2.51,2.74c-2.01,1.03-4.31,0.68-5.28-0.32c-0.97-1-2.18-2.65-2.18-5.46c0-2.8,0.86-5.46,2.12-6.87
			c1.27-1.42,2.57-2.42,4.54-2.45c1.98-0.03,2.92,0.65,3.63,1.24c0.71,0.59,0.56,0.68,0.56,0.68L224.68,66.59z"/>
		<path class="st4" d="M224.68,66.59c0,0-1.06-0.97-1.95-1.33c-0.89-0.35-2.04-0.47-3.04-0.18s-1.62,0.91-1.71,1.09
			c-0.09,0.18-0.83,1.98-0.91,2.71c-0.09,0.74-0.44,3.74,0.32,5.07c0.77,1.33,1.77,2.54,4.33,2.83c2.57,0.3,3.77-1.3,3.77-1.3
			s-0.5,1.71-2.51,2.74c-2.01,1.03-4.31,0.68-5.28-0.32c-0.97-1-2.18-2.65-2.18-5.46c0-2.8,0.86-5.46,2.12-6.87
			c1.27-1.42,2.57-2.42,4.54-2.45c1.98-0.03,2.92,0.65,3.63,1.24c0.71,0.59,0.56,0.68,0.56,0.68L224.68,66.59z"/>
		<path class="st3" d="M241.9,78.31l-1.13,0.29c0,0,0.4-2.9,0.58-4.61c0.18-1.71,0.4-6.43,0.44-7.48c0.04-1.05-0.04-1.92-0.15-2.21
			c-0.11-0.29-0.47-0.65-0.47-0.65l2.11-0.44c0,0,2.14,3.92,3.01,5.48c0.87,1.56,2.4,4.21,2.76,4.76c0.36,0.54,0.73,0.62,0.83-0.25
			c0.11-0.87,0.62-7.62,0.65-8.35c0.04-0.73,0.07-1.45,0.07-1.45l1.12-0.04c0,0-0.51,5.59-0.69,7.51c-0.18,1.92-0.36,6.06-0.36,6.53
			s-0.07,1.09-0.07,1.09l-1.2,0.15c0,0-1.96-3.99-2.72-5.3c-0.76-1.31-2.9-4.97-3.19-5.48c-0.29-0.51-0.76-0.73-0.84,0.33
			c-0.07,1.05-0.07,3.41-0.25,5.12C242.23,75,241.9,78.31,241.9,78.31"/>
		<path class="st4" d="M241.9,78.31l-1.13,0.29c0,0,0.4-2.9,0.58-4.61c0.18-1.71,0.4-6.43,0.44-7.48c0.04-1.05-0.04-1.92-0.15-2.21
			c-0.11-0.29-0.47-0.65-0.47-0.65l2.11-0.44c0,0,2.14,3.92,3.01,5.48c0.87,1.56,2.4,4.21,2.76,4.76c0.36,0.54,0.73,0.62,0.83-0.25
			c0.11-0.87,0.62-7.62,0.65-8.35c0.04-0.73,0.07-1.45,0.07-1.45l1.12-0.04c0,0-0.51,5.59-0.69,7.51c-0.18,1.92-0.36,6.06-0.36,6.53
			s-0.07,1.09-0.07,1.09l-1.2,0.15c0,0-1.96-3.99-2.72-5.3c-0.76-1.31-2.9-4.97-3.19-5.48c-0.29-0.51-0.76-0.73-0.84,0.33
			c-0.07,1.05-0.07,3.41-0.25,5.12C242.23,75,241.9,78.31,241.9,78.31z"/>
		<path class="st3" d="M262.28,66.45c0,0-1.24-0.94-2.12-1.29c-0.88-0.35-2.11-0.37-3.11-0.07c-1,0.29-1.52,1.02-1.6,1.2
			c-0.09,0.18-0.79,1.87-0.88,2.61c-0.09,0.74-0.23,3.74,0.54,5.07c0.77,1.33,1.91,2.57,4.3,2.8c2.39,0.22,3.85-1.23,3.81-1.26
			c-0.04-0.04-1.53,1.99-3.21,2.88c-1.69,0.89-3.6,0.43-4.64-0.54c-1.04-0.97-2.36-2.87-2.36-5.67s0.89-5.07,2.16-6.48
			c1.27-1.42,2.57-2.63,4.54-2.66c1.98-0.03,2.67,0.58,3.38,1.17c0.71,0.59,0.56,0.68,0.56,0.68L262.28,66.45z"/>
		<path class="st4" d="M262.28,66.45c0,0-1.24-0.94-2.12-1.29c-0.88-0.35-2.11-0.37-3.11-0.07c-1,0.29-1.52,1.02-1.6,1.2
			c-0.09,0.18-0.79,1.87-0.88,2.61c-0.09,0.74-0.23,3.74,0.54,5.07c0.77,1.33,1.91,2.57,4.3,2.8c2.39,0.22,3.85-1.23,3.81-1.26
			c-0.04-0.04-1.53,1.99-3.21,2.88c-1.69,0.89-3.6,0.43-4.64-0.54c-1.04-0.97-2.36-2.87-2.36-5.67s0.89-5.07,2.16-6.48
			c1.27-1.42,2.57-2.63,4.54-2.66c1.98-0.03,2.67,0.58,3.38,1.17c0.71,0.59,0.56,0.68,0.56,0.68L262.28,66.45z"/>
		<path class="st3" d="M267.09,65.06c1.41-1.17,3.71-2.4,5.93-1.73c2.23,0.67,3.36,2.4,3.71,4.66s-0.49,5.93-1.94,7.77
			c-1.45,1.84-3.64,3.64-6.5,2.83c-2.86-0.81-4.31-4.27-3.99-7.1C264.62,68.67,265.68,66.23,267.09,65.06 M267.84,65.52
			c0.81-0.57,1.8-0.71,3-0.46c1.2,0.25,2.01,0.53,3.07,1.87c1.06,1.34,1.41,3.57,1.13,5.12c-0.28,1.55-0.67,2.9-1.27,3.78
			c-0.6,0.88-2.05,0.99-2.72,0.99c-0.67,0-2.65-0.07-3.85-1.77c-1.2-1.7-1.59-3.53-1.31-5.12
			C266.18,68.35,267.02,66.09,267.84,65.52"/>
		<path class="st4" d="M267.09,65.06c1.41-1.17,3.71-2.4,5.93-1.73c2.23,0.67,3.36,2.4,3.71,4.66s-0.49,5.93-1.94,7.77
			c-1.45,1.84-3.64,3.64-6.5,2.83c-2.86-0.81-4.31-4.27-3.99-7.1C264.62,68.67,265.68,66.23,267.09,65.06z M267.84,65.52
			c0.81-0.57,1.8-0.71,3-0.46c1.2,0.25,2.01,0.53,3.07,1.87c1.06,1.34,1.41,3.57,1.13,5.12c-0.28,1.55-0.67,2.9-1.27,3.78
			c-0.6,0.88-2.05,0.99-2.72,0.99c-0.67,0-2.65-0.07-3.85-1.77c-1.2-1.7-1.59-3.53-1.31-5.12
			C266.18,68.35,267.02,66.09,267.84,65.52z"/>
		<path class="st3" d="M279.35,62.94l2.22-0.07c0,0-0.49,4.27-0.67,6.5c-0.18,2.23-0.18,3.71-0.21,4.66
			c-0.04,0.95,0.39,1.87,1.41,2.44c1.02,0.57,2.44,0,3.18-0.71c0.74-0.71,0.88-1.91,1.02-3.5c0.14-1.59,0.71-9.29,0.71-9.29
			l2.19-0.11L288,78.13l-2.23,0.28l0.18-2.12c0,0-0.92,1.02-2.79,1.7c-1.87,0.67-2.83,0.67-3.99-0.32
			c-1.17-0.99-0.81-3.11-0.74-4.13c0.07-1.02,0.21-4.03,0.42-6.18C279.07,65.21,279.35,62.94,279.35,62.94"/>
		<path class="st4" d="M279.35,62.94l2.22-0.07c0,0-0.49,4.27-0.67,6.5c-0.18,2.23-0.18,3.71-0.21,4.66
			c-0.04,0.95,0.39,1.87,1.41,2.44c1.02,0.57,2.44,0,3.18-0.71c0.74-0.71,0.88-1.91,1.02-3.5c0.14-1.59,0.71-9.29,0.71-9.29
			l2.19-0.11L288,78.13l-2.23,0.28l0.18-2.12c0,0-0.92,1.02-2.79,1.7c-1.87,0.67-2.83,0.67-3.99-0.32
			c-1.17-0.99-0.81-3.11-0.74-4.13c0.07-1.02,0.21-4.03,0.42-6.18C279.07,65.21,279.35,62.94,279.35,62.94z"/>
		<path class="st3" d="M291.29,62.77l-1.13,15.58l2.19-0.35l0.49-6.85c0,0,2.44,3.39,2.97,4.13c0.53,0.74,1.8,3.04,1.8,3.04
			l2.19-0.92c0,0-0.21,0.07-0.78-0.81c-0.56-0.88-3.39-5.79-3.39-5.79s2.4-1.13,3.18-2.83c0.78-1.7,0.71-3.92-0.95-4.7
			c-1.66-0.78-3.32-0.53-4.1-0.53C292.98,62.73,291.22,62.77,291.29,62.77 M292.95,70.33l0.42-6.39c0,0,1.34-0.11,2.08,0.18
			c0.74,0.28,1.91,1.17,1.87,2.75c-0.04,1.59-0.88,2.3-1.27,2.58c-0.39,0.28-0.53,0.21-0.53,0.21l-0.71-0.25L292.95,70.33z"/>
		<path class="st4" d="M291.29,62.77l-1.13,15.58l2.19-0.35l0.49-6.85c0,0,2.44,3.39,2.97,4.13c0.53,0.74,1.8,3.04,1.8,3.04
			l2.19-0.92c0,0-0.21,0.07-0.78-0.81c-0.56-0.88-3.39-5.79-3.39-5.79s2.4-1.13,3.18-2.83c0.78-1.7,0.71-3.92-0.95-4.7
			c-1.66-0.78-3.32-0.53-4.1-0.53C292.98,62.73,291.22,62.77,291.29,62.77z M292.95,70.33l0.42-6.39c0,0,1.34-0.11,2.08,0.18
			c0.74,0.28,1.91,1.17,1.87,2.75c-0.04,1.59-0.88,2.3-1.27,2.58c-0.39,0.28-0.53,0.21-0.53,0.21l-0.71-0.25L292.95,70.33z"/>
		<path class="st3" d="M302.59,64.04c0.95-0.92,2.3-1.77,3.39-1.48c1.09,0.28,2.01,0.78,2.33,1.52l0.32,0.74l-1.91,1.17
			c0,0-0.78-1.84-2.01-1.94c-1.24-0.11-2.01,0.67-2.08,1.94c-0.07,1.27,1.13,2.44,2.58,3.36c1.45,0.92,2.37,1.41,2.61,2.44
			c0.25,1.02-0.14,2.4-0.46,3.32c-0.32,0.92-1.84,2.54-2.79,3c-0.95,0.46-2.12,0.28-2.93-0.25c-0.81-0.53-1.55-2.08-1.55-2.08
			l2.15-0.95c0,0,0.81,1.98,2.08,1.94c1.27-0.04,1.73-1.02,1.77-1.91c0.04-0.88,0.07-1.66-0.92-2.37c-0.99-0.71-2.15-1.34-2.97-2.05
			c-0.81-0.71-1.59-2.3-1.02-4.03C301.74,64.68,302.59,64.04,302.59,64.04"/>
		<path class="st4" d="M302.59,64.04c0.95-0.92,2.3-1.77,3.39-1.48c1.09,0.28,2.01,0.78,2.33,1.52l0.32,0.74l-1.91,1.17
			c0,0-0.78-1.84-2.01-1.94c-1.24-0.11-2.01,0.67-2.08,1.94c-0.07,1.27,1.13,2.44,2.58,3.36c1.45,0.92,2.37,1.41,2.61,2.44
			c0.25,1.02-0.14,2.4-0.46,3.32c-0.32,0.92-1.84,2.54-2.79,3c-0.95,0.46-2.12,0.28-2.93-0.25c-0.81-0.53-1.55-2.08-1.55-2.08
			l2.15-0.95c0,0,0.81,1.98,2.08,1.94c1.27-0.04,1.73-1.02,1.77-1.91c0.04-0.88,0.07-1.66-0.92-2.37c-0.99-0.71-2.15-1.34-2.97-2.05
			c-0.81-0.71-1.59-2.3-1.02-4.03C301.74,64.68,302.59,64.04,302.59,64.04z"/>
		<path class="st5" d="M312.46,60.51c0.71,0,1.29,0.58,1.29,1.29c0,0.71-0.58,1.29-1.29,1.29c-0.71,0-1.29-0.58-1.29-1.29
			C311.17,61.09,311.75,60.51,312.46,60.51z"/>
		<path class="st3" d="M312.02,62.41V61.1h0.36c0.1,0,0.18,0,0.22,0.01c0.05,0.01,0.09,0.03,0.12,0.05c0.05,0.03,0.08,0.07,0.1,0.12
			c0.03,0.05,0.04,0.11,0.04,0.17c0,0.11-0.03,0.19-0.1,0.25c-0.07,0.06-0.17,0.08-0.3,0.08h-0.03l0.58,0.63h-0.23l-0.55-0.63h-0.03
			v0.63H312.02z M312.2,61.23v0.44h0.14c0.14,0,0.24-0.02,0.28-0.05c0.05-0.03,0.07-0.09,0.07-0.17c0-0.08-0.02-0.14-0.07-0.18
			c-0.05-0.03-0.14-0.05-0.28-0.05H312.2z"/>
		<path class="st3" d="M260.61,74.61c0,0-1.73-1.07-3.92-0.25c-2.19,0.81-2.9,2.7-3.56,3.82c-0.66,1.12-1.58,3.67-2.7,6.01
			c-1.12,2.34-1.83,3.51-2.7,4.73c-0.87,1.22-1.78,2.34-1.78,2.34s1.78-0.56,3.36,0.15c1.58,0.71,1.88,1.83,1.88,1.83
			s1.27-1.27,2.39-2.04c1.12-0.76,2.39-1.17,2.39-1.17s0.31,1.02,2.6,1.53c2.29,0.51,3.72-0.2,4.89-0.71
			c1.17-0.51,1.63-0.76,2.09-1.17c0.46-0.41,0.61-0.1,0.61,0.56c0,0.66-0.31,2.55-0.76,4.07c-0.46,1.53-1.27,2.49-1.63,2.85
			c-0.36,0.36-0.76,0.51-0.76,0.51s1.48,0.36,2.95-0.66c1.48-1.02,2.14-2.44,2.39-3.61s0.36-1.68,0.36-1.68s1.22,0,2.95-0.76
			c1.73-0.76,2.34-2.04,2.6-2.29c0.25-0.25,0.76-0.41,0.97,0.1c0.21,0.53,0,1.93,0,2.6c0,0.36,0.15,0.66,0.92,0.41
			c0.76-0.25,1.58-0.56,2.8-0.87c1.22-0.31,2.29-0.66,2.29-0.66s0.05,0.56,0.05,1.07c0,0.51-0.05,0.97,0.97,0.41
			c1.02-0.56,2.95-1.63,4.02-2.04c1.07-0.41,1.58-0.61,1.58-0.61s-0.2,2.19,0.97,2.75c1.17,0.56,2.44,0.36,3.66,0
			c1.22-0.36,2.44-0.97,2.44-0.97s2.14,1.58,4.84,1.63c2.7,0.05,4.33-0.15,8.65-1.63c4.33-1.48,4.89-2.49,4.89-2.49
			s-2.14,0.97-3.36,1.32c-1.22,0.36-4.23,0.87-6.46,0.66c-2.24-0.2-3.41-0.87-3.41-0.87s1.37-0.97,1.32-2.04
			c-0.05-1.07-1.17-1.83-3.51-0.81s-2.34,1.88-2.65,2.24c-0.31,0.36-0.15,0.97-0.76,1.32c-0.61,0.36-1.73,0.56-1.88-0.25
			c-0.15-0.81,0-1.58,0.05-2.24s-0.15-1.83-1.37-1.32c-1.22,0.51-3.21,1.27-4.07,1.68c-0.87,0.41-0.87-0.05-0.66-0.76
			c0.2-0.71,0.71-1.83-0.92-1.27c-1.63,0.56-4.84,1.48-4.84,1.48l-0.05,0.66h0.46l0.1,1.12c0,0-1.12,0.61-1.78,0.1
			c-0.66-0.51-0.46-1.43-0.3-2.19c0.15-0.76,0.3-1.27,0.3-1.27s-1.02,0.56-2.29,1.12c-1.27,0.56-2.95,0.76-2.95,0.76
			s-0.41-1.22-2.09-1.07c-1.68,0.15-2.19,0.46-2.39,0.56c-0.2,0.1-0.46,0.2-0.46,0.2s-0.05-1.27-1.17-1.53
			c-1.12-0.25-1.12-0.15-1.12-0.15s-0.61,1.68-1.63,2.34c-1.02,0.66-1.32,1.27-2.75,1.27s-1.37-0.36-1.37-0.36s1.63-1.68,1.12-2.49
			c-0.51-0.81-1.78-1.07-3.51-0.25c-1.73,0.81-2.24,1.68-2.44,1.99c-0.2,0.31-0.31,0.46-0.31,0.46s-1.17,0.2-2.54,0.15
			c-1.37-0.05-2.65-0.71-2.65-0.71s1.22-3.11,1.93-5.09c0.71-1.99,1.41-4.67,2.87-6.48s2.75-1.72,3.72-1.92
			C260.07,74.61,260.61,74.61,260.61,74.61 M260.1,86.57c0.46-0.05,0.05,1.53-0.51,1.37S259.64,86.62,260.1,86.57 M269.26,88.56
			c0,0,1.48-0.36,1.43,0.36c-0.05,0.71-0.71,1.07-1.12,1.22c-0.41,0.15-0.51,0.15-0.51,0.15s0.05-0.51,0.1-0.97
			C269.21,88.86,269.26,88.56,269.26,88.56 M298.68,86.98c0.46-0.05,0.05,1.53-0.51,1.37C297.61,88.2,298.22,87.03,298.68,86.98
			 M276.03,85.71l0.66-1.37c0,0,0.51-0.25,1.43-0.66c0.92-0.41,1.83-0.92,1.83-0.92l-0.31,1.37c0,0-0.66,0.51-1.78,1.02
			C276.74,85.65,276.03,85.71,276.03,85.71 M259.89,83.97c0,0,0.97,0.66,2.29-0.05c1.32-0.71,1.63-2.65,1.63-2.65
			s-1.53,1.42-2.19,1.83C260.96,83.52,259.89,83.97,259.89,83.97"/>
		<path class="st4" d="M260.61,74.61c0,0-1.73-1.07-3.92-0.25c-2.19,0.81-2.9,2.7-3.56,3.82c-0.66,1.12-1.58,3.67-2.7,6.01
			c-1.12,2.34-1.83,3.51-2.7,4.73c-0.87,1.22-1.78,2.34-1.78,2.34s1.78-0.56,3.36,0.15c1.58,0.71,1.88,1.83,1.88,1.83
			s1.27-1.27,2.39-2.04c1.12-0.76,2.39-1.17,2.39-1.17s0.31,1.02,2.6,1.53c2.29,0.51,3.72-0.2,4.89-0.71
			c1.17-0.51,1.63-0.76,2.09-1.17c0.46-0.41,0.61-0.1,0.61,0.56c0,0.66-0.31,2.55-0.76,4.07c-0.46,1.53-1.27,2.49-1.63,2.85
			c-0.36,0.36-0.76,0.51-0.76,0.51s1.48,0.36,2.95-0.66c1.48-1.02,2.14-2.44,2.39-3.61s0.36-1.68,0.36-1.68s1.22,0,2.95-0.76
			c1.73-0.76,2.34-2.04,2.6-2.29c0.25-0.25,0.76-0.41,0.97,0.1c0.21,0.53,0,1.93,0,2.6c0,0.36,0.15,0.66,0.92,0.41
			c0.76-0.25,1.58-0.56,2.8-0.87c1.22-0.31,2.29-0.66,2.29-0.66s0.05,0.56,0.05,1.07c0,0.51-0.05,0.97,0.97,0.41
			c1.02-0.56,2.95-1.63,4.02-2.04c1.07-0.41,1.58-0.61,1.58-0.61s-0.2,2.19,0.97,2.75c1.17,0.56,2.44,0.36,3.66,0
			c1.22-0.36,2.44-0.97,2.44-0.97s2.14,1.58,4.84,1.63c2.7,0.05,4.33-0.15,8.65-1.63c4.33-1.48,4.89-2.49,4.89-2.49
			s-2.14,0.97-3.36,1.32c-1.22,0.36-4.23,0.87-6.46,0.66c-2.24-0.2-3.41-0.87-3.41-0.87s1.37-0.97,1.32-2.04
			c-0.05-1.07-1.17-1.83-3.51-0.81s-2.34,1.88-2.65,2.24c-0.31,0.36-0.15,0.97-0.76,1.32c-0.61,0.36-1.73,0.56-1.88-0.25
			c-0.15-0.81,0-1.58,0.05-2.24s-0.15-1.83-1.37-1.32c-1.22,0.51-3.21,1.27-4.07,1.68c-0.87,0.41-0.87-0.05-0.66-0.76
			c0.2-0.71,0.71-1.83-0.92-1.27c-1.63,0.56-4.84,1.48-4.84,1.48l-0.05,0.66h0.46l0.1,1.12c0,0-1.12,0.61-1.78,0.1
			c-0.66-0.51-0.46-1.43-0.3-2.19c0.15-0.76,0.3-1.27,0.3-1.27s-1.02,0.56-2.29,1.12c-1.27,0.56-2.95,0.76-2.95,0.76
			s-0.41-1.22-2.09-1.07c-1.68,0.15-2.19,0.46-2.39,0.56c-0.2,0.1-0.46,0.2-0.46,0.2s-0.05-1.27-1.17-1.53
			c-1.12-0.25-1.12-0.15-1.12-0.15s-0.61,1.68-1.63,2.34c-1.02,0.66-1.32,1.27-2.75,1.27s-1.37-0.36-1.37-0.36s1.63-1.68,1.12-2.49
			c-0.51-0.81-1.78-1.07-3.51-0.25c-1.73,0.81-2.24,1.68-2.44,1.99c-0.2,0.31-0.31,0.46-0.31,0.46s-1.17,0.2-2.54,0.15
			c-1.37-0.05-2.65-0.71-2.65-0.71s1.22-3.11,1.93-5.09c0.71-1.99,1.41-4.67,2.87-6.48s2.75-1.72,3.72-1.92
			C260.07,74.61,260.61,74.61,260.61,74.61z M260.1,86.57c0.46-0.05,0.05,1.53-0.51,1.37S259.64,86.62,260.1,86.57z M269.26,88.56
			c0,0,1.48-0.36,1.43,0.36c-0.05,0.71-0.71,1.07-1.12,1.22c-0.41,0.15-0.51,0.15-0.51,0.15s0.05-0.51,0.1-0.97
			C269.21,88.86,269.26,88.56,269.26,88.56z M298.68,86.98c0.46-0.05,0.05,1.53-0.51,1.37C297.61,88.2,298.22,87.03,298.68,86.98z
			 M276.03,85.71l0.66-1.37c0,0,0.51-0.25,1.43-0.66c0.92-0.41,1.83-0.92,1.83-0.92l-0.31,1.37c0,0-0.66,0.51-1.78,1.02
			C276.74,85.65,276.03,85.71,276.03,85.71z M259.89,83.97c0,0,0.97,0.66,2.29-0.05c1.32-0.71,1.63-2.65,1.63-2.65
			s-1.53,1.42-2.19,1.83C260.96,83.52,259.89,83.97,259.89,83.97z"/>
	</g>
</g>
<path class="st3" d="M15.15,124.07h-0.27c-0.11,0-0.2-0.09-0.2-0.2l0,0v-5.21l-1.94,3.77c-0.03,0.07-0.1,0.11-0.18,0.11h-0.18
	c-0.08,0-0.14-0.04-0.18-0.11l-2.02-3.8v5.24c0,0.11-0.09,0.2-0.2,0.2c0,0,0,0,0,0H9.71c-0.11,0-0.2-0.09-0.2-0.2l0,0v-6.42
	c0-0.11,0.09-0.2,0.2-0.2c0,0,0,0,0,0h0.43c0.08,0,0.15,0.04,0.18,0.11l2.16,4.17l2.07-4.16c0.03-0.07,0.1-0.11,0.18-0.11h0.42
	c0.11,0,0.2,0.09,0.2,0.2l0,0v6.42C15.36,123.98,15.27,124.07,15.15,124.07C15.16,124.07,15.15,124.07,15.15,124.07L15.15,124.07z
	 M22.08,124.07h-0.29c-0.08,0-0.16-0.05-0.19-0.13l-0.78-2.06H18.1l-0.79,2.06c-0.03,0.08-0.11,0.13-0.19,0.13h-0.29
	c-0.11,0-0.2-0.08-0.2-0.19c0-0.03,0-0.06,0.01-0.08l2.48-6.42c0.03-0.08,0.11-0.13,0.19-0.13h0.34c0.08,0,0.16,0.05,0.19,0.13
	l2.44,6.42c0.04,0.1-0.01,0.22-0.11,0.26C22.13,124.07,22.11,124.07,22.08,124.07L22.08,124.07z M18.36,121.2h2.19l-1.08-2.85
	L18.36,121.2z M24.05,124.07h-0.29c-0.11,0-0.2-0.09-0.2-0.2l0,0v-6.42c0-0.11,0.09-0.2,0.2-0.2c0,0,0,0,0,0h0.29
	c0.11,0,0.2,0.09,0.2,0.2l0,0v6.42C24.25,123.98,24.17,124.07,24.05,124.07C24.05,124.07,24.05,124.07,24.05,124.07L24.05,124.07z
	 M28.41,124.2c-0.62,0.03-1.23-0.19-1.69-0.62c-0.44-0.44-0.69-1.04-0.7-1.66c-0.01-0.11,0.07-0.21,0.18-0.22c0.01,0,0.01,0,0.02,0
	h0.29c0.11,0,0.19,0.08,0.2,0.19c0,0.45,0.18,0.88,0.49,1.2c0.32,0.31,0.76,0.47,1.21,0.44c0.4,0.01,0.8-0.1,1.13-0.34
	c0.32-0.21,0.5-0.58,0.49-0.96c0.02-0.38-0.17-0.75-0.5-0.95c-0.39-0.2-0.8-0.35-1.23-0.44c-0.01,0-0.03-0.01-0.04-0.02
	c-0.01-0.01-0.04-0.01-0.07-0.02c-0.53-0.11-1.04-0.32-1.49-0.63c-0.35-0.31-0.54-0.75-0.52-1.21c-0.03-0.55,0.22-1.08,0.65-1.42
	c0.43-0.32,0.95-0.48,1.48-0.46c0.58-0.03,1.14,0.17,1.58,0.54c0.43,0.39,0.67,0.95,0.68,1.54c0,0.06-0.02,0.11-0.06,0.15
	c-0.04,0.04-0.09,0.06-0.15,0.06h-0.29c-0.11,0-0.2-0.09-0.2-0.2l0,0c0.01-0.41-0.15-0.8-0.46-1.07c-0.32-0.26-0.72-0.39-1.13-0.37
	c-0.37-0.02-0.73,0.09-1.02,0.31c-0.27,0.22-0.42,0.56-0.4,0.92c0,0.28,0.12,0.54,0.33,0.72c0.36,0.24,0.76,0.4,1.18,0.47
	c0.01,0,0.03,0.01,0.04,0.02c0.04,0,0.07,0.01,0.11,0.03c0.5,0.11,0.99,0.29,1.45,0.54c0.49,0.3,0.79,0.84,0.77,1.41
	c0.03,0.6-0.24,1.18-0.71,1.55C29.56,124.06,28.99,124.23,28.41,124.2L28.41,124.2z M35.22,124.2c-0.9,0.05-1.78-0.35-2.33-1.06
	c-0.95-1.52-0.95-3.44,0-4.96c0.55-0.73,1.43-1.14,2.34-1.08c0.91-0.05,1.79,0.35,2.34,1.07c0.5,0.73,0.75,1.6,0.71,2.49
	c0.04,0.89-0.21,1.76-0.71,2.49C37,123.87,36.13,124.26,35.22,124.2L35.22,124.2z M33.43,122.7c0.81,0.99,2.27,1.13,3.26,0.32
	c0.12-0.1,0.22-0.2,0.32-0.32c0.73-1.26,0.72-2.81-0.01-4.07c-0.79-0.98-2.24-1.14-3.22-0.35c-0.13,0.1-0.24,0.22-0.35,0.35
	C32.71,119.88,32.71,121.44,33.43,122.7z M44.88,124.07h-0.3c-0.07,0-0.13-0.03-0.17-0.09l-3.67-5.36v5.25c0,0.11-0.09,0.2-0.2,0.2
	c0,0,0,0,0,0h-0.3c-0.11,0-0.2-0.09-0.2-0.2l0,0v-6.42c0-0.11,0.09-0.2,0.2-0.2c0,0,0,0,0,0h0.3c0.07,0,0.13,0.03,0.17,0.09
	l3.66,5.37v-5.26c0-0.11,0.09-0.2,0.2-0.2c0,0,0,0,0,0h0.31c0.11,0,0.2,0.09,0.2,0.2l0,0v6.42
	C45.08,123.98,44.99,124.07,44.88,124.07L44.88,124.07z M44.62,123.56l0.06,0.08v-0.1l-0.03,0.01
	C44.64,123.56,44.63,123.56,44.62,123.56L44.62,123.56z M40.45,117.66v0.13c0.02-0.01,0.05-0.02,0.07-0.02L40.45,117.66z
	 M52.61,121.89h-2.38c-0.11,0-0.2-0.09-0.2-0.2l0,0v-0.25c0-0.11,0.09-0.2,0.2-0.2c0,0,0,0,0,0h2.38c0.11,0,0.2,0.09,0.2,0.2l0,0
	v0.25C52.81,121.8,52.72,121.89,52.61,121.89L52.61,121.89z M60.5,124.2c-0.9,0.05-1.76-0.36-2.29-1.08
	c-0.93-1.51-0.93-3.41-0.01-4.92c0.53-0.73,1.4-1.15,2.3-1.1c0.56-0.01,1.11,0.12,1.6,0.39c0.49,0.29,0.85,0.75,1.01,1.3
	c0.03,0.1-0.01,0.2-0.11,0.24l-0.28,0.13c-0.05,0.03-0.12,0.03-0.17,0c-0.05-0.02-0.1-0.07-0.11-0.13
	c-0.24-0.85-1.07-1.39-1.94-1.28c-0.69-0.04-1.35,0.29-1.74,0.87c-0.38,0.6-0.57,1.31-0.54,2.02c-0.03,0.71,0.15,1.41,0.54,2.01
	c0.39,0.58,1.05,0.91,1.74,0.87c0.58,0.04,1.15-0.18,1.56-0.6c0.38-0.44,0.58-1.02,0.54-1.6v-0.07H60.7c-0.11,0-0.2-0.09-0.2-0.2v0
	v-0.27c0-0.11,0.09-0.2,0.2-0.2h0h2.4c0.1,0,0.19,0.08,0.2,0.18c0.01,0.07,0.01,0.13,0.01,0.19v0.16c0.15,1.17-0.46,2.31-1.53,2.83
	C61.38,124.13,60.94,124.21,60.5,124.2L60.5,124.2z M69.77,124.07h-0.29c-0.08,0-0.16-0.05-0.19-0.13l-0.78-2.06h-2.72L65,123.94
	c-0.03,0.08-0.1,0.13-0.19,0.13h-0.3c-0.11,0-0.2-0.08-0.2-0.19c0-0.03,0-0.06,0.01-0.08l2.48-6.42c0.03-0.08,0.11-0.13,0.19-0.13
	h0.34c0.08,0,0.16,0.05,0.19,0.13l2.44,6.42c0.04,0.1-0.01,0.22-0.11,0.26C69.83,124.06,69.8,124.07,69.77,124.07L69.77,124.07z
	 M66.06,121.2h2.19l-1.08-2.85L66.06,121.2z M73.27,124.2c-0.62,0.03-1.23-0.19-1.69-0.62c-0.44-0.44-0.69-1.04-0.7-1.66
	c0-0.06,0.02-0.11,0.05-0.15c0.04-0.04,0.09-0.06,0.15-0.06h0.3c0.11,0,0.19,0.08,0.2,0.19c0,0.45,0.18,0.88,0.49,1.2
	c0.32,0.31,0.76,0.47,1.21,0.44c0.4,0.01,0.8-0.1,1.13-0.34c0.32-0.21,0.5-0.58,0.49-0.96c0.02-0.38-0.17-0.75-0.5-0.95
	c-0.39-0.2-0.8-0.35-1.23-0.44c-0.01,0-0.03-0.01-0.04-0.02l-0.07-0.02c-0.53-0.11-1.04-0.32-1.49-0.63
	c-0.34-0.31-0.54-0.75-0.52-1.21c-0.03-0.55,0.21-1.08,0.65-1.42c0.43-0.32,0.95-0.48,1.48-0.46c0.58-0.03,1.14,0.17,1.58,0.54
	c0.43,0.39,0.67,0.95,0.67,1.54c0,0.06-0.02,0.11-0.06,0.15c-0.04,0.04-0.09,0.06-0.15,0.06h-0.29c-0.11,0-0.2-0.09-0.2-0.2v0
	c0.01-0.41-0.15-0.8-0.46-1.07c-0.32-0.26-0.72-0.39-1.13-0.37c-0.37-0.02-0.73,0.09-1.02,0.31c-0.27,0.22-0.42,0.56-0.4,0.92
	c0,0.28,0.12,0.54,0.33,0.72c0.36,0.24,0.76,0.4,1.18,0.47c0.01,0,0.03,0.01,0.04,0.02c0.04,0,0.07,0.01,0.11,0.03
	c0.51,0.11,0.99,0.29,1.45,0.54c0.49,0.3,0.79,0.84,0.77,1.41c0.03,0.6-0.24,1.18-0.71,1.55C74.43,124.06,73.86,124.23,73.27,124.2
	L73.27,124.2z M79.23,124.07h-0.3c-0.11,0-0.2-0.09-0.2-0.2v0v-5.94h-1.8c-0.11,0-0.2-0.09-0.2-0.2v0v-0.28c0-0.11,0.09-0.2,0.2-0.2
	h0h4.31c0.11,0,0.2,0.09,0.2,0.2v0v0.28c0,0.11-0.09,0.2-0.2,0.2h0h-1.8v5.94C79.44,123.98,79.35,124.07,79.23,124.07
	C79.24,124.07,79.23,124.07,79.23,124.07L79.23,124.07z M87.14,124.07h-0.35c-0.11,0-0.2-0.09-0.2-0.2v0v-1.44c0-0.17,0-0.31,0-0.41
	c0-0.07,0-0.14-0.01-0.21c-0.02-0.26-0.16-0.5-0.39-0.64c-0.28-0.11-0.59-0.16-0.89-0.14h-1.74v2.83c0,0.11-0.09,0.2-0.2,0.2h0h-0.3
	c-0.11,0-0.2-0.09-0.2-0.2v0v-6.42c0-0.11,0.09-0.2,0.2-0.2h0h2.12c0.58-0.04,1.15,0.08,1.67,0.33c0.84,0.67,0.98,1.9,0.31,2.74
	c-0.12,0.15-0.26,0.28-0.41,0.39c0.36,0.25,0.57,0.66,0.58,1.1c0,0.01,0.01,0.05,0.01,0.85l0.01,1.22c0,0.05-0.02,0.11-0.06,0.14
	C87.25,124.06,87.19,124.07,87.14,124.07L87.14,124.07z M83.56,120.36h1.78c1.38,0,1.54-0.69,1.54-1.21
	c0.08-0.57-0.31-1.1-0.87-1.18c-0.01,0-0.03,0-0.04-0.01c-0.07-0.01-0.18-0.02-0.31-0.03s-0.29-0.01-0.47-0.01h-1.63V120.36z
	 M92.17,124.2c-0.9,0.05-1.78-0.35-2.33-1.06c-0.95-1.52-0.95-3.44,0-4.96c0.55-0.73,1.43-1.14,2.34-1.08
	c0.91-0.05,1.79,0.35,2.34,1.07c0.5,0.73,0.75,1.6,0.71,2.49c0.04,0.89-0.21,1.76-0.71,2.49C93.95,123.87,93.07,124.26,92.17,124.2
	L92.17,124.2z M90.38,122.7c0.81,0.99,2.27,1.13,3.26,0.32c0.12-0.1,0.22-0.2,0.32-0.32c0.73-1.26,0.73-2.81-0.01-4.07
	c-0.79-0.98-2.24-1.14-3.22-0.35c-0.13,0.1-0.24,0.22-0.35,0.35C89.66,119.88,89.66,121.44,90.38,122.7L90.38,122.7z M101.82,124.07
	h-0.3c-0.07,0-0.13-0.03-0.17-0.09l-3.67-5.36v5.25c0,0.11-0.09,0.2-0.2,0.2h0h-0.3c-0.11,0-0.2-0.09-0.2-0.2v0v-6.42
	c0-0.11,0.09-0.2,0.2-0.2h0h0.3c0.07,0,0.13,0.03,0.17,0.09l3.66,5.37v-5.26c0-0.11,0.09-0.2,0.2-0.2h0h0.3c0.11,0,0.2,0.09,0.2,0.2
	v0v6.42C102.01,123.98,101.93,124.07,101.82,124.07L101.82,124.07z M101.56,123.56l0.06,0.08v-0.1l-0.03,0.01L101.56,123.56z
	 M97.39,117.66v0.13c0.01-0.01,0.02-0.01,0.03-0.01c0.01,0,0.03-0.01,0.04-0.01L97.39,117.66z M106.84,124.21
	c-0.9,0.05-1.78-0.35-2.33-1.06c-0.95-1.52-0.95-3.44,0-4.96c0.55-0.73,1.42-1.14,2.33-1.08c0.91-0.05,1.79,0.35,2.34,1.07
	c0.5,0.73,0.75,1.6,0.71,2.49c0.04,0.89-0.21,1.76-0.71,2.49C108.63,123.87,107.75,124.26,106.84,124.21L106.84,124.21z
	 M105.06,122.7c0.81,0.99,2.27,1.13,3.26,0.32c0.12-0.09,0.22-0.2,0.32-0.32c0.73-1.26,0.72-2.81-0.01-4.07
	c-0.79-0.98-2.24-1.14-3.22-0.35c-0.13,0.1-0.24,0.22-0.35,0.35C104.34,119.89,104.34,121.44,105.06,122.7L105.06,122.7z
	 M117.32,124.07h-0.27c-0.11,0-0.2-0.09-0.2-0.2v0v-5.21l-1.94,3.77c-0.03,0.07-0.1,0.11-0.18,0.11h-0.18
	c-0.08,0-0.14-0.04-0.18-0.11l-2.02-3.8v5.24c0,0.11-0.09,0.2-0.2,0.2h0h-0.27c-0.11,0-0.2-0.09-0.2-0.2v0v-6.42
	c0-0.11,0.09-0.2,0.2-0.2h0h0.43c0.08,0,0.15,0.04,0.18,0.11l2.16,4.17l2.07-4.16c0.03-0.07,0.1-0.11,0.18-0.11h0.42
	c0.11,0,0.2,0.09,0.2,0.2v0v6.42C117.52,123.98,117.43,124.07,117.32,124.07C117.32,124.07,117.32,124.07,117.32,124.07
	L117.32,124.07z M120.1,124.07h-0.3c-0.11,0-0.2-0.09-0.2-0.2v0v-6.42c0-0.11,0.09-0.2,0.2-0.2h0h0.3c0.11,0,0.2,0.09,0.2,0.2v0
	v6.42C120.3,123.98,120.21,124.07,120.1,124.07L120.1,124.07z M126.61,124.07h-4.01c-0.11,0-0.2-0.09-0.2-0.2v0v-6.42
	c0-0.11,0.09-0.2,0.2-0.2h0h3.92c0.11,0,0.2,0.09,0.2,0.2v0v0.29c0,0.11-0.09,0.2-0.2,0.2h0h-3.42v2.25h2.67
	c0.11,0,0.2,0.09,0.2,0.2v0v0.28c0,0.11-0.09,0.2-0.2,0.2h0h-2.67v2.52h3.51c0.11,0,0.2,0.09,0.2,0.2v0v0.29
	c0.01,0.11-0.08,0.2-0.19,0.21C126.61,124.07,126.61,124.07,126.61,124.07L126.61,124.07z M133.93,121.89h-2.38
	c-0.11,0-0.2-0.09-0.2-0.2v0v-0.25c0-0.11,0.09-0.2,0.2-0.2h0h2.38c0.11,0,0.2,0.09,0.2,0.2v0v0.25
	C134.13,121.8,134.04,121.89,133.93,121.89L133.93,121.89z M141.15,124.2c-0.62,0.03-1.23-0.19-1.69-0.62
	c-0.44-0.44-0.69-1.04-0.7-1.66c0-0.06,0.02-0.11,0.05-0.15c0.04-0.04,0.09-0.06,0.15-0.06h0.3c0.11,0,0.19,0.08,0.2,0.19
	c0,0.45,0.18,0.88,0.49,1.2c0.32,0.31,0.76,0.47,1.21,0.44c0.4,0.01,0.8-0.1,1.13-0.34c0.32-0.21,0.5-0.58,0.49-0.96
	c0.02-0.38-0.17-0.75-0.5-0.95c-0.39-0.2-0.8-0.35-1.23-0.44c-0.01,0-0.03-0.01-0.04-0.02l-0.07-0.02
	c-0.53-0.11-1.04-0.32-1.49-0.63c-0.34-0.31-0.54-0.75-0.52-1.21c-0.03-0.55,0.22-1.08,0.65-1.42c0.43-0.32,0.95-0.48,1.48-0.46
	c0.58-0.03,1.14,0.17,1.58,0.54c0.43,0.39,0.67,0.95,0.67,1.54c0,0.06-0.02,0.11-0.05,0.15c-0.04,0.04-0.09,0.06-0.15,0.06h-0.29
	c-0.11,0-0.2-0.09-0.2-0.2v0c0.01-0.41-0.15-0.8-0.46-1.07c-0.32-0.26-0.72-0.39-1.13-0.37c-0.37-0.02-0.73,0.09-1.02,0.31
	c-0.27,0.22-0.42,0.56-0.4,0.92c0,0.28,0.12,0.54,0.33,0.72c0.36,0.24,0.76,0.4,1.18,0.47c0.01,0,0.03,0.01,0.04,0.02
	c0.04,0,0.07,0.01,0.11,0.03c0.51,0.11,0.99,0.29,1.45,0.54c0.49,0.3,0.79,0.84,0.77,1.41c0.03,0.6-0.24,1.18-0.71,1.55
	C142.31,124.06,141.74,124.23,141.15,124.2L141.15,124.2z M150.05,124.07h-0.3c-0.11,0-0.2-0.09-0.2-0.2v0v-3.09h-3.66v3.09
	c0,0.11-0.09,0.2-0.2,0.2h0h-0.3c-0.11,0-0.2-0.09-0.2-0.2v0v-6.42c0-0.11,0.09-0.2,0.2-0.2h0h0.3c0.11,0,0.2,0.09,0.2,0.2v0v2.66
	h3.66v-2.66c0-0.11,0.09-0.2,0.2-0.2h0h0.3c0.11,0,0.2,0.09,0.2,0.2v0v6.42C150.25,123.98,150.16,124.07,150.05,124.07
	L150.05,124.07L150.05,124.07z M155.08,124.2c-0.9,0.05-1.78-0.35-2.33-1.06c-0.95-1.52-0.95-3.44,0-4.96
	c0.55-0.73,1.42-1.14,2.33-1.08c0.91-0.05,1.79,0.35,2.34,1.07c0.5,0.73,0.75,1.6,0.71,2.49c0.04,0.89-0.21,1.76-0.71,2.49
	C156.86,123.87,155.98,124.26,155.08,124.2L155.08,124.2z M153.29,122.7c0.81,0.99,2.27,1.13,3.26,0.32c0.12-0.1,0.22-0.2,0.32-0.32
	c0.73-1.26,0.73-2.81-0.01-4.07c-0.79-0.98-2.24-1.14-3.22-0.35c-0.13,0.1-0.24,0.22-0.35,0.35
	C152.57,119.88,152.57,121.43,153.29,122.7L153.29,122.7z M160.4,124.07h-0.3c-0.11,0-0.2-0.09-0.2-0.2v0v-6.42
	c0-0.11,0.09-0.2,0.2-0.2h0h1.75c2.08,0,2.52,1.03,2.52,1.9c0.02,0.52-0.18,1.03-0.54,1.41c-0.27,0.26-0.61,0.43-0.97,0.49
	c-0.34,0.05-0.69,0.08-1.03,0.07h-1.22v2.76C160.61,123.98,160.52,124.07,160.4,124.07C160.41,124.07,160.41,124.07,160.4,124.07
	L160.4,124.07z M160.6,120.43h1.02c0.48,0.04,0.95-0.02,1.41-0.15c0.43-0.22,0.68-0.69,0.61-1.17c0.06-0.57-0.36-1.09-0.93-1.14
	c-0.03,0-0.05,0-0.08,0c-0.33-0.04-0.67-0.06-1-0.05h-1.03L160.6,120.43L160.6,120.43z M166.52,124.07h-0.3
	c-0.11,0-0.2-0.09-0.2-0.2v0v-6.42c0-0.11,0.09-0.2,0.2-0.2h0h1.75c2.08,0,2.52,1.03,2.52,1.9c0.02,0.52-0.18,1.03-0.54,1.41
	c-0.27,0.26-0.61,0.43-0.97,0.49c-0.34,0.05-0.69,0.08-1.03,0.07h-1.22v2.76C166.73,123.98,166.64,124.07,166.52,124.07
	C166.53,124.07,166.53,124.07,166.52,124.07L166.52,124.07z M166.72,120.43h1.02c0.47,0.04,0.95-0.02,1.41-0.15
	c0.43-0.22,0.68-0.68,0.61-1.17c0.06-0.57-0.36-1.09-0.93-1.14c-0.03,0-0.05,0-0.08,0c-0.33-0.04-0.67-0.06-1-0.05h-1.03
	L166.72,120.43L166.72,120.43z M172.68,124.07h-0.3c-0.11,0-0.2-0.09-0.2-0.2v0v-6.42c0-0.11,0.09-0.2,0.2-0.2h0h0.3
	c0.11,0,0.2,0.09,0.2,0.2v0v6.42C172.88,123.98,172.79,124.07,172.68,124.07L172.68,124.07z M179.8,124.07h-0.3
	c-0.07,0-0.13-0.03-0.17-0.09l-3.67-5.36v5.25c0,0.11-0.09,0.2-0.2,0.2h0h-0.28c-0.11,0-0.2-0.09-0.2-0.2v0v-6.42
	c0-0.11,0.09-0.2,0.2-0.2h0h0.3c0.07,0,0.13,0.03,0.17,0.09l3.66,5.37v-5.26c0-0.11,0.09-0.2,0.2-0.2h0h0.3c0.11,0,0.2,0.09,0.2,0.2
	v0v6.42C180.01,123.98,179.92,124.07,179.8,124.07C179.81,124.07,179.81,124.07,179.8,124.07L179.8,124.07z M179.54,123.56
	l0.06,0.08v-0.1l-0.03,0.01C179.56,123.56,179.56,123.56,179.54,123.56L179.54,123.56z M175.38,117.66v0.13
	c0.01-0.01,0.02-0.01,0.03-0.01c0.01,0,0.03-0.01,0.04-0.01L175.38,117.66z M184.78,124.2c-0.9,0.05-1.76-0.36-2.29-1.08
	c-0.93-1.51-0.93-3.41-0.01-4.92c0.53-0.73,1.4-1.15,2.3-1.1c0.56-0.01,1.11,0.12,1.6,0.39c0.49,0.29,0.85,0.75,1.01,1.3
	c0.03,0.1-0.01,0.2-0.11,0.24l-0.28,0.13c-0.05,0.03-0.12,0.03-0.17,0c-0.05-0.02-0.1-0.07-0.11-0.13
	c-0.24-0.85-1.07-1.39-1.94-1.28c-0.69-0.04-1.35,0.29-1.74,0.87c-0.38,0.6-0.57,1.31-0.54,2.02c-0.03,0.71,0.15,1.41,0.54,2.01
	c0.39,0.58,1.05,0.91,1.74,0.87c0.58,0.04,1.15-0.18,1.56-0.6c0.38-0.44,0.58-1.02,0.54-1.6v-0.07h-1.92c-0.11,0-0.2-0.09-0.2-0.2v0
	v-0.27c0-0.11,0.09-0.2,0.2-0.2h0h2.4c0.1,0,0.19,0.08,0.2,0.18c0.01,0.06,0.01,0.13,0.01,0.19v0.16c0.15,1.17-0.46,2.31-1.53,2.83
	C185.65,124.12,185.22,124.21,184.78,124.2L184.78,124.2z M9.71,117.44h0.43l2.34,4.52l2.25-4.52h0.42v6.42h-0.27v-6.05l-2.32,4.51
	h-0.18l-2.4-4.51v6.05H9.72L9.71,117.44L9.71,117.44z M19.3,117.44h0.34l2.44,6.42h-0.3l-0.83-2.19h-3l-0.84,2.19h-0.29L19.3,117.44
	z M20.85,121.41l-1.38-3.62l-1.4,3.62H20.85L20.85,121.41z M23.76,117.44h0.29v6.42h-0.29V117.44z M26.51,121.91
	c0.01,0.5,0.21,0.98,0.55,1.33c0.36,0.34,0.85,0.53,1.35,0.5c0.45,0.01,0.89-0.12,1.25-0.38c0.37-0.25,0.59-0.68,0.57-1.13
	c0.02-0.45-0.21-0.88-0.6-1.12c-0.41-0.21-0.84-0.37-1.29-0.46c-0.04-0.02-0.08-0.03-0.12-0.04c-0.5-0.1-0.97-0.3-1.4-0.58
	c-0.3-0.27-0.47-0.66-0.46-1.06c-0.03-0.49,0.19-0.96,0.57-1.26c0.39-0.29,0.87-0.44,1.36-0.42c0.53-0.03,1.05,0.15,1.45,0.49
	c0.39,0.36,0.61,0.86,0.61,1.39h-0.29c0.01-0.46-0.18-0.91-0.53-1.21c-0.35-0.29-0.8-0.44-1.26-0.42c-0.41-0.02-0.82,0.11-1.15,0.36
	c-0.32,0.26-0.5,0.66-0.47,1.07c0,0.33,0.14,0.65,0.39,0.87c0.38,0.26,0.81,0.44,1.27,0.52c0.02,0.01,0.03,0.01,0.05,0.01
	c0.03,0,0.05,0.01,0.08,0.02c0.49,0.11,0.97,0.28,1.41,0.52c0.44,0.26,0.7,0.73,0.68,1.24c0.03,0.54-0.21,1.06-0.63,1.39
	c-0.44,0.31-0.96,0.47-1.5,0.45c-0.57,0.03-1.13-0.17-1.55-0.56c-0.41-0.41-0.64-0.95-0.64-1.53H26.51L26.51,121.91z M33.05,118.3
	c0.51-0.68,1.33-1.05,2.17-1c0.85-0.05,1.66,0.32,2.18,0.99c0.47,0.7,0.71,1.53,0.67,2.37c0.04,0.84-0.19,1.67-0.67,2.37
	c-1.07,1.2-2.91,1.31-4.11,0.24c-0.09-0.08-0.17-0.16-0.24-0.25C32.16,121.57,32.15,119.75,33.05,118.3L33.05,118.3z M33.27,122.81
	c0.88,1.08,2.46,1.24,3.54,0.37c0.13-0.11,0.26-0.23,0.37-0.37c0.78-1.33,0.77-2.98-0.01-4.31c-0.86-1.08-2.43-1.25-3.5-0.4
	c-0.15,0.12-0.28,0.25-0.4,0.4C32.5,119.84,32.49,121.48,33.27,122.81L33.27,122.81z M40.25,117.44h0.3l4.03,5.92v-5.92h0.3v6.42
	h-0.3l-4.04-5.91v5.91h-0.3v-6.42H40.25z M50.24,121.44h2.38v0.25h-2.38V121.44z M60.51,117.57c-0.76-0.03-1.48,0.33-1.9,0.96
	c-0.41,0.64-0.61,1.38-0.57,2.14c-0.03,0.75,0.17,1.49,0.57,2.13c0.42,0.63,1.14,0.99,1.9,0.96c0.64,0.03,1.26-0.21,1.71-0.66
	c0.42-0.48,0.64-1.11,0.6-1.74v-0.28H60.7v-0.27h2.4c0,0.06,0.01,0.12,0.01,0.17v0.16c0.15,1.09-0.41,2.16-1.4,2.64
	c-0.38,0.16-0.79,0.23-1.2,0.23c-0.83,0.05-1.63-0.33-2.13-1c-0.88-1.44-0.88-3.24-0.01-4.68c0.49-0.68,1.3-1.06,2.14-1.02
	c0.52-0.01,1.04,0.11,1.49,0.37c0.45,0.26,0.78,0.69,0.92,1.19l-0.28,0.14C62.38,118.05,61.47,117.45,60.51,117.57L60.51,117.57z
	 M67,117.44h0.34l2.44,6.42h-0.3l-0.83-2.19h-3l-0.84,2.19h-0.3L67,117.44z M68.54,121.41l-1.38-3.62l-1.4,3.62H68.54L68.54,121.41z
	 M71.38,121.91c0.01,0.5,0.2,0.98,0.55,1.33c0.36,0.34,0.85,0.53,1.35,0.5c0.45,0.01,0.89-0.12,1.25-0.38
	c0.37-0.25,0.59-0.68,0.57-1.13c0.02-0.45-0.21-0.88-0.6-1.12c-0.41-0.21-0.84-0.37-1.29-0.46c-0.04-0.02-0.08-0.03-0.12-0.04
	c-0.5-0.1-0.97-0.3-1.4-0.58c-0.3-0.27-0.47-0.66-0.46-1.06c-0.03-0.49,0.19-0.96,0.57-1.26c0.39-0.29,0.87-0.44,1.36-0.42
	c0.53-0.03,1.05,0.15,1.45,0.49c0.39,0.36,0.61,0.86,0.61,1.39h-0.29c0.01-0.46-0.18-0.91-0.53-1.21c-0.35-0.29-0.8-0.44-1.26-0.42
	c-0.41-0.02-0.82,0.11-1.15,0.36c-0.32,0.26-0.5,0.66-0.47,1.07c0,0.33,0.14,0.65,0.39,0.87c0.38,0.26,0.81,0.44,1.27,0.52
	c0.02,0.01,0.03,0.01,0.05,0.01c0.03,0,0.05,0.01,0.08,0.02c0.49,0.11,0.97,0.28,1.41,0.52c0.44,0.26,0.7,0.73,0.68,1.24
	c0.03,0.54-0.21,1.06-0.63,1.39c-0.44,0.31-0.96,0.47-1.5,0.45c-0.57,0.03-1.13-0.17-1.55-0.56c-0.41-0.41-0.64-0.95-0.64-1.53
	H71.38L71.38,121.91z M78.93,117.72h-2v-0.28h4.31v0.28h-2v6.15h-0.3L78.93,117.72L78.93,117.72z M83.36,120.83v3.04h-0.3v-6.42
	h2.13c0.54-0.04,1.08,0.07,1.56,0.3c0.45,0.31,0.69,0.84,0.64,1.38c0.05,0.74-0.44,1.41-1.16,1.58c0.53,0.1,0.91,0.57,0.9,1.11
	c0,0.03,0.01,0.31,0.01,0.83l0.01,1.22h-0.34v-1.44c0-0.17,0-0.31,0-0.42s-0.01-0.18-0.01-0.23c-0.02-0.33-0.21-0.63-0.5-0.8
	c-0.31-0.13-0.65-0.18-0.98-0.16L83.36,120.83L83.36,120.83z M85.34,120.56c1.16,0,1.74-0.47,1.74-1.41
	c0.09-0.68-0.39-1.3-1.07-1.38c0,0-0.01,0-0.01,0c-0.08-0.01-0.19-0.02-0.33-0.03s-0.3-0.01-0.48-0.01h-1.83v2.84H85.34z M90,118.3
	c0.51-0.68,1.33-1.05,2.17-1c0.85-0.05,1.66,0.32,2.18,0.99c0.47,0.7,0.71,1.53,0.67,2.37c0.04,0.84-0.19,1.67-0.67,2.37
	c-1.07,1.2-2.91,1.31-4.11,0.24c-0.09-0.08-0.17-0.16-0.24-0.25C89.11,121.57,89.1,119.75,90,118.3L90,118.3z M90.22,122.81
	c0.88,1.08,2.46,1.24,3.54,0.36c0.13-0.11,0.26-0.23,0.36-0.36c0.78-1.33,0.77-2.98-0.01-4.31c-0.86-1.08-2.43-1.25-3.5-0.4
	c-0.15,0.12-0.28,0.25-0.4,0.4C89.44,119.84,89.44,121.48,90.22,122.81L90.22,122.81z M97.19,117.44h0.3l4.03,5.92v-5.92h0.3v6.42
	h-0.3l-4.04-5.91v5.91h-0.3L97.19,117.44L97.19,117.44z M104.67,118.3c0.51-0.68,1.33-1.05,2.17-1c0.85-0.05,1.66,0.32,2.18,0.99
	c0.47,0.7,0.71,1.53,0.67,2.37c0.04,0.84-0.19,1.67-0.67,2.37c-1.07,1.2-2.91,1.31-4.11,0.24c-0.09-0.08-0.17-0.16-0.24-0.24
	C103.78,121.57,103.78,119.75,104.67,118.3L104.67,118.3z M104.9,122.81c0.88,1.08,2.46,1.24,3.54,0.37
	c0.13-0.11,0.26-0.23,0.37-0.37c0.78-1.33,0.77-2.98-0.01-4.31c-0.86-1.08-2.43-1.25-3.5-0.4c-0.15,0.12-0.28,0.25-0.4,0.4
	C104.12,119.84,104.12,121.48,104.9,122.81L104.9,122.81z M111.88,117.44h0.43l2.34,4.52l2.25-4.52h0.42v6.42h-0.27v-6.05
	l-2.32,4.51h-0.18l-2.4-4.51v6.05h-0.27L111.88,117.44L111.88,117.44z M119.81,117.44h0.29v6.42h-0.29V117.44z M122.6,117.44h3.92
	v0.29h-3.62v2.65h2.87v0.28h-2.87v2.92h3.71v0.29h-4.01L122.6,117.44z M131.55,121.44h2.38v0.25h-2.38V121.44z M139.25,121.91
	c0.01,0.5,0.21,0.98,0.55,1.33c0.36,0.34,0.85,0.53,1.35,0.5c0.45,0.01,0.89-0.12,1.25-0.38c0.37-0.25,0.59-0.68,0.57-1.13
	c0.02-0.45-0.21-0.88-0.6-1.12c-0.41-0.21-0.84-0.37-1.29-0.46c-0.04-0.02-0.08-0.03-0.12-0.04c-0.5-0.1-0.97-0.3-1.4-0.58
	c-0.3-0.27-0.47-0.66-0.46-1.06c-0.03-0.49,0.19-0.96,0.57-1.26c0.39-0.29,0.87-0.44,1.36-0.42c0.53-0.03,1.05,0.15,1.45,0.49
	c0.39,0.36,0.61,0.86,0.61,1.39h-0.29c0.01-0.46-0.18-0.91-0.53-1.21c-0.35-0.29-0.8-0.44-1.26-0.42c-0.41-0.02-0.82,0.11-1.15,0.36
	c-0.32,0.26-0.5,0.66-0.47,1.07c0,0.33,0.14,0.65,0.39,0.87c0.38,0.26,0.81,0.44,1.27,0.52c0.02,0.01,0.03,0.01,0.05,0.01
	c0.03,0,0.05,0.01,0.08,0.02c0.49,0.11,0.97,0.28,1.41,0.52c0.44,0.26,0.7,0.73,0.68,1.24c0.03,0.54-0.21,1.06-0.63,1.39
	c-0.44,0.31-0.96,0.47-1.5,0.45c-0.57,0.03-1.13-0.17-1.55-0.56c-0.41-0.41-0.64-0.95-0.64-1.53H139.25L139.25,121.91z
	 M145.39,117.44h0.3v2.86h4.07v-2.86h0.3v6.42h-0.3v-3.3h-4.07v3.3h-0.3V117.44L145.39,117.44z M152.9,118.3
	c0.51-0.68,1.33-1.05,2.17-1c0.85-0.05,1.66,0.32,2.18,0.99c0.48,0.7,0.71,1.53,0.67,2.37c0.04,0.84-0.19,1.67-0.67,2.37
	c-1.07,1.2-2.91,1.31-4.11,0.24c-0.09-0.08-0.17-0.16-0.24-0.25C152.01,121.57,152.01,119.75,152.9,118.3L152.9,118.3z
	 M153.13,122.81c0.88,1.08,2.46,1.24,3.54,0.37c0.13-0.11,0.26-0.23,0.37-0.37c0.78-1.33,0.77-2.98-0.01-4.31
	c-0.86-1.08-2.43-1.25-3.5-0.4c-0.15,0.12-0.28,0.25-0.4,0.4C152.35,119.84,152.35,121.48,153.13,122.81L153.13,122.81z
	 M164.17,119.14c0.02,0.47-0.16,0.93-0.48,1.27c-0.24,0.23-0.54,0.38-0.87,0.43c-0.33,0.05-0.66,0.07-0.99,0.06h-1.42v2.97h-0.3
	v-6.42h1.75C163.4,117.44,164.17,118.01,164.17,119.14L164.17,119.14z M160.4,117.71v2.92h1.22c0.5,0.03,1.01-0.02,1.49-0.17
	c0.51-0.25,0.8-0.79,0.73-1.35c0.06-0.68-0.45-1.29-1.13-1.35c-0.02,0-0.04,0-0.06,0c-0.34-0.04-0.68-0.06-1.03-0.05L160.4,117.71
	L160.4,117.71z M170.29,119.14c0.02,0.47-0.16,0.93-0.48,1.27c-0.24,0.23-0.54,0.38-0.87,0.43c-0.33,0.05-0.66,0.07-0.99,0.06h-1.42
	v2.97h-0.3v-6.42h1.75C169.52,117.44,170.29,118.01,170.29,119.14L170.29,119.14z M166.53,117.71v2.92h1.22
	c0.5,0.03,1.01-0.02,1.49-0.17c0.51-0.25,0.8-0.79,0.73-1.35c0.06-0.68-0.45-1.29-1.13-1.35c-0.02,0-0.04,0-0.06,0
	c-0.34-0.04-0.68-0.06-1.03-0.05L166.53,117.71z M172.39,117.44h0.3v6.42h-0.3V117.44z M175.18,117.44h0.3l4.03,5.92v-5.92h0.3v6.42
	h-0.3l-4.04-5.91v5.91h-0.29L175.18,117.44L175.18,117.44z M184.78,117.57c-0.76-0.03-1.48,0.33-1.9,0.96
	c-0.41,0.64-0.61,1.38-0.57,2.14c-0.03,0.75,0.17,1.49,0.57,2.13c0.42,0.63,1.14,0.99,1.9,0.96c0.64,0.04,1.26-0.21,1.71-0.66
	c0.42-0.48,0.64-1.11,0.6-1.74v-0.28h-2.12v-0.27h2.4c0.01,0.06,0.01,0.11,0.01,0.17v0.16c0.15,1.09-0.41,2.16-1.4,2.64
	c-0.38,0.16-0.79,0.24-1.2,0.23c-0.83,0.05-1.63-0.33-2.13-1c-0.88-1.44-0.88-3.24-0.01-4.68c0.49-0.68,1.3-1.07,2.14-1.02
	c0.52-0.01,1.04,0.11,1.49,0.37c0.45,0.26,0.78,0.69,0.92,1.19l-0.28,0.14C186.66,118.06,185.75,117.45,184.78,117.57L184.78,117.57
	z M9.23,35.23h29.6v9.94H20.48v9.79h16.9v9.79h-16.9V81.1H9.23L9.23,35.23z M66.07,72.01c8.11,0,13.31-6.12,13.31-13.84
	s-5.2-13.84-13.31-13.84c-8.19,0-13.31,6.12-13.31,13.84S57.89,72.01,66.07,72.01 M66.07,33.7c14.46,0,24.71,10.78,24.71,24.47
	S80.53,82.64,66.07,82.64c-14.54,0-24.71-10.78-24.71-24.47S51.54,33.7,66.07,33.7 M95.98,35.23h11.24V81.1H95.98V35.23z
	 M132.24,55.1c2.52,0,4.21-2.6,4.21-5.28s-1.99-5.05-4.51-5.05h-8.72V55.1H132.24z M111.97,35.22h19.2c9.87,0,16.29,5.96,16.29,14.6
	c0,8.03-4.05,12.54-10.86,14.22L149,81.1h-14.08l-11.7-17.13V81.1h-11.24L111.97,35.22L111.97,35.22z M151.75,35.22h30.37v9.94
	h-19.13v8.26h17.67v9.79h-17.67v8.26h19.97v9.64h-31.21V35.22L151.75,35.22z M9.67,85.72h7.74c6.55,0,11.63,4.81,11.63,11.07
	c0,5.92-4.52,11.14-11.63,11.14H9.67V85.72z M17.3,102.97c3.4,0,6.16-2.76,6.16-6.16c0-3.4-2.76-6.16-6.16-6.16h-2.18v12.33H17.3z
	 M32.85,85.35h5.18l-6.41,9.22h-0.48L32.85,85.35z M45.29,84.98h0.96l10.89,22.95h-5.85l-1.11-2.3H41.4l-1.07,2.3h-5.85L45.29,84.98
	z M48.33,101.75l-2.55-5.63H45.7l-2.59,5.63H48.33z M57.4,85.72h5.41v13.92c0,2.96,1.41,4,3.3,4c2.07,0,3.37-1.04,3.37-4V85.72h5.44
	v14.73c0,5.26-3.92,8.22-8.81,8.22c-5.07,0-8.7-3.11-8.7-8.22L57.4,85.72L57.4,85.72z M81.91,90.53h-4.96v-4.81h15.48v4.81h-5.04
	v17.4h-5.48L81.91,90.53z M104.9,84.98c6.54,0.06,11.79,5.42,11.73,11.96c-0.06,6.54-5.42,11.79-11.96,11.73
	c-6.5-0.06-11.73-5.35-11.73-11.84c-0.13-6.41,4.96-11.71,11.37-11.85C104.51,84.97,104.71,84.97,104.9,84.98z M104.9,103.52
	c3.92,0,6.44-2.96,6.44-6.7s-2.52-6.7-6.44-6.7c-3.96,0-6.44,2.96-6.44,6.7S100.94,103.52,104.9,103.52z M120.38,85.72h5.07
	l5.67,11.99l5.7-11.99h5v22.21h-5.4v-9.88l-4.85,10.62h-0.89l-4.85-10.7v9.96h-5.44L120.38,85.72L120.38,85.72z M145.37,85.72h5.74
	l8.63,13.18V85.72h5.41v22.21h-5.66l-8.67-13.21v13.21h-5.45V85.72L145.37,85.72z M168.7,85.72h14.7v4.81h-9.26v4h8.55v4.74h-8.55v4
	h9.66v4.66H168.7L168.7,85.72L168.7,85.72z M104.84,28.95c-0.12,0-0.24-0.05-0.32-0.14l-8.72-9.66l-7.37,9.1
	c-0.16,0.18-0.43,0.21-0.61,0.05c-0.18-0.15-0.21-0.41-0.06-0.6l7.68-9.49c0.01-0.01,0.02-0.02,0.03-0.03
	c0.03-0.03,0.07-0.06,0.12-0.09c0.06-0.03,0.12-0.05,0.18-0.05c0.07,0,0.13,0.01,0.19,0.04c0.05,0.02,0.09,0.05,0.12,0.08
	c0.01,0.01,0.02,0.02,0.03,0.03l9.05,10.04c0.16,0.18,0.15,0.45-0.03,0.61C105.05,28.91,104.95,28.95,104.84,28.95 M125.24,7.86
	h8.29V7.3c0.01-2.18-1.72-3.97-3.9-4.04c-1.42-0.11-2.79,0.5-3.66,1.63c-0.49,0.68-0.74,1.5-0.73,2.33L125.24,7.86L125.24,7.86z
	 M51.18,30.08H9.67c-0.24,0.01-0.44-0.17-0.46-0.41c-0.01-0.24,0.17-0.44,0.41-0.46c0.01,0,0.03,0,0.04,0h41.08V13.4
	c0-0.11,0.05-0.22,0.12-0.3L61.11,2.53c0.08-0.08,0.19-0.13,0.31-0.13c0.12,0,0.23,0.05,0.31,0.13L72.33,13.1
	c0.08,0.08,0.13,0.19,0.13,0.31v15.37h11.73c-0.06-0.2-0.11-0.4-0.13-0.61c-0.15-1.06,0.25-2.12,1.07-2.8l0.07-0.08
	c1.7-1.79,5.5-5.78,8.33-8.75c-0.46-0.52-1.47-1.63-1.79-1.89c-0.04-0.03-0.1-0.04-0.15-0.04c-1.29,0.11-2.58-0.12-3.75-0.65
	c-0.62-0.26-1.17-0.67-1.61-1.18l-4.12-4.74c-0.1-0.12-0.18-0.26-0.22-0.4c-0.15-0.4-0.11-0.86,0.12-1.22
	c0.32-0.37,0.86-0.44,1.27-0.17c0.04,0.02,0.07,0.05,0.1,0.08c0.14,0.15,3.55,3.7,4.03,4.22c0.09,0.11,0.22,0.18,0.36,0.18
	c0.05-0.01,0.09-0.03,0.12-0.07l0.14-0.17c0.07-0.08,0.06-0.2-0.01-0.27l-4.29-4.32c-0.03-0.03-0.06-0.07-0.08-0.11
	c-0.22-0.41-0.2-0.91,0.05-1.31c0.36-0.36,0.91-0.43,1.36-0.19c0.05,0.02,0.09,0.05,0.13,0.09l4.55,4.47
	c0.04,0.04,0.09,0.06,0.14,0.06c0.05,0,0.09-0.02,0.12-0.05c0.02-0.03,0.05-0.06,0.08-0.09c0.03-0.14,0.02-0.28-0.03-0.41
	C90.04,8.3,90.02,8.27,90,8.25l-4.1-4c-0.13-0.12-0.22-0.28-0.28-0.45c-0.16-0.37-0.09-0.8,0.17-1.12c0.33-0.3,0.84-0.33,1.2-0.05
	c0.22,0.15,5.11,3.63,6.43,5.65c0.6,1.07,0.78,2.33,0.5,3.52c-0.04,0.23-0.06,0.47-0.06,0.7c0.45,0.74,1,1.41,1.65,1.99l2.61-2.74
	c0.38-0.38,0.61-0.88,0.65-1.42c-0.08-1.74,0.37-3.47,1.3-4.95c1.47-1.63,3.43-2.73,5.58-3.14c0.8-0.15,1.62,0.07,2.24,0.58
	c2.02,1.82-1.04,7.18-1.42,7.82c-0.1,0.19-1.12,1.88-4.29,2.21c-0.11,0.01-0.21,0.03-0.32,0.05c-0.1,0.03-0.2,0.06-0.3,0.08
	c-0.56,0.09-1.07,0.39-1.44,0.83l-2.36,2.91l10.15,9.34c0.08,0.08,0.16,0.17,0.23,0.26c0.56,0.82,0.52,1.91-0.09,2.69h11.54
	c-0.02-0.03-0.05-0.05-0.07-0.08c-0.12-0.15-0.25-0.32-0.39-0.51c-0.6-0.86-0.87-1.91-0.74-2.95l1.92-17.24
	c0.02-0.22,0.21-0.39,0.43-0.39h3.62V7.24c-0.01-1.02,0.31-2.02,0.91-2.85c1-1.32,2.59-2.06,4.24-1.98h0.13
	c2.66,0.07,4.77,2.25,4.76,4.91v0.55h3.79c0.22,0,0.41,0.17,0.43,0.39l1.77,18.27c0.01,0.89-0.36,1.74-1.01,2.34
	c-0.05,0.05-0.11,0.1-0.16,0.15h42.3c0.24,0,0.44,0.2,0.43,0.44c0,0.24-0.19,0.43-0.43,0.43h-44.89c-0.24,0-0.44-0.19-0.44-0.43
	c0-0.24,0.19-0.44,0.43-0.44c0,0,0,0,0,0h0.13c0.03,0,0.06,0,0.08,0c0.72,0.01,1.41-0.27,1.92-0.77c0.47-0.42,0.75-1.01,0.76-1.64
	l-1.73-17.88h-3.39v2.84c0,0.24-0.2,0.44-0.44,0.44s-0.44-0.2-0.44-0.44V8.72h-8.29v2.84c0,0.24-0.2,0.44-0.44,0.44
	s-0.44-0.2-0.44-0.44V8.72h-3.23l-1.88,16.85c-0.1,0.83,0.11,1.66,0.59,2.35c0.12,0.17,0.24,0.32,0.34,0.45
	c0.34,0.35,0.79,0.58,1.27,0.64c0.24,0,0.43,0.2,0.43,0.44c0,0.24-0.2,0.43-0.44,0.43h-14.34c0,0-0.01,0-0.01,0
	c-0.05,0-0.1-0.01-0.15-0.03c-0.06-0.02-0.11-0.06-0.15-0.1l-0.01-0.01c-0.03-0.04-0.06-0.08-0.08-0.13
	c-0.02-0.05-0.03-0.1-0.03-0.15v-0.03c0-0.05,0.01-0.11,0.03-0.16c0.02-0.05,0.06-0.1,0.1-0.14c1.31-1.26,0.78-2.06,0.61-2.33
	c-0.03-0.04-0.06-0.08-0.09-0.11l-10.45-9.61c-0.03-0.03-0.06-0.07-0.08-0.11c-0.03-0.06-0.05-0.12-0.06-0.19l0,0
	c0-0.06,0.01-0.12,0.02-0.17c0.02-0.05,0.04-0.09,0.07-0.13l2.61-3.23c0.5-0.6,1.19-1.01,1.96-1.14c0.06-0.01,0.13-0.03,0.19-0.05
	c0.16-0.05,0.33-0.08,0.5-0.09c2.78-0.28,3.58-1.7,3.61-1.76l0.01-0.02c0.82-1.38,2.86-5.59,1.59-6.73
	c-0.44-0.34-1.01-0.47-1.55-0.36c-1.91,0.37-3.65,1.34-4.96,2.77c-0.81,1.32-1.21,2.84-1.14,4.39c-0.03,0.78-0.35,1.53-0.9,2.09
	l-2.91,3.05c-0.17,0.17-0.44,0.18-0.62,0.01c-0.48-0.46-2.07-2.02-2.21-2.75c-0.04-0.33-0.02-0.66,0.05-0.99
	c0.24-0.99,0.11-2.03-0.37-2.93c-1.23-1.88-6.14-5.38-6.19-5.41c-0.02-0.01-0.05-0.02-0.07-0.03c0,0.08,0.01,0.16,0.04,0.23
	c0.01,0.03,0.03,0.05,0.05,0.07l4.1,4.01c0.13,0.13,0.23,0.29,0.28,0.47c0.15,0.4,0.1,0.85-0.14,1.2c-0.04,0.05-0.08,0.09-0.12,0.13
	c-0.19,0.21-0.46,0.33-0.74,0.33c-0.29,0-0.56-0.11-0.77-0.31l-4.49-4.4c-0.08-0.03-0.18-0.04-0.27-0.03
	c-0.02,0.11-0.01,0.22,0.04,0.32l4.23,4.26c0.39,0.39,0.42,1.02,0.06,1.44l-0.14,0.17c-0.19,0.24-0.48,0.38-0.79,0.39
	c-0.38,0-0.75-0.17-1-0.46c-0.44-0.47-3.51-3.68-3.96-4.15c-0.04-0.02-0.07-0.02-0.11-0.02c-0.03,0.15-0.01,0.3,0.04,0.44
	c0.01,0.03,0.02,0.05,0.04,0.07l4.12,4.74c0.35,0.41,0.8,0.74,1.3,0.95c1.03,0.47,2.17,0.68,3.31,0.59
	c0.29-0.04,0.58,0.04,0.81,0.23c0.76,0.73,1.47,1.5,2.15,2.3c0.03,0.04,0.05,0.08,0.07,0.12c0.02,0.06,0.03,0.13,0.03,0.2
	c-0.01,0.06-0.02,0.12-0.06,0.18c-0.02,0.03-0.04,0.06-0.07,0.09c-2.86,2.99-6.85,7.18-8.6,9.03l-0.08,0.08
	c-0.65,0.51-0.97,1.33-0.83,2.14c0.03,0.22,0.09,0.43,0.18,0.62c0.23,0.17,0.27,0.48,0.11,0.71c-0.08,0.11-0.21,0.18-0.34,0.2H72.03
	c-0.24,0-0.44-0.2-0.44-0.44c0,0,0,0,0,0V13.58L61.43,3.45l-9.81,10.13v16.06C51.62,29.88,51.42,30.08,51.18,30.08
	C51.18,30.08,51.18,30.08,51.18,30.08 M183.83,113.34H8.97c-0.22,0.01-0.4-0.15-0.41-0.37c-0.01-0.22,0.15-0.4,0.37-0.41
	c0.01,0,0.03,0,0.04,0h174.86c0.22-0.01,0.4,0.15,0.41,0.37c0.01,0.22-0.15,0.4-0.37,0.41
	C183.86,113.34,183.84,113.34,183.83,113.34z"/>
</svg>
