<svg xmlns="http://www.w3.org/2000/svg" width="179" height="121.969" viewBox="0 0 179 121.969">
  <defs>
    <style>
      .cls-1 {
        fill: #fff;
        fill-rule: evenodd;
      }
    </style>
  </defs>
  <path id="logo-foire-automne" class="cls-1" d="M215.567,271.866H215.3a0.2,0.2,0,0,1-.2-0.2v-5.211l-1.94,3.767a0.2,0.2,0,0,1-.181.11H212.8a0.2,0.2,0,0,1-.179-0.107l-2.022-3.795v5.236a0.2,0.2,0,0,1-.2.2h-0.268a0.2,0.2,0,0,1-.2-0.2v-6.424a0.2,0.2,0,0,1,.2-0.2h0.429a0.2,0.2,0,0,1,.18.11l2.158,4.166,2.075-4.163a0.2,0.2,0,0,1,.181-0.113h0.421a0.2,0.2,0,0,1,.2.2v6.424A0.2,0.2,0,0,1,215.567,271.866Zm6.927,0H222.2a0.2,0.2,0,0,1-.19-0.131l-0.781-2.058h-2.715l-0.79,2.059a0.2,0.2,0,0,1-.19.13h-0.295a0.2,0.2,0,0,1-.19-0.276l2.476-6.424a0.2,0.2,0,0,1,.19-0.131h0.34a0.2,0.2,0,0,1,.19.132l2.44,6.424A0.2,0.2,0,0,1,222.494,271.866ZM218.777,269h2.189l-1.084-2.849Zm5.692,2.863h-0.295a0.2,0.2,0,0,1-.2-0.2v-6.424a0.2,0.2,0,0,1,.2-0.2h0.295a0.2,0.2,0,0,1,.2.2v6.424A0.2,0.2,0,0,1,224.469,271.866ZM228.822,272a2.314,2.314,0,0,1-1.689-.621,2.4,2.4,0,0,1-.7-1.66,0.2,0.2,0,0,1,.2-0.216h0.295a0.2,0.2,0,0,1,.2.19,1.733,1.733,0,0,0,.493,1.2,1.613,1.613,0,0,0,1.208.444,1.859,1.859,0,0,0,1.131-.336,1.111,1.111,0,0,0,.49-0.962,1.033,1.033,0,0,0-.5-0.945,4.81,4.81,0,0,0-1.232-.441,0.149,0.149,0,0,1-.04-0.015c-0.015-.005-0.04-0.011-0.073-0.019a4.143,4.143,0,0,1-1.49-.628,1.565,1.565,0,0,1-.523-1.214,1.689,1.689,0,0,1,.652-1.421,2.319,2.319,0,0,1,1.482-.461,2.288,2.288,0,0,1,1.584.543,2.089,2.089,0,0,1,.675,1.535,0.208,0.208,0,0,1-.056.15,0.2,0.2,0,0,1-.147.063h-0.286a0.2,0.2,0,0,1-.2-0.2,1.36,1.36,0,0,0-.457-1.065,1.664,1.664,0,0,0-1.128-.371,1.582,1.582,0,0,0-1.024.311,1.087,1.087,0,0,0-.4.915,0.941,0.941,0,0,0,.328.718,3,3,0,0,0,1.181.471,0.172,0.172,0,0,1,.043.016,0.344,0.344,0,0,1,.107.027,5.565,5.565,0,0,1,1.447.537,1.591,1.591,0,0,1,.773,1.412,1.878,1.878,0,0,1-.712,1.554A2.61,2.61,0,0,1,228.822,272Zm6.812,0a2.775,2.775,0,0,1-2.334-1.062,4.684,4.684,0,0,1,0-4.962,2.724,2.724,0,0,1,2.336-1.083,2.759,2.759,0,0,1,2.344,1.073,4.084,4.084,0,0,1,.71,2.489,4.04,4.04,0,0,1-.711,2.491A2.762,2.762,0,0,1,235.634,272Zm-1.783-1.509a2.315,2.315,0,0,0,3.575,0,4.058,4.058,0,0,0-.009-4.071,2.291,2.291,0,0,0-3.567,0A4.083,4.083,0,0,0,233.851,270.491Zm11.446,1.375H245a0.2,0.2,0,0,1-.168-0.088l-3.67-5.365v5.25a0.2,0.2,0,0,1-.2.2h-0.3a0.2,0.2,0,0,1-.2-0.2v-6.424a0.2,0.2,0,0,1,.2-0.2h0.3a0.205,0.205,0,0,1,.168.089l3.66,5.371v-5.256a0.2,0.2,0,0,1,.2-0.2H245.3a0.2,0.2,0,0,1,.2.2v6.424A0.2,0.2,0,0,1,245.3,271.866Zm-0.261-.512,0.057,0.083v-0.1l-0.032.013A0.183,0.183,0,0,1,245.036,271.354Zm-4.167-5.9v0.125a0.2,0.2,0,0,1,.071-0.021Zm12.16,4.235h-2.378a0.2,0.2,0,0,1-.2-0.2v-0.251a0.2,0.2,0,0,1,.2-0.2h2.378a0.2,0.2,0,0,1,.2.2v0.251A0.2,0.2,0,0,1,253.029,269.686ZM260.921,272a2.677,2.677,0,0,1-2.291-1.084,4.7,4.7,0,0,1-.009-4.922,2.671,2.671,0,0,1,2.3-1.1,3.112,3.112,0,0,1,1.6.394,2.223,2.223,0,0,1,1.012,1.3,0.2,0.2,0,0,1-.105.243l-0.278.134a0.2,0.2,0,0,1-.17,0,0.205,0.205,0,0,1-.113-0.128,1.775,1.775,0,0,0-1.942-1.276,1.968,1.968,0,0,0-1.737.868,3.488,3.488,0,0,0-.536,2.02,3.432,3.432,0,0,0,.536,2.01,1.965,1.965,0,0,0,1.737.87,2.008,2.008,0,0,0,1.559-.6,2.255,2.255,0,0,0,.544-1.6V269.06h-1.915a0.2,0.2,0,0,1-.2-0.2v-0.268a0.2,0.2,0,0,1,.2-0.2h2.405a0.2,0.2,0,0,1,.2.183c0.006,0.067.01,0.13,0.01,0.19v0.161a2.752,2.752,0,0,1-1.527,2.832A3.333,3.333,0,0,1,260.921,272Zm9.27-.134H269.9a0.2,0.2,0,0,1-.19-0.131l-0.782-2.058H266.21l-0.791,2.059a0.2,0.2,0,0,1-.189.13h-0.3a0.2,0.2,0,0,1-.19-0.276l2.476-6.424a0.2,0.2,0,0,1,.19-0.131h0.34a0.2,0.2,0,0,1,.19.132l2.44,6.424A0.2,0.2,0,0,1,270.191,271.866ZM266.474,269h2.189l-1.084-2.849Zm7.212,3a2.314,2.314,0,0,1-1.689-.621,2.4,2.4,0,0,1-.7-1.66,0.2,0.2,0,0,1,.055-0.152,0.2,0.2,0,0,1,.148-0.064h0.3a0.2,0.2,0,0,1,.2.19,1.733,1.733,0,0,0,.493,1.2,1.615,1.615,0,0,0,1.209.444,1.861,1.861,0,0,0,1.131-.336,1.111,1.111,0,0,0,.489-0.962,1.033,1.033,0,0,0-.5-0.945,4.792,4.792,0,0,0-1.232-.441,0.132,0.132,0,0,1-.039-0.015l-0.073-.019a4.142,4.142,0,0,1-1.491-.628,1.564,1.564,0,0,1-.522-1.214,1.691,1.691,0,0,1,.651-1.421,2.321,2.321,0,0,1,1.482-.461,2.293,2.293,0,0,1,1.585.543,2.085,2.085,0,0,1,.674,1.535,0.2,0.2,0,0,1-.056.15,0.2,0.2,0,0,1-.147.063h-0.286a0.2,0.2,0,0,1-.2-0.2,1.359,1.359,0,0,0-.456-1.065,1.667,1.667,0,0,0-1.128-.371,1.583,1.583,0,0,0-1.025.311,1.089,1.089,0,0,0-.4.915,0.938,0.938,0,0,0,.329.718,2.983,2.983,0,0,0,1.181.471,0.152,0.152,0,0,1,.042.016,0.344,0.344,0,0,1,.107.027,5.591,5.591,0,0,1,1.448.537,1.592,1.592,0,0,1,.772,1.412,1.875,1.875,0,0,1-.712,1.554A2.6,2.6,0,0,1,273.686,272Zm5.962-.134h-0.3a0.2,0.2,0,0,1-.2-0.2v-5.944h-1.8a0.2,0.2,0,0,1-.2-0.2v-0.277a0.2,0.2,0,0,1,.2-0.2h4.308a0.2,0.2,0,0,1,.2.2v0.277a0.2,0.2,0,0,1-.2.2h-1.8v5.944A0.2,0.2,0,0,1,279.648,271.866Zm7.91,0H287.21a0.2,0.2,0,0,1-.2-0.2v-1.439c0-.17,0-0.306,0-0.409a2.024,2.024,0,0,0-.012-0.209,0.808,0.808,0,0,0-.391-0.64,2.113,2.113,0,0,0-.891-0.138h-1.736v2.835a0.2,0.2,0,0,1-.2.2h-0.3a0.2,0.2,0,0,1-.2-0.2v-6.424a0.2,0.2,0,0,1,.2-0.2H285.6a3.265,3.265,0,0,1,1.67.334,1.948,1.948,0,0,1-.107,3.124,1.373,1.373,0,0,1,.579,1.1c0,0.01.01,0.045,0.01,0.85l0.009,1.222a0.206,0.206,0,0,1-.059.145A0.2,0.2,0,0,1,287.558,271.866Zm-3.586-3.712h1.781c1.38,0,1.54-.69,1.54-1.209a1.038,1.038,0,0,0-.915-1.185c-0.072-.01-0.177-0.02-0.308-0.029s-0.289-.012-0.469-0.012h-1.629v2.435Zm8.61,3.846a2.775,2.775,0,0,1-2.334-1.062,4.684,4.684,0,0,1,0-4.962,2.724,2.724,0,0,1,2.336-1.083,2.759,2.759,0,0,1,2.344,1.073,4.084,4.084,0,0,1,.711,2.489,4.04,4.04,0,0,1-.712,2.491A2.761,2.761,0,0,1,292.582,272Zm-1.783-1.509a2.315,2.315,0,0,0,3.575,0,4.054,4.054,0,0,0-.008-4.071,2.291,2.291,0,0,0-3.567,0A4.08,4.08,0,0,0,290.8,270.491Zm11.437,1.375h-0.3a0.2,0.2,0,0,1-.167-0.088l-3.67-5.365v5.25a0.2,0.2,0,0,1-.2.2h-0.3a0.2,0.2,0,0,1-.2-0.2v-6.424a0.2,0.2,0,0,1,.2-0.2h0.3a0.205,0.205,0,0,1,.168.089l3.66,5.371v-5.256a0.2,0.2,0,0,1,.2-0.2h0.3a0.2,0.2,0,0,1,.2.2v6.424A0.2,0.2,0,0,1,302.236,271.866Zm-0.26-.512,0.056,0.083v-0.1l-0.031.013Zm-4.167-5.9v0.125a0.179,0.179,0,0,1,.032-0.013,0.169,0.169,0,0,1,.039-0.008Zm9.45,6.549a2.773,2.773,0,0,1-2.333-1.062,4.684,4.684,0,0,1,0-4.962,2.721,2.721,0,0,1,2.335-1.083,2.757,2.757,0,0,1,2.344,1.073,4.084,4.084,0,0,1,.711,2.489,4.033,4.033,0,0,1-.712,2.491A2.761,2.761,0,0,1,307.259,272Zm-1.783-1.509a2.316,2.316,0,0,0,3.576,0,4.058,4.058,0,0,0-.009-4.071,2.291,2.291,0,0,0-3.567,0A4.087,4.087,0,0,0,305.476,270.491Zm12.26,1.375h-0.269a0.2,0.2,0,0,1-.2-0.2v-5.211l-1.94,3.767a0.2,0.2,0,0,1-.181.11h-0.178a0.205,0.205,0,0,1-.18-0.107l-2.022-3.795v5.236a0.2,0.2,0,0,1-.2.2h-0.268a0.2,0.2,0,0,1-.2-0.2v-6.424a0.2,0.2,0,0,1,.2-0.2h0.429a0.2,0.2,0,0,1,.18.11l2.158,4.166,2.074-4.163a0.2,0.2,0,0,1,.182-0.113h0.421a0.2,0.2,0,0,1,.2.2v6.424A0.2,0.2,0,0,1,317.736,271.866Zm2.779,0H320.22a0.2,0.2,0,0,1-.2-0.2v-6.424a0.2,0.2,0,0,1,.2-0.2h0.295a0.2,0.2,0,0,1,.2.2v6.424A0.2,0.2,0,0,1,320.515,271.866Zm6.508,0h-4.014a0.2,0.2,0,0,1-.2-0.2v-6.424a0.2,0.2,0,0,1,.2-0.2h3.924a0.2,0.2,0,0,1,.2.2v0.285a0.2,0.2,0,0,1-.2.2h-3.416v2.247h2.666a0.2,0.2,0,0,1,.2.2v0.277a0.2,0.2,0,0,1-.2.2h-2.666v2.515h3.506a0.2,0.2,0,0,1,.2.2v0.286A0.2,0.2,0,0,1,327.023,271.866Zm7.321-2.18h-2.378a0.2,0.2,0,0,1-.2-0.2v-0.251a0.2,0.2,0,0,1,.2-0.2h2.378a0.2,0.2,0,0,1,.2.2v0.251A0.2,0.2,0,0,1,334.344,269.686ZM341.566,272a2.312,2.312,0,0,1-1.689-.621,2.4,2.4,0,0,1-.7-1.66,0.2,0.2,0,0,1,.055-0.152,0.2,0.2,0,0,1,.148-0.064h0.3a0.2,0.2,0,0,1,.2.19,1.733,1.733,0,0,0,.493,1.2,1.615,1.615,0,0,0,1.209.444,1.856,1.856,0,0,0,1.13-.336,1.109,1.109,0,0,0,.49-0.962,1.033,1.033,0,0,0-.5-0.945,4.792,4.792,0,0,0-1.232-.441,0.143,0.143,0,0,1-.039-0.015l-0.073-.019a4.142,4.142,0,0,1-1.491-.628,1.568,1.568,0,0,1-.523-1.214,1.692,1.692,0,0,1,.652-1.421,2.319,2.319,0,0,1,1.482-.461,2.293,2.293,0,0,1,1.585.543,2.085,2.085,0,0,1,.674,1.535,0.2,0.2,0,0,1-.055.15,0.207,0.207,0,0,1-.148.063h-0.286a0.2,0.2,0,0,1-.2-0.2,1.363,1.363,0,0,0-.456-1.066,1.667,1.667,0,0,0-1.129-.371,1.582,1.582,0,0,0-1.024.311,1.089,1.089,0,0,0-.4.915,0.944,0.944,0,0,0,.328.718,3,3,0,0,0,1.182.471,0.165,0.165,0,0,1,.042.016,0.331,0.331,0,0,1,.107.027,5.591,5.591,0,0,1,1.448.537,1.592,1.592,0,0,1,.772,1.412,1.875,1.875,0,0,1-.712,1.554A2.607,2.607,0,0,1,341.566,272Zm8.9-.134h-0.3a0.2,0.2,0,0,1-.2-0.2v-3.094H346.31v3.094a0.2,0.2,0,0,1-.2.2h-0.3a0.2,0.2,0,0,1-.2-0.2v-6.424a0.2,0.2,0,0,1,.2-0.2h0.3a0.2,0.2,0,0,1,.2.2V267.9h3.661v-2.656a0.2,0.2,0,0,1,.2-0.2h0.3a0.2,0.2,0,0,1,.2.2v6.424A0.2,0.2,0,0,1,350.469,271.866ZM355.492,272a2.772,2.772,0,0,1-2.333-1.062,4.684,4.684,0,0,1,0-4.962,2.721,2.721,0,0,1,2.335-1.083,2.759,2.759,0,0,1,2.344,1.073,4.084,4.084,0,0,1,.711,2.489,4.04,4.04,0,0,1-.712,2.491A2.761,2.761,0,0,1,355.492,272Zm-1.783-1.509a2.315,2.315,0,0,0,3.575,0,4.054,4.054,0,0,0-.008-4.071,2.291,2.291,0,0,0-3.567,0A4.087,4.087,0,0,0,353.709,270.491Zm7.111,1.375h-0.3a0.2,0.2,0,0,1-.2-0.2v-6.424a0.2,0.2,0,0,1,.2-0.2h1.752c2.081,0,2.518,1.034,2.518,1.9a1.938,1.938,0,0,1-.54,1.411,1.851,1.851,0,0,1-.974.486,5.663,5.663,0,0,1-1.031.067h-1.218v2.763A0.2,0.2,0,0,1,360.82,271.866Zm0.2-3.641h1.021a3.933,3.933,0,0,0,1.41-.151,1.125,1.125,0,0,0,.613-1.165,1.044,1.044,0,0,0-1.017-1.148,6.692,6.692,0,0,0-1-.051h-1.03v2.515Zm5.92,3.641h-0.3a0.2,0.2,0,0,1-.2-0.2v-6.424a0.2,0.2,0,0,1,.2-0.2h1.752c2.081,0,2.518,1.034,2.518,1.9a1.936,1.936,0,0,1-.541,1.411,1.837,1.837,0,0,1-.972.486,5.683,5.683,0,0,1-1.032.067h-1.218v2.763A0.2,0.2,0,0,1,366.943,271.866Zm0.2-3.641h1.021a3.916,3.916,0,0,0,1.409-.151,1.124,1.124,0,0,0,.614-1.165,1.044,1.044,0,0,0-1.017-1.148,6.7,6.7,0,0,0-1-.051h-1.03v2.515Zm5.955,3.641h-0.3a0.2,0.2,0,0,1-.2-0.2v-6.424a0.2,0.2,0,0,1,.2-0.2h0.3a0.2,0.2,0,0,1,.2.2v6.424A0.2,0.2,0,0,1,373.1,271.866Zm7.125,0h-0.3a0.2,0.2,0,0,1-.168-0.088l-3.669-5.365v5.25a0.2,0.2,0,0,1-.2.2H375.6a0.2,0.2,0,0,1-.2-0.2v-6.424a0.2,0.2,0,0,1,.2-0.2h0.3a0.205,0.205,0,0,1,.168.089l3.66,5.371v-5.256a0.2,0.2,0,0,1,.2-0.2h0.3a0.2,0.2,0,0,1,.2.2v6.424A0.2,0.2,0,0,1,380.226,271.866Zm-0.261-.512,0.057,0.084v-0.1l-0.032.013A0.183,0.183,0,0,1,379.965,271.354Zm-4.166-5.9v0.125a0.169,0.169,0,0,1,.031-0.013,0.18,0.18,0,0,1,.039-0.008ZM385.2,272a2.679,2.679,0,0,1-2.292-1.084,4.7,4.7,0,0,1-.009-4.922,2.671,2.671,0,0,1,2.3-1.1,3.108,3.108,0,0,1,1.595.394,2.217,2.217,0,0,1,1.012,1.3,0.2,0.2,0,0,1-.105.242l-0.277.134a0.2,0.2,0,0,1-.17,0,0.2,0.2,0,0,1-.113-0.128,1.777,1.777,0,0,0-1.942-1.276,1.965,1.965,0,0,0-1.737.868,3.483,3.483,0,0,0-.536,2.02,3.441,3.441,0,0,0,.535,2.01,1.965,1.965,0,0,0,1.738.87,2.01,2.01,0,0,0,1.559-.6,2.255,2.255,0,0,0,.544-1.6V269.06h-1.915a0.2,0.2,0,0,1-.2-0.2v-0.268a0.2,0.2,0,0,1,.2-0.2h2.4a0.2,0.2,0,0,1,.2.184,1.789,1.789,0,0,1,.01.189v0.161a2.752,2.752,0,0,1-1.527,2.832A3.328,3.328,0,0,1,385.2,272Zm-175.073-6.761h0.429l2.342,4.521,2.252-4.521h0.42v6.424H215.3v-6.049l-2.324,4.512H212.8l-2.4-4.512v6.049h-0.268v-6.424Zm9.591,0h0.34l2.44,6.424H222.2l-0.831-2.189h-3l-0.84,2.189h-0.295Zm1.546,3.967-1.376-3.619-1.4,3.619h2.779Zm2.914-3.967h0.295v6.424h-0.295v-6.424Zm2.753,4.467a1.945,1.945,0,0,0,.555,1.332,1.824,1.824,0,0,0,1.349.5,2.049,2.049,0,0,0,1.252-.376,1.31,1.31,0,0,0,.572-1.125,1.233,1.233,0,0,0-.6-1.117,5.23,5.23,0,0,0-1.287-.465,0.5,0.5,0,0,0-.117-0.035,4.073,4.073,0,0,1-1.4-.581,1.367,1.367,0,0,1-.456-1.064,1.491,1.491,0,0,1,.572-1.259,2.116,2.116,0,0,1,1.359-.42,2.082,2.082,0,0,1,1.448.491,1.882,1.882,0,0,1,.608,1.394h-0.286a1.57,1.57,0,0,0-.527-1.215,1.873,1.873,0,0,0-1.261-.42,1.767,1.767,0,0,0-1.153.357,1.288,1.288,0,0,0-.474,1.072,1.144,1.144,0,0,0,.394.867,3.273,3.273,0,0,0,1.269.518,0.16,0.16,0,0,0,.049.014,0.337,0.337,0,0,1,.076.022,5.589,5.589,0,0,1,1.412.519,1.393,1.393,0,0,1,.68,1.241,1.675,1.675,0,0,1-.635,1.394,2.393,2.393,0,0,1-1.5.447,2.109,2.109,0,0,1-1.546-.563,2.194,2.194,0,0,1-.644-1.528h0.295Zm6.535-3.61a2.519,2.519,0,0,1,2.172-1,2.554,2.554,0,0,1,2.181.991,3.874,3.874,0,0,1,.67,2.368,3.826,3.826,0,0,1-.67,2.368,2.91,2.91,0,0,1-4.353-.009A4.482,4.482,0,0,1,233.462,266.1Zm0.223,4.513a2.517,2.517,0,0,0,3.906,0,4.256,4.256,0,0,0-.008-4.307,2.494,2.494,0,0,0-3.9,0A4.282,4.282,0,0,0,233.685,270.609Zm6.981-5.37h0.3L245,271.154v-5.915H245.3v6.424H245l-4.041-5.906v5.906h-0.3v-6.424Zm9.985,3.993h2.378v0.251h-2.378v-0.251Zm10.27-3.868a2.173,2.173,0,0,0-1.9.956,3.664,3.664,0,0,0-.572,2.135,3.622,3.622,0,0,0,.572,2.127,2.175,2.175,0,0,0,1.9.956,2.226,2.226,0,0,0,1.708-.661,2.438,2.438,0,0,0,.6-1.743v-0.277h-2.118v-0.268h2.405c0,0.06.009,0.116,0.009,0.17v0.161a2.556,2.556,0,0,1-1.4,2.645,3.107,3.107,0,0,1-1.2.232,2.471,2.471,0,0,1-2.127-1,4.5,4.5,0,0,1-.009-4.682,2.467,2.467,0,0,1,2.136-1.018,2.906,2.906,0,0,1,1.493.366,2.016,2.016,0,0,1,.921,1.188l-0.277.135A1.973,1.973,0,0,0,260.921,265.364Zm6.49-.125h0.34l2.44,6.424H269.9l-0.831-2.189h-3l-0.84,2.189h-0.3Zm1.546,3.967-1.376-3.619-1.4,3.619h2.78Zm2.834,0.5a1.94,1.94,0,0,0,.554,1.332,1.826,1.826,0,0,0,1.35.5,2.048,2.048,0,0,0,1.251-.376,1.31,1.31,0,0,0,.572-1.125,1.231,1.231,0,0,0-.6-1.117,5.2,5.2,0,0,0-1.287-.465,0.5,0.5,0,0,0-.116-0.035,4.054,4.054,0,0,1-1.4-.581,1.367,1.367,0,0,1-.456-1.064,1.488,1.488,0,0,1,.572-1.259,2.111,2.111,0,0,1,1.358-.42,2.087,2.087,0,0,1,1.449.491,1.885,1.885,0,0,1,.607,1.394h-0.286a1.567,1.567,0,0,0-.527-1.215,1.873,1.873,0,0,0-1.26-.42,1.77,1.77,0,0,0-1.154.357,1.29,1.29,0,0,0-.473,1.072,1.147,1.147,0,0,0,.393.867,3.287,3.287,0,0,0,1.269.518,0.16,0.16,0,0,0,.049.014,0.323,0.323,0,0,1,.076.022,5.6,5.6,0,0,1,1.413.519,1.392,1.392,0,0,1,.679,1.241,1.674,1.674,0,0,1-.634,1.394,2.4,2.4,0,0,1-1.5.447,2.112,2.112,0,0,1-1.547-.563,2.193,2.193,0,0,1-.643-1.528h0.3Zm7.553-4.19h-2v-0.277h4.308v0.277h-2v6.147h-0.3v-6.147Zm4.424,3.109v3.038h-0.3v-6.424H285.6a3.115,3.115,0,0,1,1.564.3,1.49,1.49,0,0,1,.635,1.376,1.51,1.51,0,0,1-1.162,1.582,1.1,1.1,0,0,1,.9,1.108q0.007,0.045.008,0.831l0.009,1.224H287.21v-1.439c0-.172,0-0.311,0-0.415s-0.007-.18-0.013-0.228a1.006,1.006,0,0,0-.5-0.8,2.26,2.26,0,0,0-.983-0.161h-1.94Zm1.985-.268q1.743,0,1.743-1.412a1.238,1.238,0,0,0-1.082-1.385c-0.083-.012-0.194-0.022-0.33-0.031s-0.3-.013-0.483-0.013h-1.833v2.841h1.985Zm4.657-2.261a2.52,2.52,0,0,1,2.172-1,2.554,2.554,0,0,1,2.181.991,3.874,3.874,0,0,1,.67,2.368,3.826,3.826,0,0,1-.67,2.368,2.91,2.91,0,0,1-4.353-.009A4.488,4.488,0,0,1,290.41,266.1Zm0.223,4.513a2.518,2.518,0,0,0,3.907,0,4.253,4.253,0,0,0-.009-4.307,2.494,2.494,0,0,0-3.9,0A4.282,4.282,0,0,0,290.633,270.609Zm6.973-5.37h0.3l4.031,5.915v-5.915h0.3v6.424h-0.3l-4.04-5.906v5.906h-0.3v-6.424Zm7.481,0.857a2.521,2.521,0,0,1,2.172-1,2.555,2.555,0,0,1,2.182.991,3.88,3.88,0,0,1,.67,2.368,3.832,3.832,0,0,1-.67,2.368,2.911,2.911,0,0,1-4.354-.009A4.488,4.488,0,0,1,305.087,266.1Zm0.224,4.513a2.517,2.517,0,0,0,3.906,0,4.253,4.253,0,0,0-.009-4.307,2.493,2.493,0,0,0-3.9,0A4.282,4.282,0,0,0,305.311,270.609Zm6.981-5.37h0.429l2.342,4.521,2.252-4.521h0.421v6.424h-0.269v-6.049l-2.324,4.512h-0.178l-2.4-4.512v6.049h-0.268v-6.424Zm7.929,0h0.294v6.424h-0.294v-6.424Zm2.788,0h3.925v0.285h-3.621v2.654h2.87v0.277h-2.87v2.922h3.71v0.286h-4.014v-6.424Zm8.957,3.993h2.377v0.251h-2.377v-0.251Zm7.7,0.474a1.944,1.944,0,0,0,.554,1.332,1.826,1.826,0,0,0,1.35.5,2.046,2.046,0,0,0,1.251-.376,1.31,1.31,0,0,0,.572-1.125,1.231,1.231,0,0,0-.6-1.117,5.2,5.2,0,0,0-1.287-.465,0.5,0.5,0,0,0-.116-0.035,4.054,4.054,0,0,1-1.4-.581,1.367,1.367,0,0,1-.456-1.064,1.488,1.488,0,0,1,.572-1.259,2.111,2.111,0,0,1,1.358-.42,2.087,2.087,0,0,1,1.449.491,1.885,1.885,0,0,1,.607,1.394h-0.286a1.567,1.567,0,0,0-.527-1.215,1.873,1.873,0,0,0-1.26-.42,1.77,1.77,0,0,0-1.154.357,1.29,1.29,0,0,0-.473,1.072,1.147,1.147,0,0,0,.393.867,3.287,3.287,0,0,0,1.269.518,0.17,0.17,0,0,0,.049.014,0.323,0.323,0,0,1,.076.022,5.584,5.584,0,0,1,1.413.519,1.392,1.392,0,0,1,.679,1.241,1.674,1.674,0,0,1-.634,1.394,2.4,2.4,0,0,1-1.5.447,2.112,2.112,0,0,1-1.547-.563,2.2,2.2,0,0,1-.643-1.528h0.3Zm6.132-4.467h0.3V268.1h4.067v-2.859h0.3v6.424h-0.3v-3.3h-4.067v3.3h-0.3v-6.424Zm7.517,0.857a2.521,2.521,0,0,1,2.172-1,2.552,2.552,0,0,1,2.181.991,3.874,3.874,0,0,1,.671,2.368,3.826,3.826,0,0,1-.671,2.368,2.91,2.91,0,0,1-4.353-.009A4.488,4.488,0,0,1,353.32,266.1Zm0.224,4.513a2.517,2.517,0,0,0,3.906,0,4.253,4.253,0,0,0-.009-4.307,2.493,2.493,0,0,0-3.9,0A4.282,4.282,0,0,0,353.544,270.609Zm11.039-3.673a1.737,1.737,0,0,1-.482,1.269,1.634,1.634,0,0,1-.868.429,5.554,5.554,0,0,1-.992.063H360.82v2.966h-0.3v-6.424h1.752Q364.583,265.239,364.583,266.936Zm-3.763-1.429v2.921h1.224a4.259,4.259,0,0,0,1.493-.169,1.318,1.318,0,0,0,.733-1.35,1.244,1.244,0,0,0-1.189-1.349,6.943,6.943,0,0,0-1.028-.053H360.82Zm9.886,1.429a1.733,1.733,0,0,1-.483,1.269,1.627,1.627,0,0,1-.867.429,5.554,5.554,0,0,1-.992.063h-1.421v2.966h-0.3v-6.424h1.752Q370.706,265.239,370.706,266.936Zm-3.763-1.429v2.921h1.224a4.259,4.259,0,0,0,1.493-.169,1.318,1.318,0,0,0,.733-1.35,1.244,1.244,0,0,0-1.189-1.349,6.943,6.943,0,0,0-1.028-.053h-1.233Zm5.863-.268h0.3v6.424h-0.3v-6.424Zm2.789,0h0.3l4.032,5.915v-5.915h0.3v6.424h-0.3l-4.041-5.906v5.906H375.6v-6.424Zm9.6,0.125a2.172,2.172,0,0,0-1.9.956,3.657,3.657,0,0,0-.573,2.135,3.615,3.615,0,0,0,.573,2.127,2.174,2.174,0,0,0,1.9.956,2.222,2.222,0,0,0,1.707-.661,2.438,2.438,0,0,0,.6-1.743v-0.277h-2.118v-0.268h2.4a1.7,1.7,0,0,1,.009.17v0.161a2.556,2.556,0,0,1-1.4,2.645,3.1,3.1,0,0,1-1.2.232,2.473,2.473,0,0,1-2.128-1,4.5,4.5,0,0,1-.009-4.682A2.468,2.468,0,0,1,385.2,265.1a2.905,2.905,0,0,1,1.492.366,2.016,2.016,0,0,1,.921,1.188l-0.277.135A1.972,1.972,0,0,0,385.2,265.364ZM209.651,183.022h29.6v9.94H220.9v9.788H237.8v9.787H220.9V228.9H209.651V183.022Zm56.838,36.78c8.109,0,13.31-6.118,13.31-13.84s-5.2-13.841-13.31-13.841c-8.186,0-13.311,6.117-13.311,13.841s5.125,13.84,13.311,13.84m0-38.31c14.458,0,24.708,10.782,24.708,24.47s-10.25,24.469-24.708,24.469c-14.535,0-24.709-10.782-24.709-24.469s10.174-24.47,24.709-24.47m29.911,1.53h11.245V228.9H296.4V183.022ZM332.66,202.9c2.524,0,4.208-2.6,4.208-5.276s-1.989-5.047-4.514-5.047h-8.721V202.9h9.027Zm-20.272-19.881h19.2c9.868,0,16.294,5.964,16.294,14.605,0,8.029-4.054,12.54-10.863,14.222L349.413,228.9H335.338l-11.705-17.128V228.9H312.388V183.022Zm39.776,0h30.37v9.94H363.409v8.259H381.08v9.787H363.409v8.258h19.966V228.9H352.164V183.022ZM210.087,233.516h7.739c6.553,0,11.626,4.811,11.626,11.067,0,5.922-4.517,11.14-11.626,11.14h-7.739V233.516Zm7.627,17.248a6.163,6.163,0,0,0,0-12.326H215.53v12.326h2.184Zm15.551-17.618h5.184l-6.406,9.216h-0.481Zm12.442-.37h0.963l10.886,22.947h-5.851l-1.11-2.3h-8.776l-1.074,2.3H234.9Zm3.036,16.766-2.555-5.626h-0.074l-2.592,5.626h5.221Zm9.072-16.026h5.406v13.917c0,2.961,1.407,4,3.3,4,2.074,0,3.37-1.036,3.37-4V233.516h5.443v14.731c0,5.256-3.925,8.217-8.813,8.217-5.073,0-8.7-3.109-8.7-8.217V233.516Zm24.512,4.811h-4.962v-4.811h15.477v4.811h-5.035v17.4h-5.48v-17.4Zm22.994-5.551A11.845,11.845,0,1,1,293.36,244.62,11.609,11.609,0,0,1,305.321,232.776Zm0,18.543c3.924,0,6.442-2.961,6.442-6.7s-2.518-6.7-6.442-6.7c-3.963,0-6.443,2.961-6.443,6.7S301.358,251.319,305.321,251.319Zm15.476-17.8h5.073l5.665,11.992,5.7-11.992h5v22.207h-5.4v-9.882l-4.851,10.623h-0.889l-4.851-10.7v9.956H320.8V233.516Zm24.993,0h5.739l8.628,13.176V233.516h5.406v22.207H359.9l-8.665-13.213v13.213H345.79V233.516Zm23.327,0h14.7v4.811H374.56v4h8.553v4.738H374.56v4h9.664v4.663H369.117V233.516Zm-63.861-56.774a0.436,0.436,0,0,1-.324-0.143l-8.718-9.664-7.368,9.1a0.436,0.436,0,0,1-.678-0.548L295.852,166c0.009-.012.018-0.023,0.028-0.034a0.478,0.478,0,0,1,.116-0.086,0.427,0.427,0,0,1,.184-0.048h0a0.454,0.454,0,0,1,.193.037,0.459,0.459,0,0,1,.123.083,0.4,0.4,0,0,1,.028.03l9.054,10.036a0.435,0.435,0,0,1-.323.727m20.4-21.094h8.292V155.1a4.018,4.018,0,0,0-3.9-4.037,4.192,4.192,0,0,0-3.656,1.63,3.927,3.927,0,0,0-.735,2.333v0.627ZM251.6,177.871H210.086a0.436,0.436,0,1,1,0-.871h41.078V161.2a0.438,0.438,0,0,1,.123-0.3l10.238-10.573a0.436,0.436,0,0,1,.31-0.133h0a0.432,0.432,0,0,1,.307.128l10.609,10.573a0.437,0.437,0,0,1,.128.309v15.374h11.731a3.309,3.309,0,0,1-.133-0.608,3.071,3.071,0,0,1,1.07-2.8l0.074-.078c1.695-1.79,5.5-5.783,8.334-8.754-0.462-.524-1.474-1.635-1.785-1.89a0.206,0.206,0,0,0-.154-0.036,7.587,7.587,0,0,1-3.753-.65,4.418,4.418,0,0,1-1.613-1.18l-4.12-4.745a1.066,1.066,0,0,1-.22-0.405,1.373,1.373,0,0,1,.124-1.221,0.973,0.973,0,0,1,1.268-.171,0.471,0.471,0,0,1,.1.076c0.144,0.151,3.546,3.7,4.026,4.219a0.5,0.5,0,0,0,.359.185,0.178,0.178,0,0,0,.119-0.071l0.136-.167a0.2,0.2,0,0,0-.011-0.272l-4.289-4.323a0.419,0.419,0,0,1-.082-0.114,1.3,1.3,0,0,1,.049-1.306,1.149,1.149,0,0,1,1.357-.192,0.415,0.415,0,0,1,.128.087l4.551,4.467a0.211,0.211,0,0,0,.142.057,0.167,0.167,0,0,0,.123-0.054c0.025-.026.054-0.059,0.082-0.093a0.666,0.666,0,0,0-.028-0.408,0.186,0.186,0,0,0-.051-0.083l-4.1-4a1.041,1.041,0,0,1-.276-0.448,1.088,1.088,0,0,1,.167-1.116,0.939,0.939,0,0,1,1.2-.054c0.217,0.153,5.112,3.632,6.427,5.652a4.9,4.9,0,0,1,.5,3.521,3.161,3.161,0,0,0-.057.7,8.791,8.791,0,0,0,1.647,1.985l2.615-2.74a2.216,2.216,0,0,0,.653-1.419,8.509,8.509,0,0,1,1.3-4.948,10.031,10.031,0,0,1,5.582-3.137,2.729,2.729,0,0,1,2.238.582c2.017,1.823-1.044,7.177-1.422,7.817-0.1.189-1.121,1.885-4.29,2.208a1.685,1.685,0,0,0-.315.055,2.092,2.092,0,0,1-.3.076,2.384,2.384,0,0,0-1.44.827l-2.358,2.912,10.154,9.34a1.625,1.625,0,0,1,.226.264,2.284,2.284,0,0,1-.086,2.691h11.542c-0.024-.026-0.048-0.052-0.071-0.079-0.123-.145-0.253-0.316-0.389-0.507a4.259,4.259,0,0,1-.744-2.947l1.92-17.237a0.435,0.435,0,0,1,.433-0.387h3.619v-0.627a4.8,4.8,0,0,1,.907-2.853,5.016,5.016,0,0,1,4.243-1.983h0.127a4.894,4.894,0,0,1,4.759,4.909v0.553h3.788a0.435,0.435,0,0,1,.434.394l1.774,18.274a3.1,3.1,0,0,1-1.011,2.335c-0.053.054-.108,0.1-0.163,0.154h42.3a0.436,0.436,0,0,1,0,.872H337.051a0.436,0.436,0,1,1,0-.872h0.125a0.47,0.47,0,0,1,.084,0,2.712,2.712,0,0,0,1.923-.767,2.26,2.26,0,0,0,.761-1.641l-1.735-17.876h-3.392v2.841a0.436,0.436,0,0,1-.872,0V156.52h-8.292v2.841a0.436,0.436,0,0,1-.872,0V156.52h-3.229l-1.877,16.849a3.4,3.4,0,0,0,.589,2.346c0.122,0.171.237,0.322,0.343,0.446a2.2,2.2,0,0,0,1.273.644,0.436,0.436,0,0,1-.012.872H307.529a0.034,0.034,0,0,0-.01,0h0a0.429,0.429,0,0,1-.152-0.031h0a0.43,0.43,0,0,1-.149-0.1h0l-0.011-.012h0a0.447,0.447,0,0,1-.079-0.125h0a0.477,0.477,0,0,1-.032-0.146v-0.027h0a0.466,0.466,0,0,1,.034-0.159,0.449,0.449,0,0,1,.1-0.142l0,0c1.312-1.257.78-2.062,0.605-2.327a0.609,0.609,0,0,0-.094-0.11l-10.45-9.612a0.409,0.409,0,0,1-.085-0.106h0a0.44,0.44,0,0,1-.056-0.19,0,0,0,0,1,0,0,0.441,0.441,0,0,1,.025-0.172h0a0.45,0.45,0,0,1,.074-0.129l2.614-3.227a3.25,3.25,0,0,1,1.964-1.136,1.46,1.46,0,0,0,.187-0.047,2.427,2.427,0,0,1,.5-0.094c2.783-.284,3.581-1.7,3.614-1.76l0.01-.018c0.816-1.382,2.859-5.588,1.591-6.734a1.916,1.916,0,0,0-1.554-.363,9.1,9.1,0,0,0-4.965,2.77,7.71,7.71,0,0,0-1.145,4.389,3.106,3.106,0,0,1-.9,2.088l-2.912,3.051,0,0a0.437,0.437,0,0,1-.617.014c-0.482-.462-2.067-2.023-2.211-2.75a3.185,3.185,0,0,1,.048-0.989,4.106,4.106,0,0,0-.372-2.925c-1.225-1.882-6.141-5.376-6.191-5.411a0.349,0.349,0,0,0-.07-0.028,0.757,0.757,0,0,0,.039.231,0.179,0.179,0,0,0,.047.073l4.1,4.006a1.059,1.059,0,0,1,.281.469,1.325,1.325,0,0,1-.136,1.2c-0.04.048-.08,0.092-0.119,0.134a1.038,1.038,0,0,1-.744.332,1.088,1.088,0,0,1-.77-0.307l-4.486-4.4a0.537,0.537,0,0,0-.266-0.03,0.528,0.528,0,0,0,.037.315l4.232,4.264a1.069,1.069,0,0,1,.064,1.44l-0.138.169a1.038,1.038,0,0,1-.788.387h0a1.338,1.338,0,0,1-1-.464c-0.441-.474-3.507-3.678-3.961-4.151a0.252,0.252,0,0,0-.114-0.021,0.841,0.841,0,0,0,.038.436,0.194,0.194,0,0,0,.04.073l4.12,4.745a3.544,3.544,0,0,0,1.3.949,6.718,6.718,0,0,0,3.306.588,1.064,1.064,0,0,1,.812.227,30.984,30.984,0,0,1,2.153,2.3,0.446,0.446,0,0,1,.072.122,0.45,0.45,0,0,1,.028.2,0.437,0.437,0,0,1-.056.177,0.452,0.452,0,0,1-.069.089c-2.855,2.994-6.848,7.184-8.6,9.029l-0.075.079a2.247,2.247,0,0,0-.832,2.139,2.136,2.136,0,0,0,.183.624,0.508,0.508,0,0,1-.234.913H272.447a0.436,0.436,0,0,1-.436-0.436V161.376l-10.167-10.134-9.808,10.129v16.064a0.436,0.436,0,0,1-.436.436M384.247,261.14H209.39a0.39,0.39,0,1,1,0-.779H384.247A0.39,0.39,0,1,1,384.247,261.14Z" transform="translate(-209 -150.031)"/>
</svg>
